<svg version="1.1" xmlns="http://www.w3.org/2000/svg" xmlns:xlink="http://www.w3.org/1999/xlink" width="527.76918" height="414.98014" viewBox="0,0,527.76918,414.98014"><defs><radialGradient cx="224.04885" cy="216.76098" r="115.84889" gradientUnits="userSpaceOnUse" id="color-1"><stop offset="0" stop-color="#ffb500"/><stop offset="1" stop-color="#b78300"/></radialGradient><radialGradient cx="187.46046" cy="285.75172" r="37.26596" gradientUnits="userSpaceOnUse" id="color-2"><stop offset="0" stop-color="#000000"/><stop offset="1" stop-color="#342500"/></radialGradient><radialGradient cx="234.57428" cy="199.54348" r="37.26595" gradientUnits="userSpaceOnUse" id="color-3"><stop offset="0" stop-color="#000000"/><stop offset="1" stop-color="#342500"/></radialGradient><radialGradient cx="269.65904" cy="287.75658" r="37.26596" gradientUnits="userSpaceOnUse" id="color-4"><stop offset="0" stop-color="#000000"/><stop offset="1" stop-color="#342500"/></radialGradient><radialGradient cx="207.5759" cy="214.0239" r="191.24285" gradientUnits="userSpaceOnUse" id="color-5"><stop offset="0" stop-color="#b57600"/><stop offset="1" stop-color="#ffb300"/></radialGradient><radialGradient cx="240" cy="171.15797" r="255.67778" gradientUnits="userSpaceOnUse" id="color-6"><stop offset="0" stop-color="#c4a764"/><stop offset="1" stop-color="#867047"/></radialGradient><radialGradient cx="240" cy="171.15797" r="255.67778" gradientUnits="userSpaceOnUse" id="color-7"><stop offset="0" stop-color="#c4a764"/><stop offset="1" stop-color="#867047"/></radialGradient><radialGradient cx="240" cy="171.15797" r="220.54988" gradientUnits="userSpaceOnUse" id="color-8"><stop offset="0" stop-color="#c4a764"/><stop offset="1" stop-color="#867047"/></radialGradient></defs><g transform="translate(17.67778,23.63133)"><g data-paper-data="{&quot;isPaintingLayer&quot;:true}" fill-rule="nonzero" stroke-linecap="butt" stroke-linejoin="miter" stroke-miterlimit="10" stroke-dasharray="" stroke-dashoffset="0" style="mix-blend-mode: normal"><path d="M-7.36973,367.14059v-374.28116h494.73947v374.28116z" fill="#000000" stroke="none" stroke-width="NaN"/><path d="M112.48624,330.78423l121.96084,-227.32289l109.73694,226.60859z" fill="url(#color-1)" stroke="#000000" stroke-width="4"/><path d="M224.04885,285.75172c0,20.58142 -16.38118,37.26596 -36.58839,37.26596c-20.20721,0 -36.58839,-16.68454 -36.58839,-37.26596c0,-20.58142 16.38118,-37.26595 36.58839,-37.26595c20.20721,0 36.58839,16.68453 36.58839,37.26595z" fill="url(#color-2)" stroke="#000000" stroke-width="4"/><path d="M271.16267,199.54348c0,20.58142 -16.38118,37.26595 -36.58839,37.26595c-20.20721,0 -36.58839,-16.68453 -36.58839,-37.26595c0,-20.58142 16.38118,-37.26596 36.58839,-37.26596c20.20721,0 36.58839,16.68454 36.58839,37.26596z" fill="url(#color-3)" stroke="#000000" stroke-width="4"/><path d="M306.24743,287.75658c0,20.58142 -16.38118,37.26596 -36.58839,37.26596c-20.20721,0 -36.58839,-16.68454 -36.58839,-37.26596c0,-20.58142 16.38118,-37.26595 36.58839,-37.26595c20.20721,0 36.58839,16.68453 36.58839,37.26595z" fill="url(#color-4)" stroke="#000000" stroke-width="4"/><path d="M398.81876,214.0239c0,97.93385 -85.62234,177.32491 -191.24285,177.32491c-105.62051,0 -191.24285,-79.39106 -191.24285,-177.32491c0,-97.93385 85.62234,-177.32491 191.24285,-177.32491c105.62051,0 191.24285,79.39106 191.24285,177.32491zM197.58447,264.75737c0.95509,0.38818 2.10913,-0.30843 3.09287,0c0.6766,0.21214 0.91882,1.1346 1.5509,1.45595c1.49546,0.76028 7.56602,2.52254 9.06387,2.97712c4.54699,0 7.87503,2.35028 12.37151,3.09287c5.72625,0.9457 12.35279,0.13312 18.14675,0.13312c3.87179,0 10.0561,0.1181 13.22394,-0.78477c1.4494,-0.4131 2.2332,-2.06033 3.53668,-2.81688c0.93989,-0.54551 2.16398,-0.46693 3.09287,-1.03096c1.03599,-0.62905 1.66158,-1.79581 2.66997,-2.4682c4.11702,-2.74523 8.22717,-4.58544 10.9894,-9.12925c2.70745,-4.45368 4.02246,-11.1713 5.53044,-16.14016c0,-2.09036 0.72384,-4.11808 1.03096,-6.18576c0.4971,-3.34672 0.49832,-8.80556 0.05588,-12.1897c-1.58302,-12.10818 -5.55573,-24.08278 -11.62507,-34.84376c-1.09829,-1.94727 -2.79121,-3.53526 -3.77944,-5.54063c-1.52966,-3.10407 -3.17839,-6.3603 -5.81797,-8.5981c-5.27464,-4.47175 -12.13885,-5.90602 -18.70779,-7.24038c-11.63374,-2.73455 -25.7455,-2.05168 -37.10396,1.19093c-7.5587,2.15786 -14.8546,4.13885 -21.18003,9.14232c-4.51699,3.57299 -8.21242,8.34931 -11.74626,12.77722c-3.33847,4.18311 -6.13598,7.44781 -7.99345,12.55461c-3.41584,10.31892 -3.427,19.91364 0,30.23241c0.35998,1.08389 0.97409,2.96945 1.59161,4.70981c-0.03857,0.41663 -0.05875,0.85255 -0.05875,1.30864c0,6.29479 3.84345,8.74613 6.83691,9.70074c0.91122,0.79096 1.72793,1.54436 1.91953,1.90508c0.66403,1.25017 0.59127,2.94542 1.60772,3.93066c2.40575,2.33187 5.21513,4.36032 8.29842,5.67129c1.41018,0.59958 2.99851,0.46262 4.5635,0.42219c2.8498,2.46143 5.93461,4.58315 8.83897,5.76356z" fill="url(#color-5)" stroke="none" stroke-width="0"/><path d="M-15.67778,363.94727v-385.57859h511.35556v385.57859zM79.54532,139.06733c0.02725,1.3042 -0.03676,2.93569 -0.10378,4.74048c-10.05422,3.3884 -14.4298,8.0516 -9.45279,20.63466c0.26653,0.67383 1.45263,1.47744 2.966,2.29946c-1.36329,1.48828 -2.39806,3.16262 -2.79992,5.08995c-1.44634,6.93674 4.98754,10.50906 9.24604,13.40055c0.82237,0.68611 1.61767,1.40644 2.40275,2.13942c-2.04237,1.41638 -3.52634,4.23463 -4.48226,10.21893c-0.55962,3.50335 3.19935,6.34455 5.08152,9.3519c0.6144,0.98168 2.09733,1.23295 2.64396,2.25392c0.20611,0.38496 0.32795,0.80524 0.42236,1.23536c-0.02283,0.01975 -0.04532,0.03955 -0.06747,0.05936l-2.86734,0.95578c-4.21275,1.29561 -7.27494,5.21805 -7.27494,9.85571c0,4.63766 3.06219,8.5601 7.27494,9.85571l2.86734,0.95578c1.56721,0.47562 3.08464,1.16677 4.70164,1.42689c1.48621,0.23909 3.03059,-0.19052 4.51559,0.05588c2.71578,0.45062 5.28992,1.60123 8.00761,2.02635c0.17117,0.9334 0.44675,1.8644 0.60187,2.79519c0.16949,1.01693 -0.2452,2.0915 0,3.09287c1.42849,5.83358 2.26656,7.6895 6.73318,11.47622c2.10357,1.78336 4.80448,2.72004 7.30185,3.88989c0.02435,0.0114 0.04849,0.02311 0.07238,0.03511c-0.24492,0.72464 -0.48099,1.45603 -0.82069,2.12988c-0.80245,1.59179 -2.28119,2.89467 -2.66788,4.63485c-0.63401,2.85316 -0.55103,5.85008 -0.30923,8.7628c0.83974,10.11651 9.73596,17.08302 17.04276,22.81677c1.12097,0.87965 1.9461,2.14286 3.17802,2.85893c3.85892,2.24309 11.41901,4.40998 15.74474,4.58243c2.52482,0.10065 5.39513,0.64008 7.6172,-0.48573c2.18432,1.54732 4.45698,3.01349 6.99487,4.41856c3.09229,1.712 5.75871,4.22664 9.03796,5.54561c6.35318,2.55537 12.97972,1.91228 19.63516,1.91228c7.21671,0 14.43342,0 21.65014,0c2.37047,-0.14746 4.84924,0.28117 7.1114,-0.44236c2.25559,-0.72141 4.21735,-2.17428 6.13525,-3.58487c0.3986,-0.0652 0.81756,-0.1989 1.20185,-0.14678c5.64754,0.76593 10.76158,1.12055 16.48026,1.08114c2.85217,-0.01966 5.74732,0.40762 8.55627,-0.08739c5.66733,-0.99876 11.13339,-2.91765 16.70333,-4.3641c6.57508,-1.70747 9.1024,-1.66887 14.4036,-4.88459c5.86137,-3.55554 9.56368,-4.6387 11.1133,-8.27032c1.92063,0.12821 3.87127,0.08011 5.92625,0.08011c9.96514,0 21.32818,-0.40016 27.32712,-10.04431c2.96981,-4.7744 2.57069,-9.48094 2.57069,-14.6987c0,-0.0415 0.00003,-0.08303 0.00011,-0.12453c3.53055,0.63014 7.29786,0.68704 10.20416,-0.31783c4.53081,-1.56654 6.44265,-3.71436 9.45722,-6.70109c6.75472,-6.69236 12.32298,-14.89685 17.97522,-22.48908c0.01564,-0.58516 -0.354,-1.32896 0.04692,-1.75549c1.59185,-1.69355 4.93698,-1.9694 5.5592,-4.20879c1.09519,-3.94171 -0.13971,-8.23151 -0.99087,-12.23299c-0.55306,-2.60012 -2.94545,-4.46197 -3.98028,-6.91057c-1.77773,-4.20647 -4.11712,-11.09124 -6.72145,-15.73519c1.16698,-2.12077 0.89602,-5.58743 1.25444,-6.95865c0.38331,-1.46643 1.43155,-2.70181 1.82054,-4.16673c0.7811,-2.9416 3.29234,-15.60904 3.49435,-19.73315c0.11128,-2.27193 0.28672,-4.64802 -0.41642,-6.81127c-0.79657,-2.45065 -2.277,-4.68697 -3.9563,-6.64148c-1.71858,-2.00023 -3.67968,-3.9794 -6.08945,-5.05057c-5.94864,-2.64422 -12.98736,0.28291 -18.99918,0.37931c-0.38201,0.11566 -0.76379,0.23211 -1.14551,0.34875c-1.89027,-9.19727 -4.20456,-18.57988 -7.0212,-27.48524c-0.82896,-2.62088 -2.26204,-5.01506 -3.22638,-7.58923c-2.76128,-7.37076 -5.30924,-14.83033 -8.41484,-22.06277c-2.90031,-6.75435 -6.16424,-15.24071 -11.45808,-20.73983c-1.09244,-1.1348 -2.62477,-1.75073 -3.84669,-2.74477c-2.32113,-1.88825 -4.50446,-4.03612 -7.16142,-5.41226c-6.94906,-3.59916 -15.43596,-5.05638 -23.08679,-5.17215c-9.44401,0.05115 -18.0898,-0.60828 -24.23424,7.98238c-1.16941,1.63499 -1.53832,3.71877 -2.15955,5.63052c-1.33673,4.11365 -2.03903,8.40778 -3.15316,12.58722c-0.17177,0.64435 -0.35453,1.28572 -0.54192,1.92581c-2.69628,-2.06969 -5.19797,-3.84048 -6.13068,-4.51415c-6.87546,-4.96586 -14.30667,-9.14876 -21.80428,-13.11327c-3.65355,-1.93188 -6.80634,-4.82519 -10.64472,-6.35731c-8.27918,-3.30473 -15.93983,-1.43589 -22.40625,4.38129c-6.68589,4.45726 -11.68305,9.93248 -16.31338,16.45173c-0.22386,0.31518 -0.44665,0.63141 -0.67079,0.94671c-0.31168,-0.23405 -0.63069,-0.45762 -0.95739,-0.66916c-1.82442,-1.18128 -4.28408,-1.0095 -6.18576,-2.06192c-1.779,-0.98453 -3.10186,-3.02902 -5.11332,-3.32586c-8.95372,-1.3213 -17.05058,5.13418 -23.3226,10.29583c-2.36566,1.94686 -4.85647,3.76218 -7.02775,5.9237c-1.41846,1.41208 -2.56486,3.06945 -3.78593,4.65953c-0.93649,-0.25 -1.79303,-0.48078 -2.06993,-0.62344c-1.78129,-0.91779 -3.3541,-2.21379 -5.15479,-3.09287c-2.07122,-1.01115 -4.4326,-1.30609 -6.54837,-2.22034c-1.53142,-0.66173 -2.86804,-1.82553 -4.49227,-2.2063c-3.41829,-0.80135 -7.13906,-2.45775 -10.45269,-1.29725c-3.76059,1.31703 -6.69292,4.69218 -8.83476,8.05212c-2.33915,3.66946 -0.01891,8.68138 -0.65164,12.60348c-0.17308,1.07285 -0.90963,2.01294 -1.03096,3.09287c-0.25388,2.25972 0.10724,4.55532 -0.08296,6.82129c-0.19217,2.28977 -1.14901,4.51515 -1.06122,6.81128c0.06062,1.58528 0.68812,3.08443 1.19846,4.60137c-0.5817,2.48915 -2.14062,4.81781 -2.08729,7.37071z" fill="url(#color-6)" stroke="#000000" stroke-width="4"/><path d="M102.3392,234.02476c-0.1283,-0.09865 0.18506,-0.61664 0.16753,-0.45574c-0.01976,0.18143 -0.02946,0.36272 -0.03073,0.54387c-0.04844,-0.02625 -0.09426,-0.05541 -0.13681,-0.08814z" fill="url(#color-7)" stroke="#000000" stroke-width="4"/><path d="M111.39752,146.82401c-0.14101,-0.00288 -0.28222,-0.00713 -0.42361,-0.01249c0.14256,-0.03719 0.2835,-0.02981 0.42361,0.01249z" fill="url(#color-8)" stroke="#000000" stroke-width="4"/><text transform="translate(7.92804,256.48508) scale(1.24831,1.24831)" font-size="40" xml:space="preserve" fill="#cbcbcb" fill-rule="nonzero" stroke="#000000" stroke-width="0.25" stroke-linecap="butt" stroke-linejoin="miter" stroke-miterlimit="10" stroke-dasharray="" stroke-dashoffset="0" font-family="Curly" font-weight="normal" text-anchor="start" style="mix-blend-mode: normal"><tspan x="0" dy="0">GAME </tspan><tspan x="0" dy="48px">OVER</tspan></text><text transform="translate(502.34846,283.06165) scale(0.5,0.5)" font-size="40" xml:space="preserve" fill="#cbcbcb" fill-rule="nonzero" stroke="none" stroke-width="1" stroke-linecap="butt" stroke-linejoin="miter" stroke-miterlimit="10" stroke-dasharray="" stroke-dashoffset="0" font-family="Curly" font-weight="normal" text-anchor="start" style="mix-blend-mode: normal"><tspan x="0" dy="0"> </tspan></text><text transform="translate(13.75735,50.31604) scale(0.64583,0.64583)" font-size="40" xml:space="preserve" fill="#cbcbcb" fill-rule="nonzero" stroke="#000000" stroke-width="0.25" stroke-linecap="butt" stroke-linejoin="miter" stroke-miterlimit="10" stroke-dasharray="" stroke-dashoffset="0" font-family="Curly" font-weight="normal" text-anchor="start" style="mix-blend-mode: normal"><tspan x="0" dy="0">CLICK THE GREEN FLAG TO RESET</tspan></text></g></g></svg>