<svg version="1.1" xmlns="http://www.w3.org/2000/svg" xmlns:xlink="http://www.w3.org/1999/xlink" width="486.98498" height="365.36336" viewBox="0,0,486.98498,365.36336"><g transform="translate(3.49249,2.68168)"><g data-paper-data="{&quot;isPaintingLayer&quot;:true}" fill-rule="nonzero" stroke-linecap="butt" stroke-linejoin="miter" stroke-miterlimit="10" stroke-dasharray="" stroke-dashoffset="0" style="mix-blend-mode: normal"><path d="M-2.49249,361.68168v-363.36336h484.98498v363.36336z" fill="#000000" stroke="#000000" stroke-width="2"/><text transform="translate(134.48059,67.97157) scale(0.79282,0.79282)" font-size="40" xml:space="preserve" fill="#00ff36" fill-rule="nonzero" stroke="none" stroke-width="1" stroke-linecap="butt" stroke-linejoin="miter" stroke-miterlimit="10" stroke-dasharray="" stroke-dashoffset="0" font-family="Pixel" font-weight="normal" text-anchor="start" style="mix-blend-mode: normal"><tspan x="0" dy="0">BOBOVISION</tspan></text><path d="M335.49743,199.19682c0.00377,-0.56536 0.4108,-1.37856 0.26696,-1.91079c-0.05896,-0.21818 -0.27995,-0.39762 -0.26696,-0.62325c0.04984,-0.86592 0.88861,-0.96364 0.76401,-1.83861c-0.08917,-0.62621 -0.17704,-1.30003 -0.46141,-1.87135c-0.18485,-0.37137 -0.41029,-0.75495 -0.4255,-1.16951c-0.42147,-1.62867 -1.08767,-3.63753 -0.47913,-5.30585c0.72055,-1.9754 2.78354,-3.44155 2.75769,-5.61067c-0.27026,-1.60307 -0.68002,-3.02267 -1.23727,-4.55395c-0.13113,-0.36033 -0.44391,-0.62888 -0.6158,-0.97164c-0.07285,-0.14526 -0.02928,-0.33394 -0.11011,-0.47492c-0.21101,-0.36803 -0.56248,-0.71251 -0.57259,-1.13662c-0.02514,-1.05486 0.99583,-1.86838 1.43711,-2.74048c-0.31298,0.04962 -0.62984,0.0871 -0.97818,0.08413c-0.89156,0.22289 -1.76894,0.15176 -2.67273,0.25474c-1.60018,0.18232 -3.41883,0.3047 -5.04288,0.14001l0.01291,0.08592c-0.55619,0.54455 -1.20646,0.88381 -1.83586,1.3198c-0.44423,0.30772 -0.53523,0.69911 -0.70792,1.15842c-0.3599,0.95724 -0.85801,1.53673 0.00974,2.37995c0,0 0.20384,0.20384 0.15032,0.45779c0.25675,0.4271 0.51226,0.85565 0.78938,1.25137c0.12449,0.17778 0.35091,0.28335 0.43719,0.4825c0.0775,0.17888 -0.0232,0.39542 0.02502,0.58431c0.04601,0.18024 0.20958,0.317 0.25131,0.49828c0.05419,0.23537 -0.02417,0.48861 0.03008,0.72396c0.28297,1.22766 0.64425,2.07314 0.0483,3.32153c-0.09625,0.1685 -0.84253,1.51832 -1.02803,1.68148c-0.24951,0.21945 -1.04056,0.34134 -1.26439,0.61955c-0.05659,0.07033 0.07447,0.16988 0.07526,0.26015c0.00301,0.34309 -0.04256,0.68489 -0.06396,1.02732c-0.06904,1.10467 -0.20707,2.50104 0.15427,3.57765c0.06202,0.18477 0.27176,0.2872 0.35912,0.46143c0.45046,0.89843 0.96528,1.93288 1.19008,2.93223c0.27561,1.22523 -0.74873,1.85766 -1.38283,2.70313c-0.53712,0.44098 -0.18798,0.82752 -0.03425,1.39263c0.02499,0.09184 -0.10039,0.21242 -0.03673,0.28317c0.04961,0.05514 0.12159,-0.09612 0.19491,-0.10734c0.16699,-0.02554 0.33787,-0.00059 0.50681,0c0.53163,0.00188 0.99329,0.12881 1.52043,0.1267c1.90075,-0.00758 3.92676,0.30482 5.76353,0.76401c0.79467,-0.00679 1.58638,-0.0184 2.37568,-0.04665zM337.47116,171.42227c-0.35589,0.70588 -1.29224,1.48487 -1.34022,2.30739c-0.02203,0.37761 0.25143,0.3044 0.44103,0.63721c0.09197,0.16145 0.0604,0.3724 0.1433,0.5387c0.18444,0.37002 0.50292,0.66967 0.65122,1.0556c0.61506,1.6006 1.01811,3.13348 1.29678,4.82202c-0.02039,2.4684 -1.96594,3.85881 -2.8172,6.04594c-0.56727,1.45748 0.18921,3.41005 0.53449,4.83033c-0.01666,0.30645 0.19695,0.58348 0.33471,0.85773c0.32977,0.65649 0.47169,1.46034 0.5522,2.18313c0.04464,0.40072 0.00417,0.96403 -0.18869,1.32524c-0.13398,0.25095 -0.60624,0.35535 -0.56773,0.63721c0.02068,0.15132 0.20532,0.2416 0.23985,0.39037c0.16709,0.71997 -0.24598,1.4253 -0.23985,2.14368l-0.04557,0.16123c0.63336,-0.03668 1.26532,-0.08756 1.89616,-0.15877c0.67882,-0.07662 1.3478,-0.30563 2.02723,-0.38011c1.59097,-0.17439 3.21572,0.13007 4.78786,0.1267c0.82131,0.16124 1.52266,0.25094 2.3574,0.25094c0.12724,0 0.83452,0.12597 0.92549,-0.06724c0.06836,-0.14517 -0.60842,-0.6726 -0.65035,-0.71471c-0.5439,-0.54629 -1.14467,-1.17801 -1.16206,-2.0055c-0.01098,-0.52265 0.31919,-1.06575 0.3839,-1.58235c0.08791,-0.70184 0.07296,-1.61391 -0.09902,-2.29629c-0.6641,-1.30878 -1.36875,-3.03613 -1.168,-4.54564c0.1526,-1.14749 1.0227,-2.0932 1.42141,-3.15477c0.23327,-0.62111 0.37304,-1.38813 0.47913,-2.04003c0.07172,-0.44067 -0.27054,-0.95433 -0.37837,-1.38379c-0.12179,-2.34753 -1.27256,-4.44398 -1.27256,-6.78993c0,-0.48387 -0.10595,-1.17202 0.01356,-1.63687c0.19055,-0.74115 0.84378,-1.45017 1.40453,-2.01732c-0.78465,-0.1169 -1.51736,-0.06066 -2.33804,-0.14116c-2.05841,-0.20189 -3.92702,-0.184 -5.99584,0.00119c-0.49132,0.04398 -1.00591,-0.06372 -1.49443,-0.00252c-0.06995,0.00876 -0.13876,0.01833 -0.2067,0.02846c0.24228,0.23807 0.07436,0.5739 0.07436,0.5739zM323.85438,174.75354c0.07682,-0.31045 0.40713,-0.75859 0.52473,-1.07301c0.24364,-0.65142 0.46644,-1.19021 1.06591,-1.62903c0.44,-0.32209 0.9284,-0.56732 1.35745,-0.90004c0.06868,-0.27472 0.10717,-0.59688 0.16645,-0.79913c0.00771,-0.0263 0.01543,-0.05247 0.02314,-0.07853c0.27832,0.07125 0.55822,0.14102 0.85536,0.17361c1.59155,0.17453 3.37682,0.04336 4.95623,-0.12803c0.8983,-0.09749 1.76302,-0.03064 2.64876,-0.25208c0.73953,-0.00494 1.30762,-0.1636 2.02723,-0.2534c0.50867,-0.06348 1.03656,0.04457 1.54642,-0.00252c2.11762,-0.19562 4.06036,-0.21391 6.16757,0.00119c1.03725,0.10588 1.95326,0.00789 2.98713,0.26607l0.00378,-0.01513c0,0 0.50681,0 0.50681,0.50681c0,0.18136 -0.0649,0.29782 -0.14824,0.3726c0.07442,0.26616 -0.1438,0.48438 -0.1438,0.48438c-0.4408,0.43916 -1.23355,1.14625 -1.38555,1.78531c-0.31422,1.32112 0.20271,2.72308 0.50681,3.94829c0.3174,1.27877 0.70236,2.77985 0.76823,4.0962c0.08362,0.33666 0.29606,0.63343 0.37209,0.97189c0.18269,0.81332 -0.23588,2.18179 -0.52473,2.95302c-0.35738,0.95421 -1.24953,1.90183 -1.36604,2.92694c-0.15559,1.36894 0.52528,2.88098 1.11264,4.07012c0.21071,0.84719 0.26378,1.89522 0.15439,2.7718c-0.0596,0.47754 -0.35673,0.98236 -0.37631,1.4585c-0.05383,1.30922 2.36106,1.62667 1.73525,3.1081c-0.32668,0.77332 -0.72034,0.67269 -1.35515,0.69297c-1.02906,0.03288 -1.95739,-0.0502 -2.96409,-0.25587c-1.50498,-0.0031 -3.06578,-0.29853 -4.58811,-0.1267c-0.67882,0.07662 -1.3478,0.30563 -2.02723,0.38011c-1.8404,0.20173 -3.69411,0.26453 -5.56006,0.25208c-2.21,-0.5525 -4.4723,-0.59726 -6.71522,-0.88691c-0.46763,-0.06039 -1.38195,0.18995 -1.7704,-0.10354c-0.20903,-0.15793 -0.18603,-0.49003 -0.29014,-0.73044c-0.39584,-0.91416 -0.47346,-1.63731 0.21916,-2.40843c0.29982,-0.39976 0.8301,-0.7737 1.08217,-1.18466c0.28688,-0.46773 -0.14947,-1.19511 -0.27106,-1.55911c-0.19848,-0.5942 -0.46723,-1.18913 -0.75045,-1.75704c-0.10153,-0.20359 -0.32914,-0.33638 -0.4011,-0.55219c-0.20492,-0.61457 -0.24273,-1.27576 -0.28858,-1.92197c-0.0722,-1.01747 0.04519,-2.08019 0.12499,-3.09454c0.02,-0.25426 -0.05843,-0.54448 0.07575,-0.76137c0.1324,-0.214 0.44082,-0.24619 0.64153,-0.398c0.15733,-0.11899 0.2554,-0.31224 0.42674,-0.40999c0.1344,-0.07667 0.33531,0.00541 0.4548,-0.09289c0.39507,-0.32502 0.48408,-0.90154 0.73797,-1.34568c0.5208,-0.96567 0.07016,-1.69683 -0.14887,-2.6448c-0.05045,-0.21837 0.03203,-0.45373 -0.01833,-0.67213c-0.04308,-0.18683 -0.21005,-0.32907 -0.2555,-0.51534c-0.03398,-0.13926 0.08069,-0.29721 0.02502,-0.4293c-0.05515,-0.13085 -0.23927,-0.16305 -0.32302,-0.27772c-0.42222,-0.5781 -0.78578,-1.2523 -1.17492,-1.87668c0.01749,-0.01296 0.03459,-0.02576 0.05127,-0.03836c-0.45235,-0.5818 -0.6742,-1.2561 -0.47888,-2.0454z" fill="#00ff36" stroke="none" stroke-width="0.5"/><path d="M343.71137,221.02155c0,4.67665 -3.44044,8.46781 -7.68445,8.46781c-4.244,0 -7.68445,-3.79117 -7.68445,-8.46781c0,-4.67665 3.44044,-8.46781 7.68445,-8.46781c4.244,0 7.68445,3.79117 7.68445,8.46781z" fill="none" stroke="#00e731" stroke-width="1"/><path d="M352.48324,220.54224c0,9.91213 -7.58234,17.94751 -16.93563,17.94751c-9.35329,0 -16.93563,-8.03537 -16.93563,-17.94751c0,-9.91213 7.58234,-17.94751 16.93563,-17.94751c9.35329,0 16.93563,8.03537 16.93563,17.94751zM333.91174,230.12208c0.53904,0.53009 1.24046,0.8505 2.00736,0.8505c1.0158,0 1.91672,-0.56214 2.47756,-1.42908c1.77223,1.04592 3.71636,1.47316 5.6076,0.19968c2.31951,-1.56187 2.70211,-4.61843 1.9182,-7.27359c-0.06184,-0.20947 -0.10843,-0.43476 -0.15003,-0.66587c-0.00527,-0.78477 -0.03035,-1.65614 -0.132,-2.05637c-0.14842,-0.58437 -0.53905,-1.04967 -0.79683,-1.58208c-0.15449,-0.3191 -0.29364,-0.6317 -0.42719,-0.93106c0.67898,-2.13897 -0.48274,-4.00938 -1.70118,-5.28989c-0.5061,-0.53188 -0.92842,-1.51247 -1.61481,-1.46667c-0.24331,0.01624 -0.48317,0.05284 -0.72029,0.10552c-0.14639,-0.08416 -0.29946,-0.15536 -0.45806,-0.21229v-0.16111h-0.92376c-0.7082,0 -1.36056,0.27324 -1.88078,0.73251c-0.49858,0.00176 -0.99149,0.05155 -1.36712,0.18878c-0.07967,-0.0351 -0.16334,-0.0693 -0.25052,-0.10262c-1.18295,-1.99868 -2.94751,-3.28486 -5.51052,-1.70075c-1.09146,0.6746 -1.49904,2.29216 -1.99384,3.59266c-0.05094,0.13388 -0.08165,0.27333 -0.09902,0.4164c-0.58329,0.37554 -1.25701,0.88435 -1.77542,1.45953c-1.58251,0.14677 -2.82674,1.66105 -2.82674,3.50746v0c0,0.70382 0,2.46338 0,3.16721c0,0 0,2.15541 1.47599,3.09252c-0.21597,1.99678 0.86818,4.02405 1.99322,5.47298c0.41661,0.53655 0.80068,1.18554 1.37829,1.46628c1.01886,0.49523 2.15779,0.99041 3.25005,0.78335c0.93829,-0.17787 1.79177,-1.15812 2.51983,-2.16401z" fill="none" stroke="#00ff36" stroke-width="1"/><path d="M317.2408,164.38685l19.72943,-36.7737l17.75199,36.65815z" fill="none" stroke="#00ff36" stroke-width="1"/><path d="M335.28813,157.10201c0,3.32943 -2.64996,6.02846 -5.91885,6.02846c-3.26889,0 -5.91885,-2.69903 -5.91885,-6.02846c0,-3.32943 2.64996,-6.02846 5.91885,-6.02846c3.26889,0 5.91885,2.69903 5.91885,6.02846z" fill="none" stroke="#00ff36" stroke-width="1"/><path d="M342.90967,143.15622c0,3.32943 -2.64996,6.02846 -5.91885,6.02846c-3.26889,0 -5.91885,-2.69903 -5.91885,-6.02846c0,-3.32943 2.64996,-6.02846 5.91885,-6.02846c3.26889,0 5.91885,2.69903 5.91885,6.02846z" fill="none" stroke="#00ff36" stroke-width="1"/><path d="M348.58528,157.42633c0,3.32943 -2.64996,6.02846 -5.91885,6.02846c-3.26889,0 -5.91885,-2.69903 -5.91885,-6.02846c0,-3.32943 2.64996,-6.02846 5.91885,-6.02846c3.26889,0 5.91885,2.69903 5.91885,6.02846z" fill="none" stroke="#00ff36" stroke-width="1"/></g></g></svg>