<svg version="1.1" xmlns="http://www.w3.org/2000/svg" xmlns:xlink="http://www.w3.org/1999/xlink" width="170.99113" height="219.29555" viewBox="0,0,170.99113,219.29555"><defs><radialGradient cx="178.69446" cy="287.95181" r="39.88953" gradientUnits="userSpaceOnUse" id="color-1"><stop offset="0" stop-color="#8b3c00"/><stop offset="1" stop-color="#512300"/></radialGradient><radialGradient cx="161.72631" cy="287.17072" r="39.88954" gradientUnits="userSpaceOnUse" id="color-2"><stop offset="0" stop-color="#8b3c00"/><stop offset="1" stop-color="#512300"/></radialGradient><radialGradient cx="303.57634" cy="287.19127" r="39.88954" gradientUnits="userSpaceOnUse" id="color-3"><stop offset="0" stop-color="#8b3c00"/><stop offset="1" stop-color="#512300"/></radialGradient><radialGradient cx="286.60819" cy="286.41018" r="39.88953" gradientUnits="userSpaceOnUse" id="color-4"><stop offset="0" stop-color="#8b3c00"/><stop offset="1" stop-color="#512300"/></radialGradient><radialGradient cx="199.91589" cy="242.52389" r="81.83184" gradientUnits="userSpaceOnUse" id="color-5"><stop offset="0" stop-color="#8b3c00"/><stop offset="1" stop-color="#512300"/></radialGradient><radialGradient cx="167.85474" cy="239.87968" r="15.04327" gradientUnits="userSpaceOnUse" id="color-6"><stop offset="0" stop-color="#8b3c00"/><stop offset="1" stop-color="#512300"/></radialGradient><radialGradient cx="185.37268" cy="175.75737" r="59" gradientUnits="userSpaceOnUse" id="color-7"><stop offset="0" stop-color="#4a4a4a"/><stop offset="1" stop-color="#2f2f2f"/></radialGradient><radialGradient cx="174.79581" cy="176.08789" r="58.62069" gradientUnits="userSpaceOnUse" id="color-8"><stop offset="0" stop-color="#4a4a4a"/><stop offset="1" stop-color="#2f2f2f"/></radialGradient><radialGradient cx="320.9299" cy="294.13886" r="39.88954" gradientUnits="userSpaceOnUse" id="color-9"><stop offset="0" stop-color="#8b3c00"/><stop offset="1" stop-color="#512300"/></radialGradient><radialGradient cx="303.96175" cy="293.35777" r="39.88954" gradientUnits="userSpaceOnUse" id="color-10"><stop offset="0" stop-color="#8b3c00"/><stop offset="1" stop-color="#512300"/></radialGradient><radialGradient cx="215.27979" cy="164.59246" r="48" gradientUnits="userSpaceOnUse" id="color-11"><stop offset="0" stop-color="#424242"/><stop offset="1" stop-color="#000000"/></radialGradient><radialGradient cx="232.6381" cy="247.4818" r="74.53392" gradientUnits="userSpaceOnUse" id="color-12"><stop offset="0" stop-color="#8b3c00"/><stop offset="1" stop-color="#512300"/></radialGradient><radialGradient cx="190.28749" cy="297.6178" r="39.88953" gradientUnits="userSpaceOnUse" id="color-13"><stop offset="0" stop-color="#8b3c00"/><stop offset="1" stop-color="#512300"/></radialGradient><radialGradient cx="173.31934" cy="296.83671" r="39.88953" gradientUnits="userSpaceOnUse" id="color-14"><stop offset="0" stop-color="#8b3c00"/><stop offset="1" stop-color="#512300"/></radialGradient></defs><g transform="translate(-160.71787,-119.74281)"><g data-paper-data="{&quot;isPaintingLayer&quot;:true}" fill-rule="nonzero" stroke="#000000" stroke-width="2" stroke-linecap="butt" stroke-linejoin="miter" stroke-miterlimit="10" stroke-dasharray="" stroke-dashoffset="0" style="mix-blend-mode: normal"><path d="M169.83012,327.84135v-79.77907h17.72868v79.77907z" data-paper-data="{&quot;index&quot;:null}" fill="url(#color-1)"/><path d="M161.72631,319.35213l1.54163,-78.62286l7.32272,6.5519l-0.77082,79.77908z" data-paper-data="{&quot;index&quot;:null}" fill="url(#color-2)"/><path d="M294.71199,327.08081v-79.77908h17.72869v79.77908z" data-paper-data="{&quot;index&quot;:null}" fill="url(#color-3)"/><path d="M286.60818,318.5916l-0.38541,-78.62286l9.24975,6.55191l-0.77081,79.77907z" data-paper-data="{&quot;index&quot;:null}" fill="url(#color-4)"/><path d="M181.058,245.3193l-18.01802,-21.02102l114.11412,-1.50151l49.54955,19.51952z" fill="url(#color-5)"/><path d="M180.59618,255.96534l-16.97717,-15.90055l-0.91798,-14.18599l18.04629,17.98709z" fill="url(#color-6)"/><path d="M181.22379,239.00001v-118h117.55245v118z" fill="url(#color-7)"/><path d="M169.20646,224.63908v-96l11.68103,-7.12069l0.56034,117.24138z" fill="url(#color-8)"/><path d="M312.06555,334.0284v-79.77907h17.72869v79.77907z" data-paper-data="{&quot;index&quot;:null}" fill="url(#color-9)"/><path d="M303.96174,325.53919l-0.3854,-78.62285l9.24975,6.55191l-0.77081,79.77907z" data-paper-data="{&quot;index&quot;:null}" fill="url(#color-10)"/><path d="M190.02527,228.00001v-96h94v96z" fill="url(#color-11)"/><path d="M181.07583,256.40604l-0.66106,-11.56846l149.06784,-1.98316l-0.66105,10.57688z" fill="url(#color-12)"/><path d="M181.42315,337.50734v-79.77907h17.72868v79.77907z" fill="url(#color-13)"/><path d="M173.31934,329.01813l-0.3854,-78.62285l9.24975,6.55191l-0.77081,79.77907z" fill="url(#color-14)"/></g></g></svg>