<svg version="1.1" xmlns="http://www.w3.org/2000/svg" xmlns:xlink="http://www.w3.org/1999/xlink" width="119.99997" height="56.18106" viewBox="0,0,119.99997,56.18106"><defs><radialGradient cx="259.30844" cy="205.88205" r="57.0707" gradientUnits="userSpaceOnUse" id="color-1"><stop offset="0" stop-color="#c4ff00"/><stop offset="1" stop-color="#759900"/></radialGradient><radialGradient cx="214.97386" cy="203.40251" r="56.64045" gradientUnits="userSpaceOnUse" id="color-2"><stop offset="0" stop-color="#ff0000"/><stop offset="1" stop-color="#990000"/></radialGradient></defs><g transform="translate(-181.70646,-175.50713)"><g data-paper-data="{&quot;isPaintingLayer&quot;:true}" fill-rule="nonzero" stroke="none" stroke-width="0.5" stroke-linecap="butt" stroke-linejoin="miter" stroke-miterlimit="10" stroke-dasharray="" stroke-dashoffset="0" style="mix-blend-mode: normal"><path d="M235.62975,227.05355c0.01501,-0.85108 1.63347,-2.07525 1.06151,-2.87645c-0.23446,-0.32844 -1.11316,-0.59856 -1.06151,-0.93823c0.19819,-1.30353 3.53334,-1.45064 3.0379,-2.76779c-0.35457,-0.94268 -0.70395,-1.95702 -1.83471,-2.81707c-0.73503,-0.55906 -1.63141,-1.13648 -1.69191,-1.76054c-1.67587,-2.45175 -4.32485,-5.47583 -1.90513,-7.98728c2.86509,-2.97371 11.0681,-5.18082 10.96533,-8.44614c-1.07461,-2.41323 -2.70393,-4.55025 -4.91971,-6.8554c-0.52141,-0.54243 -1.76509,-0.9467 -2.44859,-1.46269c-0.28967,-0.21867 -0.11644,-0.5027 -0.43783,-0.71493c-0.83903,-0.55402 -2.23659,-1.07259 -2.27678,-1.71104c-0.09997,-1.58795 3.95967,-2.8126 5.71433,-4.12544c-1.2445,0.0747 -2.50443,0.13112 -3.88949,0.12664c-3.54508,0.33554 -7.03377,0.22846 -10.62749,0.38348c-6.36273,0.27447 -13.59418,0.45868 -20.05184,0.21076l0.05133,0.12935c-2.21155,0.81974 -4.79722,1.33046 -7.29988,1.9868c-1.76636,0.46323 -2.12823,1.05241 -2.8149,1.74385c-1.43107,1.44101 -3.41168,2.31335 0.03874,3.58272c0,0 0.81052,0.30685 0.59771,0.68914c1.02091,0.64295 2.03688,1.28806 3.13877,1.88378c0.49502,0.26762 1.39531,0.42654 1.73839,0.72634c0.30817,0.26929 -0.09223,0.59525 0.09949,0.87961c0.18294,0.27133 0.83334,0.4772 0.99929,0.75009c0.21546,0.35433 -0.09612,0.73553 0.11959,1.08984c1.12518,1.84808 2.56173,3.12085 0.19206,5.00014c-0.38271,0.25366 -3.35013,2.28564 -4.08773,2.53125c-0.9921,0.33036 -4.13755,0.51384 -5.02755,0.93265c-0.225,0.10589 0.2961,0.25573 0.29925,0.39161c0.01197,0.51648 -0.16924,1.03101 -0.25434,1.54651c-0.27453,1.66293 -0.82338,3.76499 0.61341,5.38569c0.24659,0.27815 1.08058,0.43234 1.42794,0.69462c1.79116,1.35247 3.83821,2.90971 4.73206,4.41411c1.09588,1.84444 -2.97714,2.79647 -5.49849,4.06921c-2.13572,0.66384 -0.74746,1.24574 -0.13617,2.09644c0.09935,0.13826 -0.39917,0.31977 -0.14605,0.42628c0.19725,0.08301 0.48349,-0.1447 0.77503,-0.16159c0.66401,-0.03845 1.34348,-0.00089 2.01521,0c2.11391,0.00283 3.94959,0.19391 6.04563,0.19074c7.5579,-0.01142 15.61385,0.45887 22.91733,1.15012c3.15981,-0.01022 6.30787,-0.02771 9.44634,-0.07023zM243.47783,185.24248c-1.41513,1.06261 -5.1383,2.23529 -5.32907,3.47349c-0.08758,0.56843 0.99977,0.45823 1.75364,0.95924c0.3657,0.24305 0.24018,0.5606 0.56978,0.81094c0.73337,0.55701 1.99976,1.0081 2.58943,1.58907c2.44563,2.40949 4.04828,4.71706 5.15634,7.25894c-0.08109,3.71586 -7.81712,5.80894 -11.20196,9.1014c-2.25561,2.19405 0.75236,5.13339 2.12529,7.27145c-0.06626,0.46133 0.78313,0.87835 1.3309,1.2912c1.31124,0.98826 1.87557,2.19836 2.19571,3.28642c0.17749,0.60325 0.01657,1.45122 -0.75028,1.99498c-0.53275,0.37777 -2.41059,0.53494 -2.25743,0.95924c0.08222,0.22779 0.81641,0.36369 0.9537,0.58765c0.66439,1.08382 -0.97807,2.14561 -0.9537,3.22703l-0.18118,0.24272c2.5184,-0.05522 5.03124,-0.13181 7.53963,-0.239c2.69919,-0.11535 5.35921,-0.46009 8.06083,-0.57221c6.32613,-0.26252 12.78655,0.1958 19.03783,0.19074c3.26576,0.24273 6.05452,0.37776 9.37366,0.37776c0.50596,0 3.31826,0.18963 3.68001,-0.10123c0.27181,-0.21854 -2.41925,-1.01251 -2.58596,-1.07589c-2.1627,-0.82238 -4.55151,-1.77334 -4.62066,-3.01902c-0.04367,-0.78678 1.2692,-1.60435 1.5265,-2.38202c0.34957,-1.05653 0.29009,-2.42954 -0.39372,-3.45676c-2.64065,-1.9702 -5.44252,-4.57051 -4.6443,-6.84288c0.60679,-1.72739 4.06655,-3.15104 5.6519,-4.7491c0.92756,-0.935 1.48329,-2.08965 1.90513,-3.071c0.28516,-0.66337 -1.07572,-1.43662 -1.5045,-2.08313c-0.48425,-3.53391 -5.06004,-6.68985 -5.06004,-10.22139c0,-0.7284 -0.4213,-1.76432 0.05391,-2.46411c0.75766,-1.11571 3.35511,-2.18304 5.5848,-3.03682c-3.11996,-0.17597 -6.03345,-0.09132 -9.29668,-0.2125c-8.18478,-0.30392 -15.61488,-0.27699 -23.84108,0.0018c-1.95364,0.06621 -3.99976,-0.09591 -5.94225,-0.0038c-0.27813,0.0132 -0.55176,0.0276 -0.82188,0.04284c0.96336,0.35838 0.29569,0.86393 0.29569,0.86393zM189.33386,190.25728c0.30546,-0.46735 1.61887,-1.14197 2.08648,-1.61528c0.96876,-0.98063 1.85471,-1.7917 4.23834,-2.4523c1.74954,-0.48487 3.69155,-0.85402 5.39758,-1.35491c0.27311,-0.41356 0.42614,-0.89852 0.66184,-1.20299c0.03064,-0.03959 0.06134,-0.07899 0.09202,-0.11822c1.10668,0.10726 2.21963,0.21228 3.40114,0.26134c6.32845,0.26274 13.42716,0.06528 19.70729,-0.19274c3.5719,-0.14676 7.01023,-0.04612 10.53219,-0.37947c2.94057,-0.00744 5.19945,-0.24628 8.06083,-0.38147c2.0226,-0.09557 4.12166,0.0671 6.149,-0.0038c8.42021,-0.29448 16.14509,-0.32201 24.52393,0.0018c4.1244,0.15939 7.76668,0.01189 11.87764,0.40053l0.01504,-0.02277c0,0 2.01521,0 2.01521,0.76293c0,0.27301 -0.25805,0.44832 -0.58946,0.5609c0.29591,0.40066 -0.5718,0.72917 -0.5718,0.72917c-1.75275,0.66109 -4.90491,1.72553 -5.5093,2.68755c-1.24944,1.98878 0.80601,4.09925 2.01521,5.94366c1.26206,1.92504 2.79277,4.18472 3.0547,6.16631c0.33248,0.50681 1.17722,0.95354 1.47952,1.46305c0.72642,1.22435 -0.93793,3.2844 -2.08648,4.44541c-1.42103,1.43645 -4.96845,2.86295 -5.43174,4.40614c-0.61868,2.06076 2.08867,4.33695 4.42414,6.12704c0.83785,1.27532 1.04886,2.85301 0.61388,4.1726c-0.23697,0.71887 -1.41847,1.47881 -1.49631,2.19559c-0.21405,1.97087 9.38821,2.44874 6.89983,4.67884c-1.29896,1.16413 -2.86427,1.01264 -5.38843,1.04317c-4.0918,0.04948 -7.78312,-0.07556 -11.78603,-0.38518c-5.98422,-0.00466 -12.19037,-0.4494 -18.24354,-0.19074c-2.69919,0.11535 -5.35921,0.46009 -8.06083,0.57221c-7.31791,0.30368 -14.68878,0.39822 -22.10829,0.37947c-8.78756,-0.83171 -17.78305,-0.8991 -26.70151,-1.33514c-1.85941,-0.09091 -5.49499,0.28596 -7.03959,-0.15587c-0.83116,-0.23774 -0.73971,-0.73767 -1.15366,-1.09959c-1.57398,-1.37616 -1.88259,-2.46478 0.87144,-3.62559c1.19217,-0.6018 3.3007,-1.16471 4.30298,-1.78336c1.14072,-0.70411 -0.59435,-1.79909 -1.07782,-2.34705c-0.78919,-0.89449 -1.85785,-1.79008 -2.984,-2.64499c-0.40371,-0.30647 -1.30875,-0.50637 -1.59488,-0.83125c-0.81481,-0.92516 -0.96516,-1.92048 -1.14748,-2.89328c-0.28707,-1.53168 0.17969,-3.13147 0.49698,-4.65843c0.07953,-0.38276 -0.23234,-0.81964 0.30121,-1.14615c0.52646,-0.32215 1.75281,-0.37061 2.55088,-0.59914c0.62557,-0.17913 1.01554,-0.47005 1.69683,-0.61719c0.5344,-0.1154 1.33327,0.00815 1.80839,-0.13983c1.57089,-0.48927 1.92485,-1.35716 2.93438,-2.02575c2.07086,-1.45369 0.27897,-2.55436 -0.59195,-3.98141c-0.20062,-0.32873 0.12737,-0.68304 -0.07287,-1.01181c-0.1713,-0.28125 -0.83521,-0.49537 -1.01592,-0.77579c-0.1351,-0.20964 0.32086,-0.44742 0.09949,-0.64626c-0.2193,-0.19698 -0.95141,-0.24545 -1.28442,-0.41808c-1.67885,-0.87025 -3.12447,-1.88518 -4.67181,-2.8251c0.06954,-0.01951 0.13754,-0.03878 0.20388,-0.05774c-1.79865,-0.87581 -2.68079,-1.89091 -1.90417,-3.07909z" fill="#000000"/><path d="M243.16641,184.36043c0.27012,-0.01524 0.54442,-0.02974 0.82254,-0.04293c1.9425,-0.09212 3.99341,0.06954 5.94705,0.00331c8.2262,-0.27878 15.67712,-0.30569 23.86189,-0.00177c3.26323,0.12117 6.18417,0.03735 9.30413,0.21333c-2.22969,0.85377 -4.86094,1.95702 -5.6186,3.07274c-0.47521,0.69978 -0.02018,1.69976 -0.02018,2.42816c0,3.53152 4.59933,6.69446 5.08357,10.22838c0.42878,0.6465 1.795,1.42355 1.50985,2.08692c-0.42185,0.98135 -0.97405,2.14234 -1.90161,3.07734c-1.58536,1.59806 -5.05612,3.03431 -5.6629,4.76171c-0.79822,2.27238 1.99173,4.87676 4.63239,6.84696c0.68381,1.02723 0.73865,2.40124 0.38909,3.45777c-0.2573,0.77768 -1.57413,1.59592 -1.53046,2.38271c0.06914,1.24567 2.41921,2.16144 4.58193,2.98381c0.16673,0.06339 2.89849,0.89226 2.62668,1.11079c-0.36176,0.29085 -3.17672,0.10165 -3.68268,0.10165c-3.31914,0 -6.11505,-0.13422 -9.38081,-0.37693c-6.25128,0.00506 -12.72874,-0.45292 -19.05489,-0.1904c-2.70163,0.11211 -5.36831,0.45638 -8.0675,0.57173c-2.5084,0.10718 -5.02683,0.18309 -7.54523,0.23831l0.18113,-0.24272c-0.02439,-1.08143 1.61611,-2.14352 0.95172,-3.22735c-0.13729,-0.22395 -0.87282,-0.36009 -0.95504,-0.58789c-0.15316,-0.4243 1.76708,-0.61606 2.29983,-0.99385c0.76685,-0.54377 0.8847,-1.35726 0.70721,-1.96051c-0.32012,-1.08805 -0.89137,-2.29971 -2.20261,-3.28797c-0.54778,-0.41286 -1.40067,-0.83091 -1.33441,-1.29223c-1.37292,-2.13805 -4.39655,-5.08656 -2.14092,-7.28061c3.38484,-3.29245 11.13775,-5.40576 11.21883,-9.12163c-1.10805,-2.54188 -2.70237,-4.85148 -5.148,-7.26098c-0.58967,-0.58096 -1.85643,-1.03198 -2.5898,-1.58899c-0.3296,-0.25034 -0.1575,-0.53407 -0.5232,-0.77712c-0.75386,-0.50101 -1.88768,-0.42466 -1.80009,-0.99309c0.19078,-1.2382 3.92126,-2.41207 5.3364,-3.47468c0,0 0.66803,-0.50559 -0.29534,-0.86398z" data-paper-data="{&quot;noHover&quot;:false,&quot;origItem&quot;:[&quot;Path&quot;,{&quot;applyMatrix&quot;:true,&quot;segments&quot;:[[[241.82537,127.18162],[0,0],[-1.40445,2.78557]],[[236.53652,136.28719],[0.18934,-3.24588],[-0.08692,1.49013]],[[238.27692,138.80179],[-0.74817,-1.31338],[0.36294,0.63713]],[[238.84239,140.92765],[-0.32711,-0.65625],[0.72784,1.46018]],[[241.41229,145.0933],[-0.58522,-1.52296],[2.42717,6.31637]],[[246.5297,164.12223],[-1.09969,-6.66341],[-0.08048,9.74094]],[[235.41229,187.98108],[3.3593,-8.631],[-2.23859,5.75159]],[[237.52153,207.04282],[-1.36256,-5.6048],[-0.06576,1.20935]],[[238.84239,210.42765],[-0.54364,-1.08227],[1.30134,2.59068]],[[241.02153,219.04282],[-0.31771,-2.85228],[0.17615,1.58137]],[[240.27692,224.27259],[0.76106,-1.42547],[-0.52873,0.99032]],[[238.03652,226.78719],[-0.152,-1.11229],[0.0816,0.59713]],[[238.98302,228.32768],[-0.13625,-0.58708],[0.65937,2.84119]],[[238.03652,236.78719],[-0.0242,-2.8349],[0,0]],[[237.85671,237.42345],[0,0],[2.4994,-0.14476]],[[245.33944,236.79692],[-2.48947,0.28099],[2.67882,-0.30237]],[[253.33944,235.29692],[-2.68124,0.29389],[6.27839,-0.68818]],[[272.23359,235.79692],[-6.2041,0.01328],[3.24111,0.63629]],[[281.53652,236.78719],[-3.29409,0],[0.50214,0]],[[285.18876,236.52182],[-0.35903,0.76247],[0.26976,-0.57288]],[[282.6223,233.7014],[0.16547,0.16619],[-2.14638,-2.15582]],[[278.03652,225.78719],[0.06862,3.26547],[-0.04334,-2.06252]],[[279.5515,219.54282],[-0.25536,2.03864],[0.34693,-2.76966]],[[279.16075,210.48108],[0.67865,2.69283],[-2.62072,-5.1648]],[[274.5515,192.54282],[-0.7922,5.95691],[0.60221,-4.52828]],[[280.16075,180.0933],[-1.57339,4.18923],[0.92056,-2.45105]],[[282.0515,172.04282],[-0.41866,2.57257],[0.28301,-1.739]],[[280.55837,166.58201],[0.42554,1.69477],[-0.48059,-9.26396]],[[275.53652,139.78719],[0,9.25772],[0,-1.90948]],[[275.59002,133.32768],[-0.47162,1.83443],[0.75194,-2.92478]],[[281.13267,125.36684],[-2.21286,2.23811],[-3.09641,-0.46132]],[[271.90615,124.8098],[3.2386,0.31764],[-8.12301,-0.79671]],[[248.245,124.8145],[8.16412,-0.73082],[-1.9389,0.17356]],[[242.34759,124.80455],[1.92784,-0.24148],[-0.27603,0.03458]],[[241.53191,124.91686],[0.26808,-0.03997],[0.95609,0.9395]]],&quot;closed&quot;:true}]}" fill="url(#color-1)"/><path d="M235.26064,227.38879c-3.13846,0.04252 -6.29442,0.06064 -9.45423,0.07086c-7.30347,-0.69126 -15.37997,-1.16214 -22.93787,-1.15072c-2.09603,0.00317 -3.93667,-0.18856 -6.05058,-0.19139c-0.67173,-0.00089 -1.35269,-0.0387 -2.0167,-0.00025c-0.29153,0.01689 -0.57819,0.24453 -0.77545,0.16152c-0.25312,-0.10653 0.24513,-0.28807 0.14578,-0.42633c-0.61129,-0.8507 -1.95529,-1.46685 0.18044,-2.13069c2.52136,-1.27274 6.54817,-2.19089 5.45229,-4.03532c-0.89385,-1.5044 -2.95262,-3.06481 -4.74377,-4.41729c-0.34735,-0.26228 -1.18377,-0.41741 -1.43034,-0.69556c-1.4368,-1.6207 -0.89856,-3.72964 -0.62402,-5.39258c0.0851,-0.5155 0.2645,-1.03279 0.25253,-1.54927c-0.00314,-0.13588 -0.52456,-0.28653 -0.29955,-0.39239c0.89001,-0.41882 4.03509,-0.60398 5.02719,-0.93434c0.7376,-0.24562 3.70799,-2.28481 4.09071,-2.53847c2.36967,-1.87929 0.94754,-3.16 -0.17763,-5.00808c-0.2157,-0.35431 0.09843,-0.7363 -0.11705,-1.09061c-0.16595,-0.27289 -0.8158,-0.47892 -0.99874,-0.75025c-0.19171,-0.28436 0.21037,-0.61078 -0.0978,-0.88006c-0.34309,-0.2998 -1.18658,-0.4272 -1.68161,-0.69483c-1.10189,-0.59571 -2.17485,-1.2723 -3.19575,-1.91525c0.21282,-0.38229 -0.59718,-0.68927 -0.59718,-0.68927c-3.45042,-1.26936 -1.46531,-2.14271 -0.03424,-3.58371c0.68666,-0.69142 1.05251,-1.28133 2.81886,-1.74455c2.50268,-0.65633 5.09585,-1.16797 7.30741,-1.98772l-0.0513,-0.12935c6.45764,0.24792 13.70714,0.0633 20.06986,-0.21116c3.59372,-0.15502 7.09117,-0.04722 10.63624,-0.38276c1.38505,0.00448 2.64782,-0.05159 3.89234,-0.12627c-1.75465,1.31283 -5.81577,2.53729 -5.71579,4.12524c0.0402,0.63846 1.44155,1.15757 2.28057,1.71161c0.32139,0.21222 0.14939,0.49646 0.43905,0.71514c0.68349,0.51598 1.93137,0.92108 2.45277,1.46351c2.21579,2.30515 3.86137,4.44798 4.93599,6.8612c0.10277,3.26533 -8.09432,5.48918 -10.95941,8.46289c-2.41972,2.51145 0.20867,5.54549 1.88454,7.99725c0.0605,0.62406 0.95559,1.20179 1.69062,1.76085c1.13075,0.86004 1.47785,1.87489 1.83243,2.81755c0.49542,1.31716 -2.84549,1.46525 -3.04369,2.76879c-0.05164,0.33966 0.82716,0.60977 1.06162,0.9382c0.57196,0.80122 -1.04953,2.02579 -1.06453,2.87687z" data-paper-data="{&quot;noHover&quot;:false,&quot;origItem&quot;:[&quot;Path&quot;,{&quot;applyMatrix&quot;:true,&quot;segments&quot;:[[[234.03652,236.78719],[0,0],[0.0149,-2.23105]],[[235.09002,229.24669],[0.56764,2.10036],[-0.23269,-0.86099]],[[234.03652,226.78719],[-0.05125,0.89041],[0.1967,-3.41714]],[[237.0515,219.53156],[0.49168,3.45286],[-0.35189,-2.47119]],[[235.23064,212.14673],[1.12222,2.25457],[-0.72948,-1.46554]],[[233.5515,207.53156],[0.06004,1.63595],[-1.66322,-6.42716]],[[231.66075,186.5933],[-2.40146,6.58364],[2.84347,-7.79544]],[[242.54333,164.45215],[0.10199,8.55989],[-1.0665,-6.32614]],[[237.66075,146.48108],[2.19907,6.04282],[-0.51747,-1.42196]],[[235.23064,142.64673],[0.67833,1.35263],[-0.28748,-0.57324]],[[234.79612,140.77259],[0.31897,0.55633],[-0.83269,-1.45236]],[[232.53652,136.28719],[0.03989,1.67366],[-0.09922,-4.16274]],[[238.20772,125.47255],[-1.74141,3.44152],[-1.23511,0.1958]],[[234.34759,125.80455],[1.3746,0.01173],[-3.51832,0.87958]],[[223.8003,126.8098],[3.5666,-0.40637],[-6.31471,0.71948]],[[203.89979,127.36232],[6.40891,0.64989],[0,0]],[[203.95073,127.7014],[0,0],[-2.19486,2.14892]],[[196.70594,132.90967],[2.48379,-1.72053],[-1.75303,1.21434]],[[193.91229,137.48108],[0.68148,-1.81256],[-1.42027,3.77754]],[[193.95073,146.87298],[-3.42438,-3.32756],[0,0]],[[194.54393,148.67952],[0.21121,-1.00214],[1.0132,1.68546]],[[197.659,153.61777],[-1.09357,-1.56164],[0.49128,0.70157]],[[199.38428,155.52182],[-0.3405,-0.78589],[0.30585,0.70592]],[[199.48302,157.82768],[-0.19027,-0.74542],[0.18156,0.71129]],[[200.47476,159.79402],[-0.1647,-0.71538],[0.21384,0.92884]],[[200.59345,162.65098],[-0.21408,-0.92879],[1.11669,4.84465]],[[200.78406,175.7586],[2.35179,-4.92647],[-0.37983,0.66495]],[[196.72718,182.39415],[0.73203,-0.64387],[-0.98461,0.86602]],[[191.73756,184.83906],[0.8833,-1.09791],[-0.2233,0.27756]],[[192.03455,185.86566],[-0.00312,-0.35622],[0.01188,1.35392]],[[191.78214,189.91974],[0.08446,-1.35134],[-0.27246,4.3593]],[[192.39092,204.03806],[-1.42595,-4.24859],[0.24473,0.72916]],[[193.80808,205.85898],[-0.34473,-0.68755],[1.77764,3.54542]],[[198.50442,217.43034],[-0.88711,-3.94372],[1.08761,4.83509]],[[193.04742,228.09759],[2.50233,-3.33644],[-2.1196,1.74023]],[[192.91229,233.5933],[-0.60668,-2.23008],[0.0986,0.36244]],[[192.76734,234.71078],[-0.25121,-0.27925],[0.19576,0.2176]],[[193.53652,234.28719],[-0.28933,0.04426],[0.659,-0.1008]],[[195.53652,234.28719],[-0.66666,-0.00235],[2.09795,0.00741]],[[201.53652,234.78719],[-2.08021,0.0083],[7.50086,-0.02993]],[[224.28088,237.80217],[-7.24835,-1.81209],[3.13597,-0.02677]],[[233.65594,237.61809],[-3.11478,0.11146],[0,0]]],&quot;closed&quot;:true}]}" fill="url(#color-2)"/><path d="M184.20645,199.57418c2.5,0 2.5,1.25349 2.5,1.25349l-0.73223,0.11644c0.78629,0.41004 1.76391,0.74581 2.35886,1.23015c0.76968,0.62657 0.41036,1.82136 1.83008,2.00791c0.75936,0.09977 1.57188,-0.14253 2.34875,-0.08602c1.60166,0.1165 3.21121,0.288 4.70593,0.59916c1.13919,0.23715 1.98355,0.74671 3.08699,1.0231c3.50633,0.87827 7.14725,1.73549 10.8301,2.46918c0,0 2.32119,0.46554 1.39272,1.62937c-0.92848,1.16383 -3.24967,0.69831 -3.24967,0.69831c-4.96487,-1.00182 -9.28748,-2.4564 -14.08291,-3.52729c-2.13564,-0.47692 -4.82484,0.00397 -6.94532,-0.48966c-3.69992,-0.8613 -3.22268,-2.55849 -5.81106,-3.7815l-0.73223,-1.88915c0,0 0,-1.25349 2.5,-1.25349z" fill="#ff6464"/><path d="M284.99702,214.05036c-2.37171,0.39639 -3.16228,-0.79277 -3.16228,-0.79277l-1.09601,-1.69979c-0.00968,-0.511 -0.12767,-3.29929 0.15802,-3.68885c0.32537,-0.44368 1.61484,-0.57132 2,-1.00279c0.27945,-0.31306 -0.16451,-0.68176 -0.1903,-1.0245c-0.06343,-0.8429 0.86955,-1.75701 0.1903,-2.52869c-0.32963,-0.37449 -1.39341,-0.47353 -1.81693,-0.82348c-0.54682,-0.45184 -0.48417,-1.04328 -1,-1.50419c-0.58077,-0.51894 -3.72762,-1.44304 -4.26012,-1.62162c-2.81607,-0.94438 -5.20343,-1.3245 -8.40382,-1.85939c0,0 -2.37171,-0.39639 -1.58114,-1.58556c0.79057,-1.18916 3.16228,-0.79277 3.16228,-0.79277c5.24691,0.87693 12.17969,2.03047 15.33606,4.54134c0.56206,0.44712 0.4616,1.04982 1,1.50419c0.54706,0.46168 1.80624,0.67942 2.18307,1.1821c0.66074,0.8814 0.64765,4.58882 0,5.47195c-0.32537,0.44368 -1.61484,0.57132 -2,1.00279c-0.63261,0.70867 0.17725,1.55155 0.15802,2.32791l0.90399,1.30859c0,0 0.79057,1.18916 -1.58114,1.58556z" fill="#ff6464"/><path d="M253.43868,215.98601c1.76777,-0.88635 3.53553,0 3.53553,0l1.31236,0.69244c1.74118,1.31987 3.57443,2.16977 5.68764,3.31873c0.42514,0.23115 0.59723,0.62691 1.18894,0.73107c0.81959,0.14427 1.75367,-0.15536 2.60281,-0.06362c2.55187,0.2757 4.73019,1.12381 7.20965,1.5332c2.31207,0.38175 4.71167,0.62101 7.0214,1.00632c0,0 2.37171,0.39639 1.58114,1.58556c-0.79057,1.18916 -3.16228,0.79277 -3.16228,0.79277c-2.2946,-0.38427 -4.68246,-0.61732 -6.9786,-0.99927c-2.3413,-0.38946 -4.3768,-1.21962 -6.79035,-1.47519c-1.10873,-0.1174 -2.35612,0.16077 -3.39719,-0.06362c-1.16061,-0.25016 -1.89244,-0.83969 -2.81106,-1.27451c-2.47235,-1.17028 -4.41222,-2.28147 -6.31236,-3.70082l-0.68764,-0.31035c0,0 -1.76777,-0.88635 0,-1.7727z" fill="#ff6464"/><path d="M257.70645,176.76062c0,1.25349 -2.5,1.25349 -2.5,1.25349h-2c-4.70537,-0.06505 -8.56965,1.59652 -12.73778,2.51871c-2.94172,0.65085 -6.21893,0.95407 -8.9479,1.80665c-8.02844,2.50825 -15.32749,5.45771 -22.75259,8.43627c0,0 -1.95217,0.78305 -3.51391,-0.19576c-1.56174,-0.97881 0.39043,-1.76187 0.39043,-1.76187c7.56961,-3.03607 15.02136,-6.08127 23.24741,-8.61121c2.92495,-0.89958 6.38403,-1.26504 9.52311,-1.95989c5.06062,-1.1202 9.05947,-2.68612 14.79122,-2.73988h2c0,0 2.5,0 2.5,1.25349z" fill="#ff6464"/><path d="M299.20645,192.05322c-2.5,0 -2.5,-1.25349 -2.5,-1.25349l0.12829,-0.10501c-0.20502,-0.3799 -0.11265,-0.83733 -0.61506,-1.13972c-0.64924,-0.39077 -1.79829,-0.48154 -2.59821,-0.79428c-1.6021,-0.62636 -3.04551,-1.45899 -4.98941,-1.755c-3.3445,-0.50929 -7.78432,1.30905 -11.02516,1.52154c-1.684,0.11042 -3.40633,-0.08395 -5.095,0.00679c-3.16239,0.16994 -6.5133,0.94759 -9.51489,1.44926c0,0 -2.37171,0.39639 -3.16228,-0.79277c-0.79057,-1.18916 1.58114,-1.58556 1.58114,-1.58556c3.35255,-0.56032 6.96021,-1.35624 10.48511,-1.55912c1.62434,-0.0935 3.28135,0.10325 4.905,0.00679c3.05932,-0.18176 5.93183,-1.28249 9,-1.50419c4.8295,-0.34898 7.55238,0.86822 10.98543,2.27351c1.07735,0.44101 2.54693,0.66125 3.40179,1.21131c0.81462,0.52415 0.92329,1.24578 1.38494,1.86866l0.12829,0.89779c0,0 0,1.25349 -2.5,1.25349z" fill="#ff6464"/><path d="M235.08842,231.53123c-2.23607,-0.56058 -1.11803,-1.68173 -1.11803,-1.68173l0.73607,-0.44222c0.06343,-0.50863 0.31514,-1.02013 0.1903,-1.5259c-0.12811,-0.51903 -2.06092,-0.16215 -3.09076,-0.24518c-3.33278,-0.26868 -7.91087,-1.03419 -9.72617,-2.58389c-2.71786,-2.32021 -0.04277,-3.18907 0.65891,-5.37236c0.34382,-1.06979 0.4312,-2.17294 1.09601,-3.20398c0,0 0.79057,-1.18916 3.16228,-0.79277c2.37171,0.39639 1.58114,1.58556 1.58114,1.58556c-0.61992,0.89738 -0.5838,1.87676 -0.90399,2.81278c-0.40903,1.19572 -2.82684,2.473 -1.34109,3.65279c3.07024,2.43798 10.58656,0.13453 13.18307,3.18769c0.64854,0.7626 0.12687,1.65685 0.1903,2.48528l-1.26393,1.56337c0,0 -1.11803,1.12116 -3.3541,0.56058z" fill="#ff6464"/></g></g></svg>