<svg version="1.1" xmlns="http://www.w3.org/2000/svg" xmlns:xlink="http://www.w3.org/1999/xlink" width="119.99997" height="142.0958" viewBox="0,0,119.99997,142.0958"><defs><radialGradient cx="259.30844" cy="166.41805" r="57.0707" gradientUnits="userSpaceOnUse" id="color-1"><stop offset="0" stop-color="#c4ff00"/><stop offset="1" stop-color="#759900"/></radialGradient><radialGradient cx="214.97386" cy="160.14668" r="56.64045" gradientUnits="userSpaceOnUse" id="color-2"><stop offset="0" stop-color="#ff0000"/><stop offset="1" stop-color="#990000"/></radialGradient></defs><g transform="translate(-181.70646,-89.5924)"><g data-paper-data="{&quot;isPaintingLayer&quot;:true}" fill-rule="nonzero" stroke="none" stroke-width="0.5" stroke-linecap="butt" stroke-linejoin="miter" stroke-miterlimit="10" stroke-dasharray="" stroke-dashoffset="0" style="mix-blend-mode: normal"><g><path d="M235.62975,219.96602c0.01501,-2.15258 1.63347,-5.24881 1.06151,-7.27526c-0.23446,-0.83071 -1.11316,-1.5139 -1.06151,-2.37301c0.19819,-3.29695 3.53334,-3.66902 3.0379,-7.00041c-0.35457,-2.38427 -0.70395,-4.9498 -1.83471,-7.12507c-0.73503,-1.41399 -1.63141,-2.87445 -1.69191,-4.45284c-1.67587,-6.20109 -4.32485,-13.84974 -1.90513,-20.20181c2.86509,-7.52126 11.0681,-13.10358 10.96533,-21.36239c-1.07461,-6.10364 -2.70393,-11.50871 -4.91971,-17.339c-0.52141,-1.37194 -1.76509,-2.39444 -2.44859,-3.69949c-0.28967,-0.55307 -0.11644,-1.27147 -0.43783,-1.80824c-0.83903,-1.40126 -2.23659,-2.71284 -2.27678,-4.32766c-0.09997,-4.01633 3.95967,-7.11377 5.71433,-10.43426c-1.2445,0.18893 -2.50443,0.33164 -3.88949,0.32031c-3.54508,0.84866 -7.03377,0.57782 -10.62749,0.96991c-6.36273,0.69419 -13.59418,1.16011 -20.05184,0.53307l0.05133,0.32716c-2.21155,2.07332 -4.79722,3.36507 -7.29988,5.0251c-1.76636,1.17162 -2.12823,2.66181 -2.8149,4.41064c-1.43107,3.64467 -3.41168,5.85103 0.03874,9.06157c0,0 0.81052,0.7761 0.59771,1.743c1.02091,1.62617 2.03688,3.25784 3.13877,4.76455c0.49502,0.67688 1.39531,1.07882 1.73839,1.83709c0.30817,0.6811 -0.09223,1.50554 0.09949,2.22476c0.18294,0.68626 0.83334,1.20696 0.99929,1.89716c0.21546,0.89619 -0.09612,1.86033 0.11959,2.75646c1.12518,4.67425 2.56173,7.89341 0.19206,12.6466c-0.38271,0.64156 -3.35013,5.78094 -4.08773,6.40216c-0.9921,0.83555 -4.13755,1.29963 -5.02755,2.3589c-0.225,0.26781 0.2961,0.64681 0.29925,0.99049c0.01197,1.3063 -0.16924,2.60768 -0.25434,3.9115c-0.27453,4.20597 -0.82338,9.52259 0.61341,13.62176c0.24659,0.70351 1.08058,1.09349 1.42794,1.75687c1.79116,3.42074 3.83821,7.35937 4.73206,11.16437c1.09588,4.66505 -2.97714,7.07298 -5.49849,10.29205c-2.13572,1.67901 -0.74746,3.15077 -0.13617,5.30242c0.09935,0.34969 -0.39917,0.80877 -0.14605,1.07816c0.19725,0.20996 0.48349,-0.36599 0.77503,-0.4087c0.66401,-0.09724 1.34348,-0.00226 2.01521,0c2.11391,0.00717 3.94959,0.49043 6.04563,0.48242c7.5579,-0.02888 15.61385,1.16058 22.91733,2.90894c3.15981,-0.02585 6.30787,-0.07009 9.44634,-0.17763zM243.47783,114.21548c-1.41513,2.68759 -5.1383,5.65361 -5.32907,8.78532c-0.08758,1.43771 0.99977,1.15898 1.75364,2.42614c0.3657,0.61474 0.24018,1.4179 0.56978,2.05108c0.73337,1.40883 1.99976,2.54973 2.58943,4.01914c2.44563,6.09421 4.04828,11.93061 5.15634,18.35966c-0.08109,9.39833 -7.81712,14.69226 -11.20196,23.01969c-2.25561,5.54929 0.75236,12.98361 2.12529,18.39129c-0.06626,1.16681 0.78313,2.22157 1.3309,3.26576c1.31124,2.49955 1.87557,5.56021 2.19571,8.31216c0.17749,1.52576 0.01657,3.67049 -0.75028,5.0458c-0.53275,0.95548 -2.41059,1.35298 -2.25743,2.42614c0.08222,0.57614 0.81641,0.91987 0.9537,1.4863c0.66439,2.74126 -0.97807,5.42678 -0.9537,8.16197l-0.18118,0.6139c2.5184,-0.13967 5.03124,-0.33339 7.53963,-0.6045c2.69919,-0.29174 5.35921,-1.16369 8.06083,-1.44726c6.32613,-0.66399 12.78655,0.49522 19.03783,0.48242c3.26576,0.61393 6.05452,0.95545 9.37366,0.95545c0.50596,0 3.31826,0.47963 3.68001,-0.25604c0.27181,-0.55273 -2.41925,-2.56088 -2.58596,-2.7212c-2.1627,-2.07999 -4.55151,-4.48523 -4.62066,-7.63584c-0.04367,-1.98997 1.2692,-4.05781 1.5265,-6.02472c0.34957,-2.67223 0.29009,-6.1449 -0.39372,-8.74301c-2.64065,-4.98313 -5.44252,-11.55996 -4.6443,-17.30733c0.60679,-4.36901 4.06655,-7.96975 5.6519,-12.01165c0.92756,-2.36485 1.48329,-5.28523 1.90513,-7.76732c0.28516,-1.67782 -1.07572,-3.63356 -1.5045,-5.26875c-0.48425,-8.93813 -5.06004,-16.92029 -5.06004,-25.85241c0,-1.84231 -0.4213,-4.46241 0.05391,-6.23233c0.75766,-2.82191 3.35511,-5.52146 5.5848,-7.68087c-3.11996,-0.44508 -6.03345,-0.23098 -9.29668,-0.53746c-8.18478,-0.76868 -15.61488,-0.70057 -23.84108,0.00454c-1.95364,0.16746 -3.99976,-0.24259 -5.94225,-0.0096c-0.27813,0.03339 -0.55176,0.06981 -0.82188,0.10835c0.96336,0.90645 0.29569,2.18508 0.29569,2.18508zM189.33386,126.89916c0.30546,-1.18205 1.61887,-2.88832 2.08648,-4.08544c0.96876,-2.48027 1.85471,-4.53166 4.23834,-6.20248c1.74954,-1.22636 3.69155,-2.16003 5.39758,-3.4269c0.27311,-1.046 0.42614,-2.27257 0.66184,-3.04266c0.03064,-0.10012 0.06134,-0.19979 0.09202,-0.29901c1.10668,0.27128 2.21963,0.53692 3.40114,0.66101c6.32845,0.66453 13.42716,0.16511 19.70729,-0.48749c3.5719,-0.37119 7.01023,-0.11665 10.53219,-0.95977c2.94057,-0.01881 5.19945,-0.62291 8.06083,-0.96484c2.0226,-0.24171 4.12166,0.16972 6.149,-0.0096c8.42021,-0.74481 16.14509,-0.81444 24.52393,0.00454c4.1244,0.40313 7.76668,0.03007 11.87764,1.01305l0.01504,-0.0576c0,0 2.01521,0 2.01521,1.92964c0,0.69052 -0.25805,1.13392 -0.58946,1.41866c0.29591,1.01337 -0.5718,1.84425 -0.5718,1.84425c-1.75275,1.67206 -4.90491,4.3643 -5.5093,6.79747c-1.24944,5.03013 0.80601,10.36802 2.01521,15.03298c1.26206,4.8689 2.79277,10.5842 3.0547,15.59612c0.33248,1.28183 1.17722,2.41174 1.47952,3.70043c0.72642,3.09667 -0.93793,8.30706 -2.08648,11.24353c-1.42103,3.63313 -4.96845,7.24112 -5.43174,11.14422c-0.61868,5.21217 2.08867,10.96921 4.42414,15.49681c0.83785,3.22562 1.04886,7.21597 0.61388,10.55353c-0.23697,1.81822 -1.41847,3.74029 -1.49631,5.55319c-0.21405,4.98482 9.38821,6.19346 6.89983,11.83395c-1.29896,2.94438 -2.86427,2.56122 -5.38843,2.63844c-4.0918,0.12515 -7.78312,-0.19111 -11.78603,-0.97422c-5.98422,-0.01179 -12.19037,-1.13665 -18.24354,-0.48242c-2.69919,0.29174 -5.35921,1.16369 -8.06083,1.44726c-7.31791,0.76808 -14.68878,1.00721 -22.10829,0.95977c-8.78756,-2.10361 -17.78305,-2.27405 -26.70151,-3.3769c-1.85941,-0.22994 -5.49499,0.72325 -7.03959,-0.39424c-0.83116,-0.60132 -0.73971,-1.86575 -1.15366,-2.78114c-1.57398,-3.48066 -1.88259,-6.23402 0.87144,-9.17001c1.19217,-1.5221 3.3007,-2.94583 4.30298,-4.51057c1.14072,-1.78086 -0.59435,-4.55034 -1.07782,-5.93627c-0.78919,-2.26238 -1.85785,-4.52756 -2.984,-6.68984c-0.40371,-0.77514 -1.30875,-1.28074 -1.59488,-2.10243c-0.81481,-2.33996 -0.96516,-4.85738 -1.14748,-7.31782c-0.28707,-3.87399 0.17969,-7.92026 0.49698,-11.78233c0.07953,-0.96809 -0.23234,-2.07307 0.30121,-2.89889c0.52646,-0.8148 1.75281,-0.93737 2.55088,-1.51537c0.62557,-0.45307 1.01554,-1.18887 1.69683,-1.56102c0.5344,-0.29189 1.33327,0.02062 1.80839,-0.35366c1.57089,-1.23749 1.92485,-3.4326 2.93438,-5.12362c2.07086,-3.67674 0.27897,-6.46061 -0.59195,-10.06996c-0.20062,-0.83145 0.12737,-1.72757 -0.07287,-2.55911c-0.1713,-0.71136 -0.83521,-1.25291 -1.01592,-1.96216c-0.1351,-0.53023 0.32086,-1.13164 0.09949,-1.63455c-0.2193,-0.49822 -0.95141,-0.62081 -1.28442,-1.05743c-1.67885,-2.20108 -3.12447,-4.76808 -4.67181,-7.14538c0.06954,-0.04934 0.13754,-0.09807 0.20388,-0.14605c-1.79865,-2.21515 -2.68079,-4.78257 -1.90417,-7.78779z" fill="#000000"/><path d="M243.16641,111.98455c0.27012,-0.03855 0.54442,-0.07521 0.82254,-0.10858c1.9425,-0.23299 3.99341,0.17588 5.94705,0.00838c8.2262,-0.70511 15.67712,-0.77316 23.86189,-0.00448c3.26323,0.30645 6.18417,0.09446 9.30413,0.53955c-2.22969,2.1594 -4.86094,4.9498 -5.6186,7.77173c-0.47521,1.76992 -0.02018,4.29911 -0.02018,6.14143c0,8.93209 4.59933,16.93196 5.08357,25.87009c0.42878,1.63517 1.795,3.60052 1.50985,5.27835c-0.42185,2.48209 -0.97405,5.41849 -1.90161,7.78337c-1.58536,4.04189 -5.05612,7.67451 -5.6629,12.04353c-0.79822,5.74741 1.99173,12.33452 4.63239,17.31765c0.68381,2.59811 0.73865,6.07332 0.38909,8.74557c-0.2573,1.96694 -1.57413,4.03648 -1.53046,6.02647c0.06914,3.15061 2.41921,5.46681 4.58193,7.54679c0.16673,0.16032 2.89849,2.25674 2.62668,2.80946c-0.36176,0.73564 -3.17672,0.25711 -3.68268,0.25711c-3.31914,0 -6.11505,-0.33946 -9.38081,-0.95335c-6.25128,0.0128 -12.72874,-1.14556 -19.05489,-0.48157c-2.70163,0.28355 -5.36831,1.15429 -8.0675,1.44604c-2.5084,0.27109 -5.02683,0.46308 -7.54523,0.60275l0.18113,-0.6139c-0.02439,-2.73519 1.61611,-5.4215 0.95172,-8.16276c-0.13729,-0.56643 -0.87282,-0.91076 -0.95504,-1.4869c-0.15316,-1.07316 1.76708,-1.55817 2.29983,-2.51369c0.76685,-1.37532 0.8847,-3.43285 0.70721,-4.95861c-0.32012,-2.75195 -0.89137,-5.81655 -2.20261,-8.3161c-0.54778,-1.04421 -1.40067,-2.10158 -1.33441,-3.26838c-1.37292,-5.40767 -4.39655,-12.86516 -2.14092,-18.41447c3.38484,-8.32743 11.13775,-13.67251 11.21883,-23.07085c-1.10805,-6.42905 -2.70237,-12.27059 -5.148,-18.36482c-0.58967,-1.46941 -1.85643,-2.61012 -2.5898,-4.01895c-0.3296,-0.63317 -0.1575,-1.35079 -0.5232,-1.96553c-0.75386,-1.26718 -1.88768,-1.07407 -1.80009,-2.51177c0.19078,-3.13171 3.92126,-6.10072 5.3364,-8.78832c0,0 0.66803,-1.27876 -0.29534,-2.18521z" data-paper-data="{&quot;noHover&quot;:false,&quot;origItem&quot;:[&quot;Path&quot;,{&quot;applyMatrix&quot;:true,&quot;segments&quot;:[[[241.82537,127.18162],[0,0],[-1.40445,2.78557]],[[236.53652,136.28719],[0.18934,-3.24588],[-0.08692,1.49013]],[[238.27692,138.80179],[-0.74817,-1.31338],[0.36294,0.63713]],[[238.84239,140.92765],[-0.32711,-0.65625],[0.72784,1.46018]],[[241.41229,145.0933],[-0.58522,-1.52296],[2.42717,6.31637]],[[246.5297,164.12223],[-1.09969,-6.66341],[-0.08048,9.74094]],[[235.41229,187.98108],[3.3593,-8.631],[-2.23859,5.75159]],[[237.52153,207.04282],[-1.36256,-5.6048],[-0.06576,1.20935]],[[238.84239,210.42765],[-0.54364,-1.08227],[1.30134,2.59068]],[[241.02153,219.04282],[-0.31771,-2.85228],[0.17615,1.58137]],[[240.27692,224.27259],[0.76106,-1.42547],[-0.52873,0.99032]],[[238.03652,226.78719],[-0.152,-1.11229],[0.0816,0.59713]],[[238.98302,228.32768],[-0.13625,-0.58708],[0.65937,2.84119]],[[238.03652,236.78719],[-0.0242,-2.8349],[0,0]],[[237.85671,237.42345],[0,0],[2.4994,-0.14476]],[[245.33944,236.79692],[-2.48947,0.28099],[2.67882,-0.30237]],[[253.33944,235.29692],[-2.68124,0.29389],[6.27839,-0.68818]],[[272.23359,235.79692],[-6.2041,0.01328],[3.24111,0.63629]],[[281.53652,236.78719],[-3.29409,0],[0.50214,0]],[[285.18876,236.52182],[-0.35903,0.76247],[0.26976,-0.57288]],[[282.6223,233.7014],[0.16547,0.16619],[-2.14638,-2.15582]],[[278.03652,225.78719],[0.06862,3.26547],[-0.04334,-2.06252]],[[279.5515,219.54282],[-0.25536,2.03864],[0.34693,-2.76966]],[[279.16075,210.48108],[0.67865,2.69283],[-2.62072,-5.1648]],[[274.5515,192.54282],[-0.7922,5.95691],[0.60221,-4.52828]],[[280.16075,180.0933],[-1.57339,4.18923],[0.92056,-2.45105]],[[282.0515,172.04282],[-0.41866,2.57257],[0.28301,-1.739]],[[280.55837,166.58201],[0.42554,1.69477],[-0.48059,-9.26396]],[[275.53652,139.78719],[0,9.25772],[0,-1.90948]],[[275.59002,133.32768],[-0.47162,1.83443],[0.75194,-2.92478]],[[281.13267,125.36684],[-2.21286,2.23811],[-3.09641,-0.46132]],[[271.90615,124.8098],[3.2386,0.31764],[-8.12301,-0.79671]],[[248.245,124.8145],[8.16412,-0.73082],[-1.9389,0.17356]],[[242.34759,124.80455],[1.92784,-0.24148],[-0.27603,0.03458]],[[241.53191,124.91686],[0.26808,-0.03997],[0.95609,0.9395]]],&quot;closed&quot;:true}]}" fill="url(#color-1)"/><path d="M235.26064,220.81393c-3.13846,0.10754 -6.29442,0.15338 -9.45423,0.17923c-7.30347,-1.74836 -15.37997,-2.93935 -22.93787,-2.91047c-2.09603,0.00801 -3.93667,-0.47692 -6.05058,-0.48408c-0.67173,-0.00226 -1.35269,-0.09788 -2.0167,-0.00062c-0.29153,0.04271 -0.57819,0.61847 -0.77545,0.40851c-0.25312,-0.26943 0.24513,-0.72861 0.14578,-1.07829c-0.61129,-2.15164 -1.95529,-3.71003 0.18044,-5.38904c2.52136,-3.21908 6.54817,-5.5413 5.45229,-10.20631c-0.89385,-3.805 -2.95262,-7.75167 -4.74377,-11.17241c-0.34735,-0.66336 -1.18377,-1.05573 -1.43034,-1.75924c-1.4368,-4.09915 -0.89856,-9.43319 -0.62402,-13.63916c0.0851,-1.30383 0.2645,-2.61219 0.25253,-3.91849c-0.00314,-0.34368 -0.52456,-0.72469 -0.29955,-0.99246c0.89001,-1.0593 4.03509,-1.52761 5.02719,-2.36318c0.7376,-0.62122 3.70799,-5.77885 4.09071,-6.42041c2.36967,-4.75319 0.94754,-7.99242 -0.17763,-12.66666c-0.2157,-0.89613 0.09843,-1.86228 -0.11705,-2.75843c-0.16595,-0.69021 -0.8158,-1.2113 -0.99874,-1.89757c-0.19171,-0.71921 0.21037,-1.54482 -0.0978,-2.22589c-0.34309,-0.75827 -1.18658,-1.08048 -1.68161,-1.7574c-1.10189,-1.50671 -2.17485,-3.21795 -3.19575,-4.84414c0.21282,-0.96691 -0.59718,-1.74335 -0.59718,-1.74335c-3.45042,-3.21053 -1.46531,-5.41943 -0.03424,-9.0641c0.68666,-1.74879 1.05251,-3.24079 2.81886,-4.41241c2.50268,-1.66002 5.09585,-2.95408 7.30741,-5.02744l-0.0513,-0.32716c6.45764,0.62704 13.70714,0.1601 20.06986,-0.53407c3.59372,-0.39209 7.09117,-0.11943 10.63624,-0.96809c1.38505,0.01132 2.64782,-0.13048 3.89234,-0.31937c-1.75465,3.32048 -5.81577,6.41743 -5.71579,10.43376c0.0402,1.61481 1.44155,2.92777 2.28057,4.32907c0.32139,0.53677 0.14939,1.25567 0.43905,1.80877c0.68349,1.30505 1.93137,2.32964 2.45277,3.70158c2.21579,5.83029 3.86137,11.25003 4.93599,17.35367c0.10277,8.25881 -8.09432,13.8835 -10.95941,21.40476c-2.41972,6.35207 0.20867,14.02592 1.88454,20.22703c0.0605,1.57842 0.95559,3.03963 1.69062,4.45363c1.13075,2.17527 1.47785,4.74206 1.83243,7.12629c0.49542,3.33143 -2.84549,3.70597 -3.04369,7.00295c-0.05164,0.85907 0.82716,1.54226 1.06162,2.37295c0.57196,2.02649 -1.04953,5.12372 -1.06453,7.2763z" data-paper-data="{&quot;noHover&quot;:false,&quot;origItem&quot;:[&quot;Path&quot;,{&quot;applyMatrix&quot;:true,&quot;segments&quot;:[[[234.03652,236.78719],[0,0],[0.0149,-2.23105]],[[235.09002,229.24669],[0.56764,2.10036],[-0.23269,-0.86099]],[[234.03652,226.78719],[-0.05125,0.89041],[0.1967,-3.41714]],[[237.0515,219.53156],[0.49168,3.45286],[-0.35189,-2.47119]],[[235.23064,212.14673],[1.12222,2.25457],[-0.72948,-1.46554]],[[233.5515,207.53156],[0.06004,1.63595],[-1.66322,-6.42716]],[[231.66075,186.5933],[-2.40146,6.58364],[2.84347,-7.79544]],[[242.54333,164.45215],[0.10199,8.55989],[-1.0665,-6.32614]],[[237.66075,146.48108],[2.19907,6.04282],[-0.51747,-1.42196]],[[235.23064,142.64673],[0.67833,1.35263],[-0.28748,-0.57324]],[[234.79612,140.77259],[0.31897,0.55633],[-0.83269,-1.45236]],[[232.53652,136.28719],[0.03989,1.67366],[-0.09922,-4.16274]],[[238.20772,125.47255],[-1.74141,3.44152],[-1.23511,0.1958]],[[234.34759,125.80455],[1.3746,0.01173],[-3.51832,0.87958]],[[223.8003,126.8098],[3.5666,-0.40637],[-6.31471,0.71948]],[[203.89979,127.36232],[6.40891,0.64989],[0,0]],[[203.95073,127.7014],[0,0],[-2.19486,2.14892]],[[196.70594,132.90967],[2.48379,-1.72053],[-1.75303,1.21434]],[[193.91229,137.48108],[0.68148,-1.81256],[-1.42027,3.77754]],[[193.95073,146.87298],[-3.42438,-3.32756],[0,0]],[[194.54393,148.67952],[0.21121,-1.00214],[1.0132,1.68546]],[[197.659,153.61777],[-1.09357,-1.56164],[0.49128,0.70157]],[[199.38428,155.52182],[-0.3405,-0.78589],[0.30585,0.70592]],[[199.48302,157.82768],[-0.19027,-0.74542],[0.18156,0.71129]],[[200.47476,159.79402],[-0.1647,-0.71538],[0.21384,0.92884]],[[200.59345,162.65098],[-0.21408,-0.92879],[1.11669,4.84465]],[[200.78406,175.7586],[2.35179,-4.92647],[-0.37983,0.66495]],[[196.72718,182.39415],[0.73203,-0.64387],[-0.98461,0.86602]],[[191.73756,184.83906],[0.8833,-1.09791],[-0.2233,0.27756]],[[192.03455,185.86566],[-0.00312,-0.35622],[0.01188,1.35392]],[[191.78214,189.91974],[0.08446,-1.35134],[-0.27246,4.3593]],[[192.39092,204.03806],[-1.42595,-4.24859],[0.24473,0.72916]],[[193.80808,205.85898],[-0.34473,-0.68755],[1.77764,3.54542]],[[198.50442,217.43034],[-0.88711,-3.94372],[1.08761,4.83509]],[[193.04742,228.09759],[2.50233,-3.33644],[-2.1196,1.74023]],[[192.91229,233.5933],[-0.60668,-2.23008],[0.0986,0.36244]],[[192.76734,234.71078],[-0.25121,-0.27925],[0.19576,0.2176]],[[193.53652,234.28719],[-0.28933,0.04426],[0.659,-0.1008]],[[195.53652,234.28719],[-0.66666,-0.00235],[2.09795,0.00741]],[[201.53652,234.78719],[-2.08021,0.0083],[7.50086,-0.02993]],[[224.28088,237.80217],[-7.24835,-1.81209],[3.13597,-0.02677]],[[233.65594,237.61809],[-3.11478,0.11146],[0,0]]],&quot;closed&quot;:true}]}" fill="url(#color-2)"/><path d="M184.20645,150.46388c2.5,0 2.5,3.17039 2.5,3.17039l-0.73223,0.2945c0.78629,1.03711 1.76391,1.88634 2.35886,3.11135c0.76968,1.58475 0.41036,4.60667 1.83008,5.0785c0.75936,0.25236 1.57188,-0.3605 2.34875,-0.21758c1.60166,0.29466 3.21121,0.72843 4.70593,1.51542c1.13919,0.5998 1.98355,1.8886 3.08699,2.58767c3.50633,2.22137 7.14725,4.38947 10.8301,6.24516c0,0 2.32119,1.17746 1.39272,4.12109c-0.92848,2.94363 -3.24967,1.76619 -3.24967,1.76619c-4.96487,-2.53384 -9.28748,-6.21284 -14.08291,-8.92137c-2.13564,-1.20625 -4.82484,0.01003 -6.94532,-1.23847c-3.69992,-2.17844 -3.22268,-6.47105 -5.81106,-9.56435l-0.73223,-4.77812c0,0 0,-3.17039 2.5,-3.17039z" fill="#ff6464"/><path d="M284.99702,187.07773c-2.37171,1.00257 -3.16228,-2.00513 -3.16228,-2.00513l-1.09601,-4.29919c-0.00968,-1.29245 -0.12767,-8.34472 0.15802,-9.33003c0.32537,-1.12217 1.61484,-1.445 2,-2.53631c0.27945,-0.79179 -0.16451,-1.72435 -0.1903,-2.59121c-0.06343,-2.1319 0.86955,-4.4439 0.1903,-6.39568c-0.32963,-0.94719 -1.39341,-1.19767 -1.81693,-2.08279c-0.54682,-1.14282 -0.48417,-2.63872 -1,-3.80447c-0.58077,-1.31252 -3.72762,-3.64982 -4.26012,-4.10147c-2.81607,-2.38856 -5.20343,-3.34999 -8.40382,-4.70286c0,0 -2.37171,-1.00257 -1.58114,-4.01027c0.79057,-3.0077 3.16228,-2.00513 3.16228,-2.00513c5.24691,2.21797 12.17969,5.13556 15.33606,11.48617c0.56206,1.13087 0.4616,2.65524 1,3.80447c0.54706,1.16771 1.80624,1.71843 2.18307,2.98983c0.66074,2.22927 0.64765,11.60626 0,13.83992c-0.32537,1.12217 -1.61484,1.445 -2,2.53631c-0.63261,1.7924 0.17725,3.92425 0.15802,5.88785l0.90399,3.30975c0,0 0.79057,3.0077 -1.58114,4.01027z" fill="#ff6464"/><path d="M253.43868,191.97347c1.76777,-2.24181 3.53553,0 3.53553,0l1.31236,1.75135c1.74118,3.33827 3.57443,5.48787 5.68764,8.3939c0.42514,0.58465 0.59723,1.58561 1.18894,1.84906c0.81959,0.3649 1.75367,-0.39294 2.60281,-0.1609c2.55187,0.6973 4.73019,2.8424 7.20965,3.87783c2.31207,0.96554 4.71167,1.5707 7.0214,2.54523c0,0 2.37171,1.00257 1.58114,4.01027c-0.79057,3.0077 -3.16228,2.00513 -3.16228,2.00513c-2.2946,-0.97192 -4.68246,-1.56137 -6.9786,-2.5274c-2.3413,-0.98504 -4.3768,-3.08471 -6.79035,-3.73111c-1.10873,-0.29694 -2.35612,0.40663 -3.39719,-0.1609c-1.16061,-0.63272 -1.89244,-2.12378 -2.81106,-3.22356c-2.47235,-2.95994 -4.41222,-5.7704 -6.31236,-9.36029l-0.68764,-0.78496c0,0 -1.76777,-2.24181 0,-4.48361z" fill="#ff6464"/><path d="M257.70645,92.76276c0,3.17039 -2.5,3.17039 -2.5,3.17039h-2c-4.70537,-0.16452 -8.56965,4.038 -12.73778,6.37044c-2.94172,1.64616 -6.21893,2.41307 -8.9479,4.56947c-8.02844,6.34399 -15.32749,13.8039 -22.75259,21.33743c0,0 -1.95217,1.98053 -3.51391,-0.49513c-1.56174,-2.47566 0.39043,-4.45619 0.39043,-4.45619c7.56961,-7.67898 15.02136,-15.38103 23.24741,-21.77989c2.92495,-2.27526 6.38403,-3.1996 9.52311,-4.95705c5.06062,-2.83325 9.05947,-6.79386 14.79122,-6.92985h2c0,0 2.5,0 2.5,3.17039z" fill="#ff6464"/><path d="M299.20645,131.44154c-2.5,0 -2.5,-3.17039 -2.5,-3.17039l0.12829,-0.26559c-0.20502,-0.96088 -0.11265,-2.11781 -0.61506,-2.88263c-0.64924,-0.98834 -1.79829,-1.21794 -2.59821,-2.00892c-1.6021,-1.58422 -3.04551,-3.69014 -4.98941,-4.43884c-3.3445,-1.28813 -7.78432,3.31092 -11.02516,3.84835c-1.684,0.27926 -3.40633,-0.21233 -5.095,0.01718c-3.16239,0.42982 -6.5133,2.3967 -9.51489,3.66553c0,0 -2.37171,1.00257 -3.16228,-2.00513c-0.79057,-3.0077 1.58114,-4.01027 1.58114,-4.01027c3.35255,-1.41719 6.96021,-3.43026 10.48511,-3.94341c1.62434,-0.23647 3.28135,0.26116 4.905,0.01718c3.05932,-0.45971 5.93183,-3.24372 9,-3.80447c4.8295,-0.88265 7.55238,2.19595 10.98543,5.75028c1.07735,1.11541 2.54693,1.67248 3.40179,3.0637c0.81462,1.32572 0.92329,3.15087 1.38494,4.7263l0.12829,2.27072c0,0 0,3.17039 -2.5,3.17039z" fill="#ff6464"/><path d="M235.08842,231.29119c-2.23607,-1.41784 -1.11803,-4.25352 -1.11803,-4.25352l0.73607,-1.11848c0.06343,-1.28646 0.31514,-2.58017 0.1903,-3.85937c-0.12811,-1.31276 -2.06092,-0.41013 -3.09076,-0.62012c-3.33278,-0.67955 -7.91087,-2.61572 -9.72617,-6.5353c-2.71786,-5.86838 -0.04277,-8.06596 0.65891,-13.58802c0.34382,-2.70576 0.4312,-5.4959 1.09601,-8.10366c0,0 0.79057,-3.0077 3.16228,-2.00513c2.37171,1.00257 1.58114,4.01027 1.58114,4.01027c-0.61992,2.2697 -0.5838,4.74679 -0.90399,7.11422c-0.40903,3.02426 -2.82684,6.25484 -1.34109,9.2388c3.07024,6.16626 10.58656,0.34025 13.18307,8.06246c0.64854,1.9288 0.12687,4.19058 0.1903,6.28588l-1.26393,3.95415c0,0 -1.11803,2.83569 -3.3541,1.41784z" fill="#ff6464"/></g></g></g></svg>