<svg version="1.1" xmlns="http://www.w3.org/2000/svg" xmlns:xlink="http://www.w3.org/1999/xlink" width="148.83803" height="142.18599" viewBox="0,0,148.83803,142.18599"><defs><radialGradient cx="237.38336" cy="190.81414" r="70.72222" gradientUnits="userSpaceOnUse" id="color-1"><stop offset="0" stop-color="#ff0000"/><stop offset="1" stop-color="#b78300"/></radialGradient><radialGradient cx="212.36204" cy="223.24468" r="22.74973" gradientUnits="userSpaceOnUse" id="color-2"><stop offset="0" stop-color="#ff0000"/><stop offset="1" stop-color="#b50404"/></radialGradient><radialGradient cx="243.36204" cy="181.17125" r="22.74973" gradientUnits="userSpaceOnUse" id="color-3"><stop offset="0" stop-color="#ff0000"/><stop offset="1" stop-color="#b50404"/></radialGradient><radialGradient cx="270.36204" cy="228.71422" r="22.74973" gradientUnits="userSpaceOnUse" id="color-4"><stop offset="0" stop-color="#ff0000"/><stop offset="1" stop-color="#b50404"/></radialGradient><radialGradient cx="213.36204" cy="171.81953" r="62.25" gradientUnits="userSpaceOnUse" id="color-5"><stop offset="0" stop-color="#ff0000"/><stop offset="1" stop-color="#b78300"/></radialGradient><radialGradient cx="276.55774" cy="184.65977" r="61" gradientUnits="userSpaceOnUse" id="color-6"><stop offset="0" stop-color="#ff0000"/><stop offset="1" stop-color="#b78300"/></radialGradient></defs><g transform="translate(-165.62463,-116.36624)"><g data-paper-data="{&quot;isPaintingLayer&quot;:true}" fill-rule="nonzero" stroke="#000000" stroke-width="4" stroke-linecap="butt" stroke-linejoin="miter" stroke-miterlimit="10" stroke-dasharray="" stroke-dashoffset="0" style="mix-blend-mode: normal"><path d="M169.27778,249.38685l74.45338,-116.7737l66.99106,116.40677z" fill="url(#color-1)"/><path d="M237.38336,226.25406c0,10.57249 -10.00021,19.14318 -22.3361,19.14318c-12.33589,0 -22.3361,-8.57069 -22.3361,-19.14318c0,-10.57249 10.00021,-19.14318 22.3361,-19.14318c12.33589,0 22.3361,8.57069 22.3361,19.14318z" fill="url(#color-2)"/><path d="M266.14491,181.96966c0,10.57249 -10.00021,19.14318 -22.3361,19.14318c-12.33589,0 -22.3361,-8.57069 -22.3361,-19.14318c0,-10.57249 10.00021,-19.14319 22.3361,-19.14319c12.33589,0 22.3361,8.5707 22.3361,19.14319z" fill="url(#color-3)"/><path d="M287.56309,227.28394c0,10.57249 -10.00021,19.14318 -22.3361,19.14318c-12.33589,0 -22.3361,-8.57069 -22.3361,-19.14318c0,-10.57249 10.00021,-19.14319 22.3361,-19.14319c12.33589,0 22.3361,8.5707 22.3361,19.14319z" fill="url(#color-4)"/><path d="M170.36204,232.31954l70.5,-110l1.5,10.5l-72.5,114z" fill="url(#color-5)"/><path d="M308.36204,244.31954l-66,-111.5l1.5,-10.5l58,99z" data-paper-data="{&quot;index&quot;:null}" fill="url(#color-6)"/></g></g></svg>