<svg version="1.1" xmlns="http://www.w3.org/2000/svg" xmlns:xlink="http://www.w3.org/1999/xlink" width="579" height="455.45363" viewBox="0,0,579,455.45363"><defs><radialGradient cx="203.54032" cy="217.27419" r="215.04536" gradientUnits="userSpaceOnUse" id="color-1"><stop offset="0" stop-color="#b57600"/><stop offset="1" stop-color="#ffb300"/></radialGradient><radialGradient cx="240" cy="180" r="287.5" gradientUnits="userSpaceOnUse" id="color-2"><stop offset="0" stop-color="#c4a764"/><stop offset="1" stop-color="#867047"/></radialGradient><radialGradient cx="240" cy="180" r="287.5" gradientUnits="userSpaceOnUse" id="color-3"><stop offset="0" stop-color="#c4a764"/><stop offset="1" stop-color="#867047"/></radialGradient><radialGradient cx="240" cy="180" r="248" gradientUnits="userSpaceOnUse" id="color-4"><stop offset="0" stop-color="#c4a764"/><stop offset="1" stop-color="#867047"/></radialGradient></defs><g transform="translate(49.5,38.78428)"><g data-paper-data="{&quot;isPaintingLayer&quot;:true}" fill-rule="nonzero" stroke-linecap="butt" stroke-linejoin="miter" stroke-miterlimit="10" stroke-dasharray="" stroke-dashoffset="0" style="mix-blend-mode: normal"><path d="M418.58569,217.27419c0,110.12291 -96.27909,199.39516 -215.04536,199.39516c-118.76627,0 -215.04536,-89.27225 -215.04536,-199.39516c0,-110.12291 96.27909,-199.39516 215.04536,-199.39516c118.76627,0 215.04536,89.27225 215.04536,199.39516zM192.30534,274.32206c1.07396,0.43649 2.37164,-0.34682 3.47782,0c0.76081,0.23854 1.03318,1.27582 1.74393,1.63716c1.68159,0.85491 8.5077,2.8365 10.19198,3.34766c5.11292,0 8.85517,2.6428 13.91129,3.47782c6.43895,1.0634 13.89024,0.14969 20.40534,0.14969c4.35368,0 11.3077,0.1328 14.86982,-0.88244c1.6298,-0.46452 2.51115,-2.31676 3.97686,-3.16747c1.05687,-0.61341 2.43331,-0.52505 3.47782,-1.15927c1.16493,-0.70734 1.86838,-2.01932 3.00228,-2.7754c4.62943,-3.08691 9.25114,-5.15615 12.35717,-10.2655c3.04442,-5.00799 4.5231,-12.56171 6.21877,-18.149c0,-2.35053 0.81393,-4.63062 1.15927,-6.95565c0.55897,-3.76326 0.56034,-9.90152 0.06283,-13.70686c-1.78005,-13.61519 -6.24721,-27.08018 -13.07195,-39.18049c-1.23498,-2.18963 -3.13861,-3.97527 -4.24984,-6.23023c-1.72005,-3.49041 -3.57398,-7.15192 -6.54209,-9.66824c-5.93113,-5.02831 -13.64968,-6.6411 -21.0362,-8.14153c-13.0817,-3.0749 -28.94984,-2.30704 -41.722,1.33916c-8.49947,2.42643 -16.70344,4.65398 -23.81614,10.28019c-5.07919,4.01769 -9.23456,9.38848 -13.20823,14.3675c-3.75398,4.70375 -6.89968,8.37478 -8.98833,14.11719c-3.84098,11.60323 -3.85353,22.39214 0,33.9952c0.40478,1.21879 1.09533,3.33903 1.78971,5.296c-0.04337,0.46849 -0.06606,0.95866 -0.06606,1.47152c0,7.07825 4.32181,9.83469 7.68785,10.90812c1.02463,0.88941 1.94299,1.73657 2.15844,2.14219c0.74668,1.40577 0.66486,3.31201 1.80782,4.41988c2.70517,2.6221 5.86422,4.90302 9.33126,6.37715c1.58569,0.67421 3.37171,0.5202 5.13148,0.47474c3.20449,2.76779 6.67325,5.15358 9.93909,6.4809z" fill="url(#color-1)" stroke="none" stroke-width="0"/><path d="M-47.5,396.78427v-433.56855h575v433.56855zM59.57478,143.9153c0.03064,1.46652 -0.04134,3.30107 -0.1167,5.33049c-11.30559,3.81013 -16.22576,9.05372 -10.6293,23.2029c0.2997,0.7577 1.63343,1.66133 3.33515,2.58566c-1.53297,1.67352 -2.69653,3.55625 -3.1484,5.72346c-1.62636,7.8001 5.6083,11.81704 10.39682,15.06841c0.92472,0.77151 1.81901,1.58149 2.7018,2.4057c-2.29657,1.59267 -3.96524,4.76168 -5.04013,11.4908c-0.62927,3.93939 3.59755,7.13421 5.71398,10.51586c0.69087,1.10386 2.35837,1.38641 2.97303,2.53445c0.23176,0.43287 0.36877,0.90546 0.47493,1.38912c-0.02567,0.02221 -0.05096,0.04447 -0.07587,0.06675l-3.22422,1.07474c-4.73708,1.45686 -8.1804,5.8675 -8.1804,11.08237c0,5.21487 3.44332,9.62551 8.1804,11.08237l3.22422,1.07474c1.76227,0.53482 3.46856,1.31199 5.28682,1.60448c1.67119,0.26885 3.40778,-0.21423 5.07761,0.06283c3.05379,0.50671 5.94832,1.80052 9.00426,2.27855c0.19247,1.04957 0.50235,2.09645 0.67678,3.14308c0.19058,1.1435 -0.27572,2.35181 0,3.47782c1.60628,6.55964 2.54866,8.64655 7.57121,12.90458c2.36538,2.00532 5.40246,3.05858 8.21065,4.37403c0.02738,0.01282 0.05452,0.02599 0.08139,0.03948c-0.2754,0.81483 -0.54086,1.63725 -0.92284,2.39497c-0.90233,1.78991 -2.56511,3.25495 -2.99993,5.21171c-0.71292,3.20827 -0.61961,6.57819 -0.34772,9.85344c0.94426,11.37563 10.94772,19.20921 19.16394,25.65659c1.26049,0.98913 2.18832,2.40956 3.57356,3.21476c4.33921,2.52227 12.84024,4.95886 17.70437,5.15277c2.83906,0.11318 6.06662,0.71975 8.56525,-0.54618c2.45618,1.7399 5.0117,3.38855 7.86547,4.9685c3.47716,1.92508 6.47545,4.7527 10.16284,6.23583c7.14391,2.87342 14.5952,2.15029 22.079,2.15029c8.11492,0 16.22984,0 24.34476,0c2.6655,-0.16581 5.45279,0.31616 7.9965,-0.49742c2.53633,-0.8112 4.74225,-2.4449 6.89886,-4.03105c0.44821,-0.07331 0.91932,-0.22365 1.35144,-0.16505c6.35045,0.86126 12.10099,1.26002 18.53143,1.2157c3.20716,-0.02211 6.46264,0.45835 9.6212,-0.09827c6.3727,-1.12307 12.51908,-3.28079 18.78226,-4.90727c7.39343,-1.91999 10.23531,-1.87658 16.1963,-5.49254c6.59089,-3.99807 10.754,-5.21604 12.49649,-9.29966c2.15968,0.14417 4.3531,0.09008 6.66384,0.09008c11.20542,0 23.98273,-0.44997 30.72831,-11.29445c3.33944,-5.36863 2.89064,-10.66096 2.89064,-16.52813c0,-0.04667 0.00003,-0.09336 0.00012,-0.14003c3.96997,0.70857 8.20617,0.77255 11.47419,-0.35739c5.09472,-1.76152 7.24452,-4.17666 10.63429,-7.53512c7.59543,-7.52531 13.85673,-16.75094 20.21246,-25.28812c0.01759,-0.65799 -0.39806,-1.49436 0.05276,-1.97398c1.78997,-1.90433 5.55145,-2.21452 6.25111,-4.73262c1.2315,-4.4323 -0.1571,-9.25602 -1.1142,-13.75554c-0.6219,-2.92374 -3.31205,-5.01732 -4.47567,-7.77067c-1.99899,-4.73002 -4.62955,-12.47168 -7.55802,-17.69363c1.31222,-2.38473 1.00754,-6.28285 1.41057,-7.82474c0.43102,-1.64894 1.60972,-3.03808 2.04713,-4.68533c0.87832,-3.30772 3.70211,-17.55177 3.92926,-22.18918c0.12513,-2.5547 0.32241,-5.22652 -0.46825,-7.65902c-0.89571,-2.75566 -2.5604,-5.27032 -4.44871,-7.46809c-1.93248,-2.24918 -4.13766,-4.47469 -6.84736,-5.67918c-6.68902,-2.97333 -14.60379,0.31812 -21.36386,0.42652c-0.42956,0.13005 -0.85885,0.261 -1.28808,0.39216c-2.12554,-10.34198 -4.72787,-20.89237 -7.89507,-30.90611c-0.93213,-2.94708 -2.54358,-5.63925 -3.62794,-8.5338c-3.10495,-8.28814 -5.97004,-16.67615 -9.46217,-24.80875c-3.26129,-7.59501 -6.93145,-17.1376 -12.88418,-23.32115c-1.22841,-1.27604 -2.95145,-1.96863 -4.32546,-3.08639c-2.61002,-2.12327 -5.0651,-4.53847 -8.05275,-6.08588c-7.81396,-4.04712 -17.35715,-5.68571 -25.96022,-5.81589c-10.61943,0.05752 -20.3413,-0.68399 -27.25049,8.97589c-1.31496,1.83848 -1.72978,4.18162 -2.42833,6.33131c-1.5031,4.62564 -2.29281,9.45423 -3.54561,14.15385c-0.19315,0.72455 -0.39865,1.44574 -0.60937,2.1655c-3.03187,-2.32729 -5.84492,-4.31848 -6.89372,-5.07599c-7.73119,-5.58392 -16.08731,-10.28743 -24.51809,-14.74538c-4.10828,-2.17233 -7.65347,-5.42574 -11.96958,-7.14856c-9.30962,-3.71604 -17.92374,-1.6146 -25.19498,4.9266c-7.51803,5.01202 -13.13715,11.1687 -18.34378,18.49935c-0.25172,0.35441 -0.50224,0.71 -0.75428,1.06454c-0.35047,-0.26318 -0.70919,-0.51458 -1.07655,-0.75244c-2.05149,-1.3283 -4.81729,-1.13515 -6.95565,-2.31855c-2.00042,-1.10707 -3.48792,-3.40602 -5.74974,-3.7398c-10.06812,-1.48575 -19.17273,5.77319 -26.22538,11.57727c-2.66009,2.18917 -5.46092,4.23043 -7.90244,6.66098c-1.595,1.58783 -2.88409,3.45148 -4.25713,5.23946c-1.05305,-0.28112 -2.0162,-0.54062 -2.32756,-0.70104c-2.00299,-1.03202 -3.77156,-2.48932 -5.79637,-3.47782c-2.32901,-1.137 -4.98429,-1.46865 -7.3634,-2.49669c-1.72202,-0.74409 -3.225,-2.05274 -5.05139,-2.4809c-3.84374,-0.90109 -8.0276,-2.76365 -11.75365,-1.45871c-4.22864,1.48095 -7.52594,5.27618 -9.93435,9.0543c-2.63029,4.12617 -0.02126,9.76188 -0.73275,14.17214c-0.19462,1.20638 -1.02284,2.26348 -1.15927,3.47782c-0.28548,2.54097 0.12059,5.12229 -0.09328,7.67028c-0.21609,2.57476 -1.29202,5.07711 -1.1933,7.65903c0.06817,1.78259 0.77376,3.46832 1.34762,5.17407c-0.6541,2.79896 -2.40705,5.41745 -2.34708,8.28808z" fill="url(#color-2)" stroke="#000000" stroke-width="4"/><path d="M85.20563,250.69133c-0.14427,-0.11093 0.20809,-0.69339 0.18838,-0.51246c-0.02222,0.20401 -0.03313,0.40786 -0.03455,0.61156c-0.05447,-0.02952 -0.10599,-0.06231 -0.15384,-0.09911z" fill="url(#color-3)" stroke="#000000" stroke-width="4"/><path d="M95.39137,152.63738c-0.15856,-0.00324 -0.31735,-0.00802 -0.47633,-0.01404c0.1603,-0.04182 0.31879,-0.03352 0.47633,0.01404z" fill="url(#color-4)" stroke="#000000" stroke-width="4"/></g></g></svg>