<svg version="1.1" xmlns="http://www.w3.org/2000/svg" xmlns:xlink="http://www.w3.org/1999/xlink" width="110" height="116.33334" viewBox="0,0,110,116.33334"><defs><radialGradient cx="239.47067" cy="185.73603" r="43.61538" gradientUnits="userSpaceOnUse" id="color-1"><stop offset="0" stop-color="#ff0000"/><stop offset="1" stop-color="#b50000"/></radialGradient><radialGradient cx="240" cy="180" r="61.67273" gradientUnits="userSpaceOnUse" id="color-2"><stop offset="0" stop-color="#ffda83"/><stop offset="1" stop-color="#b69860"/></radialGradient></defs><g transform="translate(-185,-121.83333)"><g data-paper-data="{&quot;isPaintingLayer&quot;:true}" fill-rule="nonzero" stroke-linecap="butt" stroke-linejoin="miter" stroke-miterlimit="10" stroke-dasharray="" stroke-dashoffset="0" style="mix-blend-mode: normal"><path d="M281.47067,185.73603c0,26.55346 -18.80404,48.07929 -42,48.07929c-23.19596,0 -42,-21.52584 -42,-48.07929c0,-26.55346 18.80404,-48.07929 42,-48.07929c23.19596,0 42,21.52584 42,48.07929z" fill="url(#color-1)" stroke="none" stroke-width="0"/><path d="M264.04846,204.94553c0,14.63555 -10.76686,26.5 -24.04846,26.5c-13.2816,0 -24.04846,-11.86445 -24.04846,-26.5c0,-14.63555 10.76686,-26.5 24.04846,-26.5c13.2816,0 24.04846,11.86445 24.04846,26.5z" fill="#000000" stroke="none" stroke-width="0"/><path d="M293,180c0,31.01999 -23.72891,56.16667 -53,56.16667c-29.27109,0 -53,-25.14667 -53,-56.16667c0,-31.01999 23.72891,-56.16667 53,-56.16667c29.27109,0 53,25.14667 53,56.16667zM234.88054,209.98008c1.68692,1.6589 3.88201,2.66164 6.28204,2.66164c3.17894,0 5.99836,-1.75923 7.75353,-4.4723c5.5462,3.2732 11.63033,4.61026 17.54896,0.6249c7.25891,-4.88786 8.45624,-14.45336 6.00299,-22.76268c-0.19354,-0.65553 -0.33934,-1.36059 -0.46952,-2.08383c-0.01648,-2.45592 -0.09498,-5.18289 -0.41309,-6.4354c-0.46447,-1.82877 -1.68696,-3.28493 -2.49367,-4.95112c-0.48349,-0.99861 -0.91894,-1.97689 -1.3369,-2.91374c2.12488,-6.69391 -1.51073,-12.54735 -5.32383,-16.55468c-1.58384,-1.66451 -2.9055,-4.73328 -5.05353,-4.58995c-0.76145,0.05081 -1.51208,0.16535 -2.25416,0.33022c-0.45813,-0.26337 -0.93717,-0.48619 -1.43351,-0.66436v-0.50418h-2.89091c-2.21632,0 -4.25788,0.85511 -5.88588,2.2924c-1.5603,0.0055 -3.10287,0.16134 -4.27841,0.5908c-0.24933,-0.10983 -0.51117,-0.21686 -0.78399,-0.32115c-3.70203,-6.25485 -9.22422,-10.27995 -17.24514,-5.32249c-3.41573,2.11115 -4.69123,7.17332 -6.23972,11.24322c-0.15941,0.41898 -0.25551,0.85539 -0.30987,1.30311c-1.8254,1.17525 -3.93382,2.76758 -5.55618,4.56758c-4.95245,0.45931 -8.84628,5.19826 -8.84628,10.97659v0c0,2.20261 0,7.70915 0,9.91176c0,0 0,6.74535 4.6191,9.67803c-0.67587,6.24893 2.71698,12.59324 6.23779,17.12767c1.30377,1.67912 2.50574,3.71013 4.31334,4.58873c3.18853,1.54981 6.75281,3.09948 10.17103,2.45149c2.93637,-0.55665 5.60733,-3.62433 7.8858,-6.77226z" fill="url(#color-2)" stroke="#000000" stroke-width="4"/></g></g></svg>