<svg version="1.1" xmlns="http://www.w3.org/2000/svg" xmlns:xlink="http://www.w3.org/1999/xlink" width="147.97859" height="145.18448" viewBox="0,0,147.97859,145.18448"><defs><radialGradient cx="237.38336" cy="179.77913" r="70.72222" gradientUnits="userSpaceOnUse" id="color-1"><stop offset="0" stop-color="#ff0000"/><stop offset="1" stop-color="#b78300"/></radialGradient><radialGradient cx="212.36204" cy="218.31953" r="22.74973" gradientUnits="userSpaceOnUse" id="color-2"><stop offset="0" stop-color="#ff0000"/><stop offset="1" stop-color="#b50404"/></radialGradient><radialGradient cx="243.36204" cy="168.31953" r="22.74973" gradientUnits="userSpaceOnUse" id="color-3"><stop offset="0" stop-color="#ff0000"/><stop offset="1" stop-color="#b50404"/></radialGradient><radialGradient cx="270.36204" cy="224.81953" r="22.74973" gradientUnits="userSpaceOnUse" id="color-4"><stop offset="0" stop-color="#ff0000"/><stop offset="1" stop-color="#b50404"/></radialGradient></defs><g transform="translate(-165.92956,-106.21271)"><g data-paper-data="{&quot;isPaintingLayer&quot;:true}" fill-rule="nonzero" stroke="#000000" stroke-width="4" stroke-linecap="butt" stroke-linejoin="miter" stroke-miterlimit="10" stroke-dasharray="" stroke-dashoffset="0" style="mix-blend-mode: normal"><path d="M169.27778,249.38685l74.45338,-138.7737l66.99106,138.33764z" fill="url(#color-1)"/><path d="M237.38336,221.89588c0,12.56433 -10.00021,22.74973 -22.3361,22.74973c-12.33589,0 -22.3361,-10.1854 -22.3361,-22.74973c0,-12.56433 10.00021,-22.74973 22.3361,-22.74973c12.33589,0 22.3361,10.1854 22.3361,22.74973z" fill="url(#color-2)"/><path d="M266.14491,169.26836c0,12.56433 -10.00021,22.74973 -22.3361,22.74973c-12.33589,0 -22.3361,-10.1854 -22.3361,-22.74973c0,-12.56433 10.00021,-22.74973 22.3361,-22.74973c12.33589,0 22.3361,10.1854 22.3361,22.74973z" fill="url(#color-3)"/><path d="M287.56309,223.11978c0,12.56433 -10.00021,22.74973 -22.3361,22.74973c-12.33589,0 -22.3361,-10.1854 -22.3361,-22.74973c0,-12.56433 10.00021,-22.74973 22.3361,-22.74973c12.33589,0 22.3361,10.1854 22.3361,22.74973z" fill="url(#color-4)"/></g></g></svg>