<svg version="1.1" xmlns="http://www.w3.org/2000/svg" xmlns:xlink="http://www.w3.org/1999/xlink" width="119.99997" height="86.69725" viewBox="0,0,119.99997,86.69725"><defs><radialGradient cx="259.30844" cy="191.86478" r="57.0707" gradientUnits="userSpaceOnUse" id="color-1"><stop offset="0" stop-color="#c4ff00"/><stop offset="1" stop-color="#759900"/></radialGradient><radialGradient cx="214.97386" cy="188.03842" r="56.64045" gradientUnits="userSpaceOnUse" id="color-2"><stop offset="0" stop-color="#ff0000"/><stop offset="1" stop-color="#990000"/></radialGradient></defs><g transform="translate(-181.70646,-144.99096)"><g data-paper-data="{&quot;isPaintingLayer&quot;:true}" fill-rule="nonzero" stroke="none" stroke-width="0.5" stroke-linecap="butt" stroke-linejoin="miter" stroke-miterlimit="10" stroke-dasharray="" stroke-dashoffset="0" style="mix-blend-mode: normal"><path d="M235.62975,224.53612c0.01501,-1.31336 1.63347,-3.20247 1.06151,-4.43887c-0.23446,-0.50684 -1.11316,-0.92368 -1.06151,-1.44785c0.19819,-2.01158 3.53334,-2.23859 3.0379,-4.27118c-0.35457,-1.45472 -0.70395,-3.02003 -1.83471,-4.34723c-0.73503,-0.86272 -1.63141,-1.75379 -1.69191,-2.71682c-1.67587,-3.78348 -4.32485,-8.45017 -1.90513,-12.32578c2.86509,-4.58896 11.0681,-7.99492 10.96533,-13.03388c-1.07461,-3.72403 -2.70393,-7.02183 -4.91971,-10.57908c-0.52141,-0.83706 -1.76509,-1.46093 -2.44859,-2.25718c-0.28967,-0.33745 -0.11644,-0.77576 -0.43783,-1.10327c-0.83903,-0.85495 -2.23659,-1.65519 -2.27678,-2.64044c-0.09997,-2.45049 3.95967,-4.34034 5.71433,-6.36628c-1.2445,0.11527 -2.50443,0.20234 -3.88949,0.19543c-3.54508,0.51779 -7.03377,0.35255 -10.62749,0.59177c-6.36273,0.42355 -13.59418,0.70782 -20.05184,0.32524l0.05133,0.19961c-2.21155,1.265 -4.79722,2.05314 -7.29988,3.06598c-1.76636,0.71484 -2.12823,1.62406 -2.8149,2.69107c-1.43107,2.22373 -3.41168,3.5699 0.03874,5.52876c0,0 0.81052,0.47352 0.59771,1.06346c1.02091,0.99218 2.03688,1.98771 3.13877,2.90701c0.49502,0.41299 1.39531,0.65822 1.73839,1.12087c0.30817,0.41556 -0.09223,0.91858 0.09949,1.3574c0.18294,0.41871 0.83334,0.73641 0.99929,1.15752c0.21546,0.54679 -0.09612,1.13505 0.11959,1.68181c1.12518,2.85191 2.56173,4.81602 0.19206,7.7161c-0.38271,0.39144 -3.35013,3.52714 -4.08773,3.90616c-0.9921,0.5098 -4.13755,0.79295 -5.02755,1.43924c-0.225,0.1634 0.2961,0.39464 0.29925,0.60433c0.01197,0.79702 -0.16924,1.59103 -0.25434,2.38653c-0.27453,2.5662 -0.82338,5.81004 0.61341,8.31107c0.24659,0.42923 1.08058,0.66717 1.42794,1.07192c1.79116,2.0871 3.83821,4.49019 4.73206,6.81174c1.09588,2.8463 -2.97714,4.31545 -5.49849,6.27951c-2.13572,1.02442 -0.74746,1.92239 -0.13617,3.23518c0.09935,0.21336 -0.39917,0.49346 -0.14605,0.65782c0.19725,0.1281 0.48349,-0.2233 0.77503,-0.24936c0.66401,-0.05933 1.34348,-0.00138 2.01521,0c2.11391,0.00437 3.94959,0.29923 6.04563,0.29434c7.5579,-0.01762 15.61385,0.70811 22.91733,1.77484c3.15981,-0.01577 6.30787,-0.04276 9.44634,-0.10838zM243.47783,160.01431c-1.41513,1.63979 -5.1383,3.44945 -5.32907,5.36021c-0.08758,0.87719 0.99977,0.70713 1.75364,1.48027c0.3657,0.37507 0.24018,0.86511 0.56978,1.25143c0.73337,0.85957 1.99976,1.55567 2.58943,2.45221c2.44563,3.71827 4.04828,7.27925 5.15634,11.20182c-0.08109,5.73422 -7.81712,8.96422 -11.20196,14.04505c-2.25561,3.3858 0.75236,7.92172 2.12529,11.22112c-0.06626,0.71191 0.78313,1.35545 1.3309,1.99255c1.31124,1.52506 1.87557,3.39246 2.19571,5.07152c0.17749,0.93092 0.01657,2.23948 -0.75028,3.07861c-0.53275,0.58297 -2.41059,0.8255 -2.25743,1.48027c0.08222,0.35152 0.81641,0.56124 0.9537,0.90684c0.66439,1.67253 -0.97807,3.31105 -0.9537,4.97988l-0.18118,0.37456c2.5184,-0.08522 5.03124,-0.20341 7.53963,-0.36882c2.69919,-0.178 5.35921,-0.71 8.06083,-0.88302c6.32613,-0.40512 12.78655,0.30215 19.03783,0.29434c3.26576,0.37458 6.05452,0.58295 9.37366,0.58295c0.50596,0 3.31826,0.29264 3.68001,-0.15622c0.27181,-0.33724 -2.41925,-1.56248 -2.58596,-1.66029c-2.1627,-1.26907 -4.55151,-2.73658 -4.62066,-4.65887c-0.04367,-1.21414 1.2692,-2.4758 1.5265,-3.67588c0.34957,-1.63041 0.29009,-3.7492 -0.39372,-5.33439c-2.64065,-3.04037 -5.44252,-7.0531 -4.6443,-10.55976c0.60679,-2.66567 4.06655,-4.8626 5.6519,-7.32869c0.92756,-1.44287 1.48329,-3.22469 1.90513,-4.73909c0.28516,-1.02369 -1.07572,-2.21695 -1.5045,-3.21463c-0.48425,-5.45344 -5.06004,-10.32361 -5.06004,-15.77339c0,-1.12405 -0.4213,-2.72266 0.05391,-3.80255c0.75766,-1.72174 3.35511,-3.36882 5.5848,-4.68635c-3.11996,-0.27156 -6.03345,-0.14093 -9.29668,-0.32792c-8.18478,-0.469 -15.61488,-0.42744 -23.84108,0.00277c-1.95364,0.10217 -3.99976,-0.14801 -5.94225,-0.00586c-0.27813,0.02037 -0.55176,0.04259 -0.82188,0.06611c0.96336,0.55305 0.29569,1.33319 0.29569,1.33319zM189.33386,167.75303c0.30546,-0.72121 1.61887,-1.76226 2.08648,-2.49266c0.96876,-1.51329 1.85471,-2.76491 4.23834,-3.78433c1.74954,-0.74824 3.69155,-1.3179 5.39758,-2.09086c0.27311,-0.6382 0.42614,-1.38657 0.66184,-1.85642c0.03064,-0.06109 0.06134,-0.1219 0.09202,-0.18244c1.10668,0.16552 2.21963,0.32759 3.40114,0.4033c6.32845,0.40545 13.42716,0.10074 19.70729,-0.29743c3.5719,-0.22647 7.01023,-0.07117 10.53219,-0.58559c2.94057,-0.01148 5.19945,-0.38006 8.06083,-0.58868c2.0226,-0.14748 4.12166,0.10355 6.149,-0.00586c8.42021,-0.45443 16.14509,-0.49692 24.52393,0.00277c4.1244,0.24596 7.76668,0.01835 11.87764,0.61809l0.01504,-0.03514c0,0 2.01521,0 2.01521,1.17734c0,0.42131 -0.25805,0.69184 -0.58946,0.86557c0.29591,0.61829 -0.5718,1.12524 -0.5718,1.12524c-1.75275,1.02018 -4.90491,2.6628 -5.5093,4.14736c-1.24944,3.06904 0.80601,6.32586 2.01521,9.17211c1.26206,2.97067 2.79277,6.45776 3.0547,9.5157c0.33248,0.78209 1.17722,1.47148 1.47952,2.25775c0.72642,1.88938 -0.93793,5.06841 -2.08648,6.86004c-1.42103,2.21669 -4.96845,4.41804 -5.43174,6.79945c-0.61868,3.18011 2.08867,6.69267 4.42414,9.4551c0.83785,1.96805 1.04886,4.4027 0.61388,6.43905c-0.23697,1.10935 -1.41847,2.28207 -1.49631,3.38818c-0.21405,3.0414 9.38821,3.77883 6.89983,7.22027c-1.29896,1.79646 -2.86427,1.56268 -5.38843,1.6098c-4.0918,0.07636 -7.78312,-0.1166 -11.78603,-0.5944c-5.98422,-0.00719 -12.19037,-0.69351 -18.24354,-0.29434c-2.69919,0.178 -5.35921,0.71 -8.06083,0.88302c-7.31791,0.46863 -14.68878,0.61453 -22.10829,0.58559c-8.78756,-1.28348 -17.78305,-1.38747 -26.70151,-2.06036c-1.85941,-0.14029 -5.49499,0.44128 -7.03959,-0.24054c-0.83116,-0.36688 -0.73971,-1.13835 -1.15366,-1.69686c-1.57398,-2.12366 -1.88259,-3.80358 0.87144,-5.59492c1.19217,-0.92868 3.3007,-1.79735 4.30298,-2.75204c1.14072,-1.08656 -0.59435,-2.77631 -1.07782,-3.62191c-0.78919,-1.38035 -1.85785,-2.76241 -2.984,-4.08169c-0.40371,-0.47294 -1.30875,-0.78142 -1.59488,-1.28276c-0.81481,-1.42769 -0.96516,-2.96364 -1.14748,-4.46484c-0.28707,-2.36365 0.17969,-4.83241 0.49698,-7.18878c0.07953,-0.59066 -0.23234,-1.26485 0.30121,-1.76871c0.52646,-0.49714 1.75281,-0.57192 2.55088,-0.92458c0.62557,-0.27643 1.01554,-0.72537 1.69683,-0.95243c0.5344,-0.17809 1.33327,0.01258 1.80839,-0.21578c1.57089,-0.75503 1.92485,-2.09434 2.93438,-3.12609c2.07086,-2.2433 0.27897,-3.94183 -0.59195,-6.14401c-0.20062,-0.50729 0.12737,-1.05405 -0.07287,-1.5614c-0.1713,-0.43402 -0.83521,-0.76444 -1.01592,-1.19718c-0.1351,-0.32351 0.32086,-0.69045 0.09949,-0.99729c-0.2193,-0.30398 -0.95141,-0.37878 -1.28442,-0.64517c-1.67885,-1.34295 -3.12447,-2.90916 -4.67181,-4.35963c0.06954,-0.0301 0.13754,-0.05984 0.20388,-0.08911c-1.79865,-1.35153 -2.68079,-2.918 -1.90417,-4.75158z" fill="#000000"/><path d="M243.16641,158.65315c0.27012,-0.02352 0.54442,-0.04589 0.82254,-0.06625c1.9425,-0.14215 3.99341,0.10731 5.94705,0.00511c8.2262,-0.43021 15.67712,-0.47173 23.86189,-0.00273c3.26323,0.18698 6.18417,0.05763 9.30413,0.3292c-2.22969,1.31752 -4.86094,3.02003 -5.6186,4.74178c-0.47521,1.07989 -0.02018,2.62303 -0.02018,3.74708c0,5.44976 4.59933,10.33073 5.08357,15.78418c0.42878,0.99767 1.795,2.19679 1.50985,3.22049c-0.42185,1.5144 -0.97405,3.306 -1.90161,4.74888c-1.58536,2.46609 -5.05612,4.68247 -5.6629,7.34815c-0.79822,3.50668 1.99173,7.52569 4.63239,10.56606c0.68381,1.58519 0.73865,3.70553 0.38909,5.33595c-0.2573,1.20009 -1.57413,2.46279 -1.53046,3.67694c0.06914,1.92229 2.41921,3.33548 4.58193,4.60454c0.16673,0.09782 2.89849,1.37691 2.62668,1.71414c-0.36176,0.44884 -3.17672,0.15687 -3.68268,0.15687c-3.31914,0 -6.11505,-0.20712 -9.38081,-0.58167c-6.25128,0.00781 -12.72874,-0.69894 -19.05489,-0.29382c-2.70163,0.173 -5.36831,0.70427 -8.0675,0.88228c-2.5084,0.1654 -5.02683,0.28254 -7.54523,0.36776l0.18113,-0.37456c-0.02439,-1.66883 1.61611,-3.30783 0.95172,-4.98036c-0.13729,-0.3456 -0.87282,-0.55568 -0.95504,-0.90721c-0.15316,-0.65477 1.76708,-0.95069 2.29983,-1.53368c0.76685,-0.83913 0.8847,-2.09449 0.70721,-3.02541c-0.32012,-1.67905 -0.89137,-3.54886 -2.20261,-5.07392c-0.54778,-0.63711 -1.40067,-1.28224 -1.33441,-1.99414c-1.37292,-3.29939 -4.39655,-7.84945 -2.14092,-11.23526c3.38484,-5.08083 11.13775,-8.34204 11.21883,-14.07627c-1.10805,-3.92257 -2.70237,-7.48668 -5.148,-11.20497c-0.58967,-0.89653 -1.85643,-1.59252 -2.5898,-2.45209c-0.3296,-0.38632 -0.1575,-0.82416 -0.5232,-1.19923c-0.75386,-0.77315 -1.88768,-0.65532 -1.80009,-1.53251c0.19078,-1.91076 3.92126,-3.72225 5.3364,-5.36204c0,0 0.66803,-0.78021 -0.29534,-1.33327z" data-paper-data="{&quot;noHover&quot;:false,&quot;origItem&quot;:[&quot;Path&quot;,{&quot;applyMatrix&quot;:true,&quot;segments&quot;:[[[241.82537,127.18162],[0,0],[-1.40445,2.78557]],[[236.53652,136.28719],[0.18934,-3.24588],[-0.08692,1.49013]],[[238.27692,138.80179],[-0.74817,-1.31338],[0.36294,0.63713]],[[238.84239,140.92765],[-0.32711,-0.65625],[0.72784,1.46018]],[[241.41229,145.0933],[-0.58522,-1.52296],[2.42717,6.31637]],[[246.5297,164.12223],[-1.09969,-6.66341],[-0.08048,9.74094]],[[235.41229,187.98108],[3.3593,-8.631],[-2.23859,5.75159]],[[237.52153,207.04282],[-1.36256,-5.6048],[-0.06576,1.20935]],[[238.84239,210.42765],[-0.54364,-1.08227],[1.30134,2.59068]],[[241.02153,219.04282],[-0.31771,-2.85228],[0.17615,1.58137]],[[240.27692,224.27259],[0.76106,-1.42547],[-0.52873,0.99032]],[[238.03652,226.78719],[-0.152,-1.11229],[0.0816,0.59713]],[[238.98302,228.32768],[-0.13625,-0.58708],[0.65937,2.84119]],[[238.03652,236.78719],[-0.0242,-2.8349],[0,0]],[[237.85671,237.42345],[0,0],[2.4994,-0.14476]],[[245.33944,236.79692],[-2.48947,0.28099],[2.67882,-0.30237]],[[253.33944,235.29692],[-2.68124,0.29389],[6.27839,-0.68818]],[[272.23359,235.79692],[-6.2041,0.01328],[3.24111,0.63629]],[[281.53652,236.78719],[-3.29409,0],[0.50214,0]],[[285.18876,236.52182],[-0.35903,0.76247],[0.26976,-0.57288]],[[282.6223,233.7014],[0.16547,0.16619],[-2.14638,-2.15582]],[[278.03652,225.78719],[0.06862,3.26547],[-0.04334,-2.06252]],[[279.5515,219.54282],[-0.25536,2.03864],[0.34693,-2.76966]],[[279.16075,210.48108],[0.67865,2.69283],[-2.62072,-5.1648]],[[274.5515,192.54282],[-0.7922,5.95691],[0.60221,-4.52828]],[[280.16075,180.0933],[-1.57339,4.18923],[0.92056,-2.45105]],[[282.0515,172.04282],[-0.41866,2.57257],[0.28301,-1.739]],[[280.55837,166.58201],[0.42554,1.69477],[-0.48059,-9.26396]],[[275.53652,139.78719],[0,9.25772],[0,-1.90948]],[[275.59002,133.32768],[-0.47162,1.83443],[0.75194,-2.92478]],[[281.13267,125.36684],[-2.21286,2.23811],[-3.09641,-0.46132]],[[271.90615,124.8098],[3.2386,0.31764],[-8.12301,-0.79671]],[[248.245,124.8145],[8.16412,-0.73082],[-1.9389,0.17356]],[[242.34759,124.80455],[1.92784,-0.24148],[-0.27603,0.03458]],[[241.53191,124.91686],[0.26808,-0.03997],[0.95609,0.9395]]],&quot;closed&quot;:true}]}" fill="url(#color-1)"/><path d="M235.26064,225.05346c-3.13846,0.06561 -6.29442,0.09358 -9.45423,0.10935c-7.30347,-1.06673 -15.37997,-1.79339 -22.93787,-1.77577c-2.09603,0.00489 -3.93667,-0.29098 -6.05058,-0.29535c-0.67173,-0.00138 -1.35269,-0.05972 -2.0167,-0.00038c-0.29153,0.02606 -0.57819,0.37735 -0.77545,0.24925c-0.25312,-0.16439 0.24513,-0.44455 0.14578,-0.6579c-0.61129,-1.31278 -1.95529,-2.26361 0.18044,-3.28803c2.52136,-1.96406 6.54817,-3.38093 5.45229,-6.2272c-0.89385,-2.32155 -2.95262,-4.72954 -4.74377,-6.81665c-0.34735,-0.40474 -1.18377,-0.64413 -1.43034,-1.07337c-1.4368,-2.50102 -0.89856,-5.75549 -0.62402,-8.32169c0.0851,-0.79551 0.2645,-1.59378 0.25253,-2.3908c-0.00314,-0.20969 -0.52456,-0.44216 -0.29955,-0.60553c0.89001,-0.64631 4.03509,-0.93204 5.02719,-1.44185c0.7376,-0.37903 3.70799,-3.52586 4.09071,-3.9173c2.36967,-2.90007 0.94754,-4.87643 -0.17763,-7.72834c-0.2157,-0.54676 0.09843,-1.13624 -0.11705,-1.68301c-0.16595,-0.42112 -0.8158,-0.73905 -0.99874,-1.15777c-0.19171,-0.43881 0.21037,-0.94254 -0.0978,-1.35809c-0.34309,-0.46264 -1.18658,-0.65924 -1.68161,-1.07225c-1.10189,-0.91929 -2.17485,-1.96338 -3.19575,-2.95557c0.21282,-0.58994 -0.59718,-1.06367 -0.59718,-1.06367c-3.45042,-1.95885 -1.46531,-3.30657 -0.03424,-5.5303c0.68666,-1.06699 1.05251,-1.97731 2.81886,-2.69215c2.50268,-1.01283 5.09585,-1.80238 7.30741,-3.0674l-0.0513,-0.19961c6.45764,0.38258 13.70714,0.09768 20.06986,-0.32585c3.59372,-0.23923 7.09117,-0.07287 10.63624,-0.59066c1.38505,0.00691 2.64782,-0.07961 3.89234,-0.19486c-1.75465,2.02593 -5.81577,3.91548 -5.71579,6.36597c0.0402,0.98525 1.44155,1.78633 2.28057,2.64131c0.32139,0.3275 0.14939,0.76612 0.43905,1.10359c0.68349,0.79625 1.93137,1.42139 2.45277,2.25845c2.21579,3.55725 3.86137,6.86401 4.93599,10.58803c0.10277,5.03897 -8.09432,8.47077 -10.95941,13.05973c-2.41972,3.8756 0.20867,8.55767 1.88454,12.34116c0.0605,0.96304 0.95559,1.85458 1.69062,2.7173c1.13075,1.3272 1.47785,2.89328 1.83243,4.34798c0.49542,2.03261 -2.84549,2.26113 -3.04369,4.27273c-0.05164,0.52415 0.82716,0.94098 1.06162,1.44781c0.57196,1.23643 -1.04953,3.12615 -1.06453,4.43951z" data-paper-data="{&quot;noHover&quot;:false,&quot;origItem&quot;:[&quot;Path&quot;,{&quot;applyMatrix&quot;:true,&quot;segments&quot;:[[[234.03652,236.78719],[0,0],[0.0149,-2.23105]],[[235.09002,229.24669],[0.56764,2.10036],[-0.23269,-0.86099]],[[234.03652,226.78719],[-0.05125,0.89041],[0.1967,-3.41714]],[[237.0515,219.53156],[0.49168,3.45286],[-0.35189,-2.47119]],[[235.23064,212.14673],[1.12222,2.25457],[-0.72948,-1.46554]],[[233.5515,207.53156],[0.06004,1.63595],[-1.66322,-6.42716]],[[231.66075,186.5933],[-2.40146,6.58364],[2.84347,-7.79544]],[[242.54333,164.45215],[0.10199,8.55989],[-1.0665,-6.32614]],[[237.66075,146.48108],[2.19907,6.04282],[-0.51747,-1.42196]],[[235.23064,142.64673],[0.67833,1.35263],[-0.28748,-0.57324]],[[234.79612,140.77259],[0.31897,0.55633],[-0.83269,-1.45236]],[[232.53652,136.28719],[0.03989,1.67366],[-0.09922,-4.16274]],[[238.20772,125.47255],[-1.74141,3.44152],[-1.23511,0.1958]],[[234.34759,125.80455],[1.3746,0.01173],[-3.51832,0.87958]],[[223.8003,126.8098],[3.5666,-0.40637],[-6.31471,0.71948]],[[203.89979,127.36232],[6.40891,0.64989],[0,0]],[[203.95073,127.7014],[0,0],[-2.19486,2.14892]],[[196.70594,132.90967],[2.48379,-1.72053],[-1.75303,1.21434]],[[193.91229,137.48108],[0.68148,-1.81256],[-1.42027,3.77754]],[[193.95073,146.87298],[-3.42438,-3.32756],[0,0]],[[194.54393,148.67952],[0.21121,-1.00214],[1.0132,1.68546]],[[197.659,153.61777],[-1.09357,-1.56164],[0.49128,0.70157]],[[199.38428,155.52182],[-0.3405,-0.78589],[0.30585,0.70592]],[[199.48302,157.82768],[-0.19027,-0.74542],[0.18156,0.71129]],[[200.47476,159.79402],[-0.1647,-0.71538],[0.21384,0.92884]],[[200.59345,162.65098],[-0.21408,-0.92879],[1.11669,4.84465]],[[200.78406,175.7586],[2.35179,-4.92647],[-0.37983,0.66495]],[[196.72718,182.39415],[0.73203,-0.64387],[-0.98461,0.86602]],[[191.73756,184.83906],[0.8833,-1.09791],[-0.2233,0.27756]],[[192.03455,185.86566],[-0.00312,-0.35622],[0.01188,1.35392]],[[191.78214,189.91974],[0.08446,-1.35134],[-0.27246,4.3593]],[[192.39092,204.03806],[-1.42595,-4.24859],[0.24473,0.72916]],[[193.80808,205.85898],[-0.34473,-0.68755],[1.77764,3.54542]],[[198.50442,217.43034],[-0.88711,-3.94372],[1.08761,4.83509]],[[193.04742,228.09759],[2.50233,-3.33644],[-2.1196,1.74023]],[[192.91229,233.5933],[-0.60668,-2.23008],[0.0986,0.36244]],[[192.76734,234.71078],[-0.25121,-0.27925],[0.19576,0.2176]],[[193.53652,234.28719],[-0.28933,0.04426],[0.659,-0.1008]],[[195.53652,234.28719],[-0.66666,-0.00235],[2.09795,0.00741]],[[201.53652,234.78719],[-2.08021,0.0083],[7.50086,-0.02993]],[[224.28088,237.80217],[-7.24835,-1.81209],[3.13597,-0.02677]],[[233.65594,237.61809],[-3.11478,0.11146],[0,0]]],&quot;closed&quot;:true}]}" fill="url(#color-2)"/><path d="M184.20645,182.13063c2.5,0 2.5,1.93436 2.5,1.93436l-0.73223,0.17968c0.78629,0.63277 1.76391,1.15092 2.35886,1.89833c0.76968,0.96691 0.41036,2.81068 1.83008,3.09856c0.75936,0.15397 1.57188,-0.21995 2.34875,-0.13275c1.60166,0.17978 3.21121,0.44444 4.70593,0.92461c1.13919,0.36596 1.98355,1.1523 3.08699,1.57882c3.50633,1.35533 7.14725,2.67816 10.8301,3.81037c0,0 2.32119,0.71841 1.39272,2.51441c-0.92848,1.796 -3.24967,1.07761 -3.24967,1.07761c-4.96487,-1.54598 -9.28748,-3.79065 -14.08291,-5.44322c-2.13564,-0.73597 -4.82484,0.00612 -6.94532,-0.75563c-3.69992,-1.32914 -3.22268,-3.9482 -5.81106,-5.83552l-0.73223,-2.91529c0,0 0,-1.93436 2.5,-1.93436z" fill="#ff6464"/><path d="M284.99702,204.46992c-2.37171,0.6117 -3.16228,-1.22339 -3.16228,-1.22339l-1.09601,-2.62307c-0.00968,-0.78857 -0.12767,-5.09138 0.15802,-5.69255c0.32537,-0.68467 1.61484,-0.88164 2,-1.54748c0.27945,-0.4831 -0.16451,-1.05208 -0.1903,-1.58098c-0.06343,-1.30074 0.86955,-2.71137 0.1903,-3.90221c-0.32963,-0.57791 -1.39341,-0.73074 -1.81693,-1.27078c-0.54682,-0.69727 -0.48417,-1.60997 -1,-2.32123c-0.58077,-0.80081 -3.72762,-2.22687 -4.26012,-2.50244c-2.81607,-1.45734 -5.20343,-2.04394 -8.40382,-2.86937c0,0 -2.37171,-0.6117 -1.58114,-2.44679c0.79057,-1.83509 3.16228,-1.22339 3.16228,-1.22339c5.24691,1.35325 12.17969,3.13337 15.33606,7.00808c0.56206,0.68998 0.4616,1.62005 1,2.32123c0.54706,0.71246 1.80624,1.04847 2.18307,1.82419c0.66074,1.36015 0.64765,7.08135 0,8.44418c-0.32537,0.68467 -1.61484,0.88164 -2,1.54748c-0.63261,1.0936 0.17725,2.39431 0.15802,3.59237l0.90399,2.01939c0,0 0.79057,1.83509 -1.58114,2.44679z" fill="#ff6464"/><path d="M253.43868,207.45697c1.76777,-1.3678 3.53553,0 3.53553,0l1.31236,1.06856c1.74118,2.03679 3.57443,3.34833 5.68764,5.12139c0.42514,0.35671 0.59723,0.96743 1.18894,1.12817c0.81959,0.22264 1.75367,-0.23975 2.60281,-0.09817c2.55187,0.42545 4.73019,1.73424 7.20965,2.36599c2.31207,0.58911 4.71167,0.95833 7.0214,1.55293c0,0 2.37171,0.6117 1.58114,2.44679c-0.79057,1.83509 -3.16228,1.22339 -3.16228,1.22339c-2.2946,-0.593 -4.68246,-0.95264 -6.9786,-1.54205c-2.3413,-0.601 -4.3768,-1.88208 -6.79035,-2.27647c-1.10873,-0.18117 -2.35612,0.2481 -3.39719,-0.09817c-1.16061,-0.38604 -1.89244,-1.29579 -2.81106,-1.9668c-2.47235,-1.80595 -4.41222,-3.52071 -6.31236,-5.71101l-0.68764,-0.47893c0,0 -1.76777,-1.3678 0,-2.73559z" fill="#ff6464"/><path d="M257.70645,146.92531c0,1.93436 -2.5,1.93436 -2.5,1.93436h-2c-4.70537,-0.10038 -8.56965,2.46371 -12.73778,3.88681c-2.94172,1.00438 -6.21893,1.47229 -8.9479,2.78798c-8.02844,3.87067 -15.32749,8.4222 -22.75259,13.01865c0,0 -1.95217,1.20839 -3.51391,-0.30209c-1.56174,-1.51048 0.39043,-2.71887 0.39043,-2.71887c7.56961,-4.68519 15.02136,-9.38446 23.24741,-13.28861c2.92495,-1.38821 6.38403,-1.95218 9.52311,-3.02446c5.06062,-1.72866 9.05947,-4.14515 14.79122,-4.22812h2c0,0 2.5,0 2.5,1.93436z" fill="#ff6464"/><path d="M299.20645,170.52448c-2.5,0 -2.5,-1.93436 -2.5,-1.93436l0.12829,-0.16205c-0.20502,-0.58626 -0.11265,-1.29214 -0.61506,-1.75879c-0.64924,-0.60302 -1.79829,-0.7431 -2.59821,-1.22571c-1.6021,-0.96658 -3.04551,-2.25147 -4.98941,-2.70828c-3.3445,-0.78593 -7.78432,2.0201 -11.02516,2.348c-1.684,0.17039 -3.40633,-0.12955 -5.095,0.01048c-3.16239,0.26225 -6.5133,1.4623 -9.51489,2.23646c0,0 -2.37171,0.6117 -3.16228,-1.22339c-0.79057,-1.83509 1.58114,-2.44679 1.58114,-2.44679c3.35255,-0.86467 6.96021,-2.09291 10.48511,-2.406c1.62434,-0.14428 3.28135,0.15934 4.905,0.01048c3.05932,-0.28048 5.93183,-1.9791 9,-2.32123c4.8295,-0.53853 7.55238,1.33982 10.98543,3.50843c1.07735,0.68055 2.54693,1.02043 3.40179,1.86926c0.81462,0.80886 0.92329,1.92245 1.38494,2.88367l0.12829,1.38544c0,0 0,1.93436 -2.5,1.93436z" fill="#ff6464"/><path d="M235.08842,231.44597c-2.23607,-0.86507 -1.11803,-2.59521 -1.11803,-2.59521l0.73607,-0.68242c0.06343,-0.78491 0.31514,-1.57424 0.1903,-2.35473c-0.12811,-0.80096 -2.06092,-0.25023 -3.09076,-0.37836c-3.33278,-0.41462 -7.91087,-1.59594 -9.72617,-3.9874c-2.71786,-3.58049 -0.04277,-4.9213 0.65891,-8.29049c0.34382,-1.65087 0.4312,-3.35323 1.09601,-4.9443c0,0 0.79057,-1.83509 3.16228,-1.22339c2.37171,0.6117 1.58114,2.44679 1.58114,2.44679c-0.61992,1.38482 -0.5838,2.89617 -0.90399,4.34061c-0.40903,1.8452 -2.82684,3.81628 -1.34109,5.63689c3.07024,3.76223 10.58656,0.2076 13.18307,4.91917c0.64854,1.17682 0.12687,2.55681 0.1903,3.83522l-1.26393,2.41255c0,0 -1.11803,1.73015 -3.3541,0.86507z" fill="#ff6464"/></g></g></svg>