<svg version="1.1" xmlns="http://www.w3.org/2000/svg" xmlns:xlink="http://www.w3.org/1999/xlink" width="234.97859" height="230.54175" viewBox="0,0,234.97859,230.54175"><defs><radialGradient cx="235.77391" cy="179.64328" r="114.22222" gradientUnits="userSpaceOnUse" id="color-1"><stop offset="0" stop-color="#ffb500"/><stop offset="1" stop-color="#b78300"/></radialGradient><radialGradient cx="199.69927" cy="247.6653" r="36.74269" gradientUnits="userSpaceOnUse" id="color-2"><stop offset="0" stop-color="#000000"/><stop offset="1" stop-color="#342500"/></radialGradient><radialGradient cx="246.15154" cy="162.66752" r="36.74269" gradientUnits="userSpaceOnUse" id="color-3"><stop offset="0" stop-color="#000000"/><stop offset="1" stop-color="#342500"/></radialGradient><radialGradient cx="280.74367" cy="249.642" r="36.74269" gradientUnits="userSpaceOnUse" id="color-4"><stop offset="0" stop-color="#000000"/><stop offset="1" stop-color="#342500"/></radialGradient></defs><g transform="translate(-122.42956,-63.53407)"><g data-paper-data="{&quot;isPaintingLayer&quot;:true}" fill-rule="nonzero" stroke="#000000" stroke-width="4" stroke-linecap="butt" stroke-linejoin="miter" stroke-miterlimit="10" stroke-dasharray="" stroke-dashoffset="0" style="mix-blend-mode: normal"><g><path d="M125.77778,292.06549l120.24835,-224.13097l108.19609,223.4267z" fill="url(#color-1)"/><path d="M235.77391,247.6653c0,20.29243 -16.15116,36.74269 -36.07464,36.74269c-19.92348,0 -36.07464,-16.45026 -36.07464,-36.74269c0,-20.29243 16.15116,-36.74269 36.07464,-36.74269c19.92348,0 36.07464,16.45026 36.07464,36.74269z" fill="url(#color-2)"/><path d="M282.22619,162.66752c0,20.29243 -16.15116,36.74269 -36.07464,36.74269c-19.92348,0 -36.07464,-16.45026 -36.07464,-36.74269c0,-20.29243 16.15116,-36.74269 36.07464,-36.74269c19.92348,0 36.07464,16.45026 36.07464,36.74269z" fill="url(#color-3)"/><path d="M316.81831,249.642c0,20.29243 -16.15116,36.74269 -36.07464,36.74269c-19.92348,0 -36.07464,-16.45026 -36.07464,-36.74269c0,-20.29243 16.15116,-36.74269 36.07464,-36.74269c19.92348,0 36.07464,16.45026 36.07464,36.74269z" fill="url(#color-4)"/></g></g></g></svg>