<svg version="1.1" xmlns="http://www.w3.org/2000/svg" xmlns:xlink="http://www.w3.org/1999/xlink" width="151.361" height="103.29464" viewBox="0,0,151.361,103.29464"><defs><radialGradient cx="237.38336" cy="215.14133" r="70.72222" gradientUnits="userSpaceOnUse" id="color-1"><stop offset="0" stop-color="#ff0000"/><stop offset="1" stop-color="#b78300"/></radialGradient><radialGradient cx="212.36204" cy="234.10239" r="22.74973" gradientUnits="userSpaceOnUse" id="color-2"><stop offset="0" stop-color="#ff0000"/><stop offset="1" stop-color="#b50404"/></radialGradient><radialGradient cx="243.36204" cy="209.50345" r="22.74973" gradientUnits="userSpaceOnUse" id="color-3"><stop offset="0" stop-color="#ff0000"/><stop offset="1" stop-color="#b50404"/></radialGradient><radialGradient cx="270.36204" cy="237.30025" r="22.74973" gradientUnits="userSpaceOnUse" id="color-4"><stop offset="0" stop-color="#ff0000"/><stop offset="1" stop-color="#b50404"/></radialGradient><radialGradient cx="226.86204" cy="190.81953" r="46.75" gradientUnits="userSpaceOnUse" id="color-5"><stop offset="0" stop-color="#ff0000"/><stop offset="1" stop-color="#b78300"/></radialGradient><radialGradient cx="263.36204" cy="193.81953" r="45.75" gradientUnits="userSpaceOnUse" id="color-6"><stop offset="0" stop-color="#ff0000"/><stop offset="1" stop-color="#b78300"/></radialGradient></defs><g transform="translate(-164.12903,-152.5891)"><g data-paper-data="{&quot;isPaintingLayer&quot;:true}" fill-rule="nonzero" stroke="#000000" stroke-width="4" stroke-linecap="butt" stroke-linejoin="miter" stroke-miterlimit="10" stroke-dasharray="" stroke-dashoffset="0" style="mix-blend-mode: normal"><path d="M169.27778,249.38685l74.45338,-68.2737l66.99106,68.05917z" fill="url(#color-1)"/><path d="M237.38336,235.86187c0,6.18138 -10.00021,11.19238 -22.3361,11.19238c-12.33589,0 -22.3361,-5.011 -22.3361,-11.19238c0,-6.18138 10.00021,-11.19238 22.3361,-11.19238c12.33589,0 22.3361,5.011 22.3361,11.19238z" fill="url(#color-2)"/><path d="M266.14491,209.97026c0,6.18138 -10.00021,11.19238 -22.3361,11.19238c-12.33589,0 -22.3361,-5.011 -22.3361,-11.19238c0,-6.18138 10.00021,-11.19238 22.3361,-11.19238c12.33589,0 22.3361,5.011 22.3361,11.19238z" fill="url(#color-3)"/><path d="M287.56309,236.46401c0,6.18138 -10.00021,11.19238 -22.3361,11.19238c-12.33589,0 -22.3361,-5.011 -22.3361,-11.19238c0,-6.18138 10.00021,-11.19238 22.3361,-11.19238c12.33589,0 22.3361,5.011 22.3361,11.19238z" fill="url(#color-4)"/><path d="M174.86204,209.81954l68,-53l-1,24.5l-74.5,69z" fill="url(#color-5)"/><path d="M312.86204,248.31954l-71,-67l1.5,-24.5l65,52.5z" data-paper-data="{&quot;index&quot;:null}" fill="url(#color-6)"/></g></g></svg>