<svg version="1.1" xmlns="http://www.w3.org/2000/svg" xmlns:xlink="http://www.w3.org/1999/xlink" width="102.61337" height="122.48367" viewBox="0,0,102.61337,122.48367"><defs><radialGradient cx="259.30843" cy="180.29089" r="57.0707" gradientUnits="userSpaceOnUse" id="color-1"><stop offset="0" stop-color="#c4ff00"/><stop offset="1" stop-color="#759900"/></radialGradient><radialGradient cx="214.97384" cy="173.74146" r="56.64045" gradientUnits="userSpaceOnUse" id="color-2"><stop offset="0" stop-color="#ff0000"/><stop offset="1" stop-color="#990000"/></radialGradient></defs><g transform="translate(-188.69331,-118.75817)"><g data-paper-data="{&quot;isPaintingLayer&quot;:true}" fill-rule="nonzero" stroke="none" stroke-width="0.5" stroke-linecap="butt" stroke-linejoin="miter" stroke-miterlimit="10" stroke-dasharray="" stroke-dashoffset="0" style="mix-blend-mode: normal"><path d="M235.62973,236.21293c0.01501,-2.24802 1.63347,-5.48151 1.06151,-7.59783c-0.23446,-0.86754 -1.11316,-1.58103 -1.06151,-2.47821c0.19819,-3.44313 3.53334,-3.83169 3.0379,-7.3108c-0.35457,-2.48998 -0.70395,-5.16926 -1.83471,-7.44098c-0.73503,-1.47668 -1.63141,-3.00189 -1.69191,-4.65027c-1.67587,-6.47604 -4.32485,-14.46378 -1.90513,-21.09748c2.86509,-7.85472 11.0681,-13.68453 10.96533,-22.30952c-1.07461,-6.37424 -2.70393,-12.01895 -4.91971,-18.10773c-0.52141,-1.43277 -1.76509,-2.50059 -2.44859,-3.86351c-0.28967,-0.5776 -0.11644,-1.32783 -0.43783,-1.8884c-0.83903,-1.4634 -2.23659,-2.83312 -2.27678,-4.51951c-0.09997,-4.19439 3.95967,-7.42918 5.71433,-10.89687c-1.2445,0.19729 -2.50443,0.34634 -3.88949,0.33452c-3.54508,0.88627 -7.03377,0.60343 -10.62749,1.0129c-6.36273,0.72495 -13.59418,1.21156 -20.05184,0.55672l0.05133,0.34166c-2.21155,2.16526 -4.79722,3.51426 -7.29988,5.24787c-1.76636,1.22358 -2.12823,2.77983 -2.8149,4.60617c-1.43107,3.80626 -3.41168,6.11046 0.03874,9.46331c0,0 0.81052,0.81052 0.59771,1.82029c1.02091,1.69828 2.03688,3.40229 3.13877,4.9758c0.49502,0.7069 1.39531,1.12667 1.73839,1.91853c0.30817,0.71129 -0.09223,1.57231 0.09949,2.32339c0.18294,0.7167 0.83334,1.26048 0.99929,1.98129c0.21546,0.93591 -0.09612,1.94283 0.11959,2.87867c1.12518,4.88149 2.56173,8.24337 0.19206,13.2073c-0.38271,0.67 -3.35013,6.03724 -4.08773,6.68601c-0.9921,0.87261 -4.13755,1.35724 -5.02755,2.4635c-0.225,0.27967 0.2961,0.67548 0.29925,1.03441c0.01197,1.36422 -0.16924,2.72329 -0.25434,4.08491c-0.27453,4.39245 -0.82338,9.94479 0.61341,14.22568c0.24659,0.73471 1.08058,1.14199 1.42794,1.83477c1.79116,3.57238 3.83821,7.68565 4.73206,11.65935c1.09588,4.87186 -2.97714,7.38655 -5.49849,10.74836c-2.13572,1.75346 -0.74746,3.29045 -0.13617,5.53749c0.09935,0.3652 -0.39917,0.84462 -0.14605,1.12597c0.19725,0.21925 0.48349,-0.38221 0.77503,-0.42681c0.66401,-0.10157 1.34348,-0.00236 2.01521,0c2.11391,0.00747 3.94959,0.51217 6.04563,0.5038c7.5579,-0.03016 15.61385,1.21205 22.91733,3.0379c3.15981,-0.02698 6.30787,-0.07318 9.44634,-0.18549zM243.47781,125.77388c-1.41513,2.80675 -5.1383,5.90425 -5.32907,9.17481c-0.08758,1.50146 0.99977,1.21036 1.75364,2.53372c0.3657,0.64198 0.24018,1.48077 0.56978,2.14202c0.73337,1.47128 1.99976,2.66278 2.58943,4.19733c2.44563,6.3644 4.04828,12.45955 5.15634,19.17363c-0.08109,9.81501 -7.81712,15.34365 -11.20196,24.04028c-2.25561,5.79533 0.75236,13.55927 2.12529,19.20669c-0.06626,1.21854 0.78313,2.32006 1.3309,3.41056c1.31124,2.61038 1.87557,5.80672 2.19571,8.6807c0.17749,1.59339 0.01657,3.83323 -0.75028,5.26953c-0.53275,0.99785 -2.41059,1.41297 -2.25743,2.53372c0.08222,0.60167 0.81641,0.96067 0.9537,1.5522c0.66439,2.8628 -0.97807,5.66738 -0.9537,8.52384l-0.18118,0.6411c2.5184,-0.14586 5.03124,-0.34817 7.53963,-0.6313c2.69919,-0.30467 5.35921,-1.21528 8.06083,-1.51141c6.32613,-0.69342 12.78655,0.51718 19.03783,0.5038c3.26576,0.64113 6.05452,0.9978 9.37366,0.9978c0.50596,0 3.31826,0.50089 3.68001,-0.26738c0.27181,-0.57724 -2.41925,-2.67442 -2.58596,-2.84186c-2.1627,-2.17221 -4.55151,-4.68409 -4.62066,-7.97439c-0.04367,-2.07821 1.2692,-4.23771 1.5265,-6.29185c0.34957,-2.79072 0.29009,-6.41734 -0.39372,-9.13065c-2.64065,-5.20408 -5.44252,-12.07246 -4.6443,-18.07467c0.60679,-4.56272 4.06655,-8.32312 5.6519,-12.5442c0.92756,-2.46969 1.48329,-5.51956 1.90513,-8.11169c0.28516,-1.75222 -1.07572,-3.79467 -1.5045,-5.50233c-0.48425,-9.33441 -5.06004,-17.67047 -5.06004,-26.99859c0,-1.924 -0.4213,-4.66025 0.05391,-6.50863c0.75766,-2.94702 3.35511,-5.76626 5.5848,-8.02139c-3.11996,-0.46483 -6.03345,-0.24121 -9.29668,-0.56128c-8.18478,-0.80277 -15.61488,-0.73164 -23.84108,0.00474c-1.95364,0.17488 -3.99976,-0.25335 -5.94225,-0.01002c-0.27813,0.03485 -0.55176,0.0729 -0.82188,0.11317c0.96336,0.94664 0.29569,2.28198 0.29569,2.28198zM189.33384,139.01991c0.30546,-1.23444 1.61887,-3.01636 2.08648,-4.26659c0.96876,-2.59022 1.85471,-4.73258 4.23834,-6.47748c1.74954,-1.28072 3.69155,-2.2558 5.39758,-3.57882c0.27311,-1.09237 0.42614,-2.37334 0.66184,-3.17755c0.03064,-0.10456 0.06134,-0.20863 0.09202,-0.31227c1.10668,0.28331 2.21963,0.56074 3.40114,0.69031c6.32845,0.69399 13.42716,0.17243 19.70729,-0.50909c3.5719,-0.38763 7.01023,-0.12182 10.53219,-1.00232c2.94057,-0.01964 5.19945,-0.65052 8.06083,-1.0076c2.0226,-0.25241 4.12166,0.17724 6.149,-0.01002c8.42021,-0.77782 16.14509,-0.85055 24.52393,0.00474c4.1244,0.42101 7.76668,0.03139 11.87764,1.05796l0.01504,-0.06016c0,0 2.01521,0 2.01521,2.01521c0,0.72113 -0.25805,1.1842 -0.58946,1.48156c0.29591,1.05831 -0.5718,1.92602 -0.5718,1.92602c-1.75275,1.7462 -4.90491,4.5578 -5.5093,7.09886c-1.24944,5.25314 0.80601,10.8277 2.01521,15.69947c1.26206,5.08475 2.79277,11.05345 3.0547,16.2876c0.33248,1.33867 1.17722,2.51868 1.47952,3.86449c0.72642,3.23397 -0.93793,8.67537 -2.08648,11.74201c-1.42103,3.79419 -4.96845,7.56218 -5.43174,11.6383c-0.61868,5.44326 2.08867,11.45554 4.42414,16.18388c0.83785,3.36864 1.04886,7.53591 0.61388,11.02144c-0.23697,1.89882 -1.41847,3.90612 -1.49631,5.7994c-0.21405,5.20583 9.38821,6.46807 6.89983,12.35864c-1.29896,3.07492 -2.86427,2.67478 -5.38843,2.75542c-4.0918,0.13072 -7.78312,-0.1996 -11.78603,-1.01741c-5.98422,-0.01233 -12.19037,-1.18704 -18.24354,-0.5038c-2.69919,0.30467 -5.35921,1.21528 -8.06083,1.51141c-7.31791,0.80213 -14.68878,1.05185 -22.10829,1.00232c-8.78756,-2.19689 -17.78305,-2.37485 -26.70151,-3.52661c-1.85941,-0.24013 -5.49499,0.75531 -7.03959,-0.41171c-0.83116,-0.62798 -0.73971,-1.94848 -1.15366,-2.90444c-1.57398,-3.63496 -1.88259,-6.5104 0.87144,-9.57657c1.19217,-1.58957 3.3007,-3.07643 4.30298,-4.71054c1.14072,-1.85981 -0.59435,-4.75209 -1.07782,-6.19945c-0.78919,-2.36268 -1.85785,-4.72831 -2.984,-6.98645c-0.40371,-0.80951 -1.30875,-1.33752 -1.59488,-2.19565c-0.81481,-2.44371 -0.96516,-5.07275 -1.14748,-7.64226c-0.28707,-4.04575 0.17969,-8.27141 0.49698,-12.30472c0.07953,-1.011 -0.23234,-2.165 0.30121,-3.02741c0.52646,-0.85094 1.75281,-0.97893 2.55088,-1.58255c0.62557,-0.47315 1.01554,-1.24157 1.69683,-1.63022c0.5344,-0.30485 1.33327,0.02153 1.80839,-0.36935c1.57089,-1.29237 1.92485,-3.58477 2.93438,-5.35078c2.07086,-3.83976 0.27897,-6.74705 -0.59195,-10.51643c-0.20062,-0.86831 0.12737,-1.80417 -0.07287,-2.67258c-0.1713,-0.74289 -0.83521,-1.30846 -1.01592,-2.04913c-0.1351,-0.55373 0.32086,-1.1818 0.09949,-1.70702c-0.2193,-0.5203 -0.95141,-0.64832 -1.28442,-1.10429c-1.67885,-2.29867 -3.12447,-4.97947 -4.67181,-7.46217c0.06954,-0.05154 0.13754,-0.10242 0.20388,-0.15254c-1.79865,-2.31338 -2.68079,-4.99461 -1.90417,-8.13306z" fill="#000000"/><path d="M243.16639,123.44404c0.27012,-0.04027 0.54442,-0.07854 0.82254,-0.11338c1.9425,-0.24332 3.99341,0.18367 5.94705,0.00877c8.2262,-0.73638 15.67712,-0.80745 23.86189,-0.00467c3.26323,0.32005 6.18417,0.09865 9.30413,0.56348c-2.22969,2.25513 -4.86094,5.16925 -5.6186,8.11628c-0.47521,1.84838 -0.02018,4.48971 -0.02018,6.41371c0,9.32812 4.59933,17.68264 5.08357,27.01705c0.42878,1.70766 1.795,3.76014 1.50985,5.51236c-0.42185,2.59213 -0.97405,5.65874 -1.90161,8.12844c-1.58536,4.22109 -5.05612,8.01478 -5.6629,12.57749c-0.79822,6.00221 1.99173,12.88138 4.63239,18.08546c0.68381,2.71331 0.73865,6.34259 0.38909,9.13331c-0.2573,2.05414 -1.57413,4.21545 -1.53046,6.29365c0.06914,3.2903 2.41921,5.70917 4.58193,7.88138c0.16673,0.16745 2.89849,2.3568 2.62668,2.93403c-0.36176,0.76827 -3.17672,0.26851 -3.68268,0.26851c-3.31914,0 -6.11505,-0.3545 -9.38081,-0.99563c-6.25128,0.01338 -12.72874,-1.19636 -19.05489,-0.50294c-2.70163,0.29613 -5.36831,1.20548 -8.0675,1.51014c-2.5084,0.28312 -5.02683,0.48362 -7.54523,0.62948l0.18113,-0.64112c-0.02439,-2.85646 1.61611,-5.66186 0.95172,-8.52465c-0.13729,-0.59154 -0.87282,-0.95115 -0.95504,-1.55282c-0.15316,-1.12074 1.76708,-1.62727 2.29983,-2.62512c0.76685,-1.43631 0.8847,-3.58505 0.70721,-5.17846c-0.32012,-2.87397 -0.89137,-6.07443 -2.20261,-8.68481c-0.54778,-1.0905 -1.40067,-2.19475 -1.33441,-3.4133c-1.37292,-5.64742 -4.39655,-13.43556 -2.14092,-19.23088c3.38484,-8.69663 11.13775,-14.27871 11.21883,-24.09373c-1.10805,-6.71408 -2.70237,-12.81464 -5.148,-19.17905c-0.58967,-1.53454 -1.85643,-2.72585 -2.5898,-4.19714c-0.3296,-0.66124 -0.1575,-1.41069 -0.5232,-2.05267c-0.75386,-1.32337 -1.88768,-1.12168 -1.80009,-2.62314c0.19078,-3.27056 3.92126,-6.37119 5.3364,-9.17794c0,0 0.66803,-1.33545 -0.29534,-2.2821z" data-paper-data="{&quot;noHover&quot;:false,&quot;origItem&quot;:[&quot;Path&quot;,{&quot;applyMatrix&quot;:true,&quot;segments&quot;:[[[241.82537,127.18162],[0,0],[-1.40445,2.78557]],[[236.53652,136.28719],[0.18934,-3.24588],[-0.08692,1.49013]],[[238.27692,138.80179],[-0.74817,-1.31338],[0.36294,0.63713]],[[238.84239,140.92765],[-0.32711,-0.65625],[0.72784,1.46018]],[[241.41229,145.0933],[-0.58522,-1.52296],[2.42717,6.31637]],[[246.5297,164.12223],[-1.09969,-6.66341],[-0.08048,9.74094]],[[235.41229,187.98108],[3.3593,-8.631],[-2.23859,5.75159]],[[237.52153,207.04282],[-1.36256,-5.6048],[-0.06576,1.20935]],[[238.84239,210.42765],[-0.54364,-1.08227],[1.30134,2.59068]],[[241.02153,219.04282],[-0.31771,-2.85228],[0.17615,1.58137]],[[240.27692,224.27259],[0.76106,-1.42547],[-0.52873,0.99032]],[[238.03652,226.78719],[-0.152,-1.11229],[0.0816,0.59713]],[[238.98302,228.32768],[-0.13625,-0.58708],[0.65937,2.84119]],[[238.03652,236.78719],[-0.0242,-2.8349],[0,0]],[[237.85671,237.42345],[0,0],[2.4994,-0.14476]],[[245.33944,236.79692],[-2.48947,0.28099],[2.67882,-0.30237]],[[253.33944,235.29692],[-2.68124,0.29389],[6.27839,-0.68818]],[[272.23359,235.79692],[-6.2041,0.01328],[3.24111,0.63629]],[[281.53652,236.78719],[-3.29409,0],[0.50214,0]],[[285.18876,236.52182],[-0.35903,0.76247],[0.26976,-0.57288]],[[282.6223,233.7014],[0.16547,0.16619],[-2.14638,-2.15582]],[[278.03652,225.78719],[0.06862,3.26547],[-0.04334,-2.06252]],[[279.5515,219.54282],[-0.25536,2.03864],[0.34693,-2.76966]],[[279.16075,210.48108],[0.67865,2.69283],[-2.62072,-5.1648]],[[274.5515,192.54282],[-0.7922,5.95691],[0.60221,-4.52828]],[[280.16075,180.0933],[-1.57339,4.18923],[0.92056,-2.45105]],[[282.0515,172.04282],[-0.41866,2.57257],[0.28301,-1.739]],[[280.55837,166.58201],[0.42554,1.69477],[-0.48059,-9.26396]],[[275.53652,139.78719],[0,9.25772],[0,-1.90948]],[[275.59002,133.32768],[-0.47162,1.83443],[0.75194,-2.92478]],[[281.13267,125.36684],[-2.21286,2.23811],[-3.09641,-0.46132]],[[271.90615,124.8098],[3.2386,0.31764],[-8.12301,-0.79671]],[[248.245,124.8145],[8.16412,-0.73082],[-1.9389,0.17356]],[[242.34759,124.80455],[1.92784,-0.24148],[-0.27603,0.03458]],[[241.53191,124.91686],[0.26808,-0.03997],[0.95609,0.9395]]],&quot;closed&quot;:true}]}" fill="url(#color-1)"/><path d="M235.26062,237.09843c-3.13846,0.11231 -6.29442,0.16019 -9.45423,0.18716c-7.30347,-1.82587 -15.37997,-3.06966 -22.93787,-3.0395c-2.09603,0.00836 -3.93667,-0.49806 -6.05058,-0.50553c-0.67173,-0.00236 -1.35269,-0.1022 -2.0167,-0.00064c-0.29153,0.04459 -0.57819,0.64589 -0.77545,0.42662c-0.25312,-0.28137 0.24513,-0.76091 0.14578,-1.1261c-0.61129,-2.24704 -1.95529,-3.87452 0.18044,-5.62798c2.52136,-3.36181 6.54817,-5.78698 5.45229,-10.65883c-0.89385,-3.97371 -2.95262,-8.09535 -4.74377,-11.66773c-0.34735,-0.69278 -1.18377,-1.10254 -1.43034,-1.83723c-1.4368,-4.2809 -0.89856,-9.85143 -0.62402,-14.24388c0.0851,-1.36162 0.2645,-2.72799 0.25253,-4.09221c-0.00314,-0.35893 -0.52456,-0.75682 -0.29955,-1.03648c0.89001,-1.10626 4.03509,-1.59535 5.02719,-2.46796c0.7376,-0.64877 3.70799,-6.03506 4.09071,-6.70506c2.36967,-4.96393 0.94754,-8.34676 -0.17763,-13.22825c-0.2157,-0.93586 0.09843,-1.94483 -0.11705,-2.88074c-0.16595,-0.72082 -0.8158,-1.265 -0.99874,-1.98169c-0.19171,-0.75109 0.21037,-1.6133 -0.0978,-2.32459c-0.34309,-0.79187 -1.18658,-1.1284 -1.68161,-1.8353c-1.10189,-1.57351 -2.17485,-3.36063 -3.19575,-5.0589c0.21282,-1.00976 -0.59718,-1.82064 -0.59718,-1.82064c-3.45042,-3.35286 -1.46531,-5.6597 -0.03424,-9.46597c0.68666,-1.82634 1.05251,-3.38446 2.81886,-4.60804c2.50268,-1.73361 5.09585,-3.08507 7.30741,-5.25034l-0.0513,-0.34167c6.45764,0.65484 13.70714,0.16721 20.06986,-0.55774c3.59372,-0.40946 7.09117,-0.12474 10.63624,-1.01101c1.38505,0.01182 2.64782,-0.13625 3.89234,-0.33354c-1.75465,3.46769 -5.81577,6.70195 -5.71579,10.89635c0.0402,1.68639 1.44155,3.05758 2.28057,4.52098c0.32139,0.56056 0.14939,1.31134 0.43905,1.88895c0.68349,1.36292 1.93137,2.43294 2.45277,3.86571c2.21579,6.08877 3.86137,11.7488 4.93599,18.12305c0.10277,8.62498 -8.09432,14.49905 -10.95941,22.35376c-2.41972,6.6337 0.20867,14.64777 1.88454,21.1238c0.0605,1.64839 0.95559,3.17439 1.69062,4.65107c1.13075,2.27171 1.47785,4.95228 1.83243,7.44226c0.49542,3.47912 -2.84549,3.87029 -3.04369,7.31342c-0.05164,0.89718 0.82716,1.61062 1.06162,2.47817c0.57196,2.11633 -1.04953,5.35087 -1.06453,7.59888z" data-paper-data="{&quot;noHover&quot;:false,&quot;origItem&quot;:[&quot;Path&quot;,{&quot;applyMatrix&quot;:true,&quot;segments&quot;:[[[234.03652,236.78719],[0,0],[0.0149,-2.23105]],[[235.09002,229.24669],[0.56764,2.10036],[-0.23269,-0.86099]],[[234.03652,226.78719],[-0.05125,0.89041],[0.1967,-3.41714]],[[237.0515,219.53156],[0.49168,3.45286],[-0.35189,-2.47119]],[[235.23064,212.14673],[1.12222,2.25457],[-0.72948,-1.46554]],[[233.5515,207.53156],[0.06004,1.63595],[-1.66322,-6.42716]],[[231.66075,186.5933],[-2.40146,6.58364],[2.84347,-7.79544]],[[242.54333,164.45215],[0.10199,8.55989],[-1.0665,-6.32614]],[[237.66075,146.48108],[2.19907,6.04282],[-0.51747,-1.42196]],[[235.23064,142.64673],[0.67833,1.35263],[-0.28748,-0.57324]],[[234.79612,140.77259],[0.31897,0.55633],[-0.83269,-1.45236]],[[232.53652,136.28719],[0.03989,1.67366],[-0.09922,-4.16274]],[[238.20772,125.47255],[-1.74141,3.44152],[-1.23511,0.1958]],[[234.34759,125.80455],[1.3746,0.01173],[-3.51832,0.87958]],[[223.8003,126.8098],[3.5666,-0.40637],[-6.31471,0.71948]],[[203.89979,127.36232],[6.40891,0.64989],[0,0]],[[203.95073,127.7014],[0,0],[-2.19486,2.14892]],[[196.70594,132.90967],[2.48379,-1.72053],[-1.75303,1.21434]],[[193.91229,137.48108],[0.68148,-1.81256],[-1.42027,3.77754]],[[193.95073,146.87298],[-3.42438,-3.32756],[0,0]],[[194.54393,148.67952],[0.21121,-1.00214],[1.0132,1.68546]],[[197.659,153.61777],[-1.09357,-1.56164],[0.49128,0.70157]],[[199.38428,155.52182],[-0.3405,-0.78589],[0.30585,0.70592]],[[199.48302,157.82768],[-0.19027,-0.74542],[0.18156,0.71129]],[[200.47476,159.79402],[-0.1647,-0.71538],[0.21384,0.92884]],[[200.59345,162.65098],[-0.21408,-0.92879],[1.11669,4.84465]],[[200.78406,175.7586],[2.35179,-4.92647],[-0.37983,0.66495]],[[196.72718,182.39415],[0.73203,-0.64387],[-0.98461,0.86602]],[[191.73756,184.83906],[0.8833,-1.09791],[-0.2233,0.27756]],[[192.03455,185.86566],[-0.00312,-0.35622],[0.01188,1.35392]],[[191.78214,189.91974],[0.08446,-1.35134],[-0.27246,4.3593]],[[192.39092,204.03806],[-1.42595,-4.24859],[0.24473,0.72916]],[[193.80808,205.85898],[-0.34473,-0.68755],[1.77764,3.54542]],[[198.50442,217.43034],[-0.88711,-3.94372],[1.08761,4.83509]],[[193.04742,228.09759],[2.50233,-3.33644],[-2.1196,1.74023]],[[192.91229,233.5933],[-0.60668,-2.23008],[0.0986,0.36244]],[[192.76734,234.71078],[-0.25121,-0.27925],[0.19576,0.2176]],[[193.53652,234.28719],[-0.28933,0.04426],[0.659,-0.1008]],[[195.53652,234.28719],[-0.66666,-0.00235],[2.09795,0.00741]],[[201.53652,234.78719],[-2.08021,0.0083],[7.50086,-0.02993]],[[224.28088,237.80217],[-7.24835,-1.81209],[3.13597,-0.02677]],[[233.65594,237.61809],[-3.11478,0.11146],[0,0]]],&quot;closed&quot;:true}]}" fill="url(#color-2)"/></g></g></svg>