<svg version="1.1" xmlns="http://www.w3.org/2000/svg" xmlns:xlink="http://www.w3.org/1999/xlink" width="487.98799" height="373.87387" viewBox="0,0,487.98799,373.87387"><g transform="translate(3.65754,7.56571)"><g data-paper-data="{&quot;isPaintingLayer&quot;:true}" fill-rule="nonzero" stroke="none" stroke-linecap="butt" stroke-linejoin="miter" stroke-miterlimit="10" stroke-dasharray="" stroke-dashoffset="0" style="mix-blend-mode: normal"><path d="M-3.65754,366.30816v-373.87387h487.98799v373.87387z" fill="#606060" stroke-width="0"/><g><path d="M279.43326,295.80874c-2.13856,1.00935 -3.99482,-0.84691 -3.99482,-0.84691c-1.86651,-1.97307 -4.72888,-2.67551 -7.04225,-4.09859c-0.91443,-0.5625 -2.36002,-2.11676 -3.74407,-3.60593c-1.25708,-1.23576 -2.42991,-2.41884 -2.9499,-2.94747c-1.6349,-1.27351 -3.77342,-1.97125 -5.07447,-3.58169c-1.09342,-1.35345 -0.8464,-3.4296 -1.74517,-4.91942c-0.75044,-1.24394 -2.36572,-1.81777 -3.08181,-3.08181c-1.03459,-1.82622 -1.65355,-3.89424 -2.03907,-5.95744c-1.14364,-6.12055 -0.74438,-12.23392 4.76636,-16.01807c0.1149,-0.0789 0.23304,-0.15115 0.35397,-0.2177c0.36374,-1.47163 0.78148,-2.83901 1.18352,-3.99456c0.66388,-1.90814 0.82562,-4.11923 2.10312,-5.68438c2.98444,-3.65642 6.90001,-4.49178 10.99248,-5.87032c8.25509,-2.78069 14.58134,-4.35807 23.09655,-1.78778c-0.03685,-0.04526 -0.0739,-0.09124 -0.11116,-0.13795c-3.23861,-4.05922 -5.28924,-8.37877 -9.00357,-12.06025l-3.08181,-3.08181c0,0 -2.58186,-2.58186 0,-5.1637c2.58186,-2.58186 5.1637,0 5.1637,0l2.5394,2.5394c-2.24189,-4.99358 -3.99319,-10.22995 -6.8146,-15.21288c-4.05434,-7.16042 -11.16303,-12.07623 -13.73986,-19.80672l-2.55769,-2.41955c0,0 -2.58186,-2.58186 0,-5.1637c1.20918,-1.20918 2.41835,-1.28575 3.3623,-1.02539c-1.42522,-2.9625 -2.92393,-5.9004 -4.76098,-8.69543c-3.36337,-5.11726 -8.23934,-9.51351 -11.27778,-14.84498c-1.12724,-1.97792 -1.26742,-4.44881 -2.52753,-6.34485c-0.78107,-1.17528 -2.43724,-1.4983 -3.38174,-2.54675c-1.28901,-1.43085 -2.0281,-3.28539 -3.22875,-4.79116c-0.83642,-1.04899 -2.04259,-1.79758 -2.89597,-2.81947c-1.42585,1.29678 -2.72714,2.63768 -3.50156,3.9651c-0.75907,1.30109 -0.69519,2.95902 -1.36687,4.30732c-2.40287,4.82339 -4.96503,9.76489 -7.94647,14.2893l-1.31315,2.68934c0,0 -1.10729,2.21458 -3.32186,2.08463c-4.96074,5.36834 -8.30668,12.19063 -12.29354,18.30715c-2.53227,3.88493 -5.43895,7.51907 -8.17821,11.25646c0.72088,-0.10903 1.57168,0.02928 2.52145,0.66246c3.03807,2.02537 1.01269,5.06344 1.01269,5.06344c-2.91547,4.34488 -6.19026,8.54787 -9.45977,12.61673c-3.61412,4.49772 -8.79422,7.77549 -12.32722,12.32722c-5.1296,6.6087 -9.07627,13.68899 -12.76738,20.9517c0.40109,-0.40033 0.80108,-0.7981 1.19822,-1.19397c7.26334,-7.24046 15.1478,-12.07257 25.6954,-11.85575c2.00837,0.04129 4.18489,-0.53916 6.01999,0.27794c2.68772,1.19673 4.33826,3.36254 5.45982,5.88672c9.7437,1.21388 20.39961,7.04925 24.49277,15.63144c2.99399,2.18108 7.93745,5.85422 8.98962,8.15721c0.83997,1.83856 0.24928,4.03607 0.29348,6.05694c0.18826,8.60915 -3.01937,12.23629 -8.77396,17.99088c-4.59567,4.59567 -8.94699,10.04191 -14.84578,13.02538c-8.93714,4.52019 -18.70831,4.35788 -28.04948,2.19416c-2.02409,2.105 -3.11677,3.69876 -7.51485,6.05868c-2.31461,1.24198 -5.00064,3.68806 -7.41785,2.65992c-2.56803,-1.09228 -3.01279,-4.77614 -3.83054,-7.4443c-1.0548,-3.44153 -0.17504,-7.98937 0.04577,-12.00874c-0.64085,-0.34953 -1.2776,-0.70603 -1.83831,-1.16146c-5.51224,-4.47725 -12.39384,-15.0979 -12.42746,-23.45478c-2.45443,3.64542 -4.93139,7.27425 -7.4153,10.89799c0.34004,0.11103 0.69715,0.28319 1.06946,0.53141c3.03807,2.02537 1.01269,5.06344 1.01269,5.06344c-1.90615,2.82013 -2.80757,6.21837 -4.5548,9.13964c-0.74571,1.24679 -2.33436,1.83606 -3.08181,3.08181c-0.83568,1.39279 -0.69954,3.23335 -1.5409,4.62271c-1.64235,2.71208 -4.58858,4.54484 -5.98957,7.38911c-2.09066,4.24441 -2.07658,10.73161 -5.00102,14.48023c-1.17404,1.50492 -3.12495,2.17436 -4.68819,3.28663c10.9461,-0.30329 22.41382,-1.18742 33.05067,0.11854c2.10199,0.25807 4.06282,1.27328 6.16362,1.5409c3.41912,0.43557 6.89345,-0.02736 10.34019,-0.02736h1.5409c0,0 0.45618,0 1.04607,0.16124c2.21452,-0.10222 4.43295,-0.16504 6.65846,-0.16124c2.20326,0.00375 4.4229,-0.24113 6.60973,0.02736c5.16706,0.63439 5.33932,2.25026 9.89407,1.5409c10.23642,-1.59421 20.79155,-3.10557 30.87792,0.16001l0.38626,-0.18737c0,0 1.98227,0 3.02568,1.46056c15.39871,-0.43738 30.89299,0.08034 46.28321,0.08034h1.5409c0,0 3.65129,0 3.65129,3.65129c0,0.31343 -0.0269,0.59997 -0.07609,0.8619c5.93262,-1.69384 11.96941,-3.1583 17.93146,-4.2108c9.8276,-1.73491 20.92384,-0.30239 30.88403,-0.30239h3.49511c-0.69248,-1.82614 -1.37394,-3.70733 -2.24575,-5.73773c-2.47475,-5.76351 -5.0689,-11.32041 -6.35109,-17.53953c-0.46255,-2.2435 -0.83626,-4.39468 -1.19827,-6.5035c-2.39141,-2.46395 -4.23874,-4.96956 -5.00866,-9.12835c-0.23162,-1.25117 0.56196,-2.58171 0.23079,-3.81029c-0.66984,-2.4849 -5.09321,-1.61834 -6.91301,-3.43815c-1.3374,-1.3374 -0.99606,-3.72466 -2.06503,-5.28497c-1.21785,-1.77765 -3.10513,-2.98863 -4.63958,-4.50145c-1.06447,-1.04947 -2.0273,-2.22345 -3.00012,-3.38346c-0.8111,3.75333 -2.46032,7.17197 -4.58711,10.87981c-3.0154,5.25705 -8.97348,12.56568 -14.95824,15.14148c-0.76144,0.8995 -1.60768,1.75635 -2.56787,2.55763c-1.79714,1.49973 -3.32296,4.15124 -5.66365,4.15124c-1.26227,0 -2.26116,-0.80482 -3.20974,-1.76343zM290.77575,240.3851c-7.50589,-2.33902 -12.14402,-0.83219 -19.30533,1.52719c-1.74936,0.57635 -6.16403,1.64542 -7.49836,3.3751c-0.24823,0.32177 -0.46887,0.68276 -0.66515,1.07459c0.29161,-0.17653 0.59296,-0.33504 0.90901,-0.46646c4.38221,-1.82219 9.99222,-2.59766 15.63459,-2.56312c3.43542,-0.76705 7.41877,-1.65112 10.31781,-0.5674c0.54667,0.20436 1.15704,0.62114 1.79225,1.17491c1.04754,-1.43833 3.00965,-1.43833 3.00965,-1.43833l1.13028,0.35045c-1.32045,-1.78313 -3.08549,-1.76913 -5.32476,-2.46695zM203.63914,286.93128c-1.49544,1.10736 -3.04534,2.19447 -4.61998,3.31225c5.83081,0.64349 11.69961,0.07492 17.30172,-2.68448c5.06052,-2.49264 8.97161,-7.7102 12.89047,-11.62907c4.72009,-4.72009 6.40379,-6.04215 6.63507,-12.82717c0.03637,-1.0667 0.73192,-2.21537 0.29348,-3.18847c-0.18984,-0.42133 -0.42545,-0.80664 -0.69794,-1.16291c-0.01392,0.1043 -0.02879,0.20881 -0.04462,0.31354c-0.62257,4.12085 -1.60555,8.29269 -3.5086,12.00043c-1.91313,3.7274 -7.72796,8.38913 -10.20646,11.88904c-1.28163,0.47419 -9.26338,3.51612 -10.87686,3.78425c-2.36081,0.39232 -4.76247,0.30802 -7.16629,0.19258zM171.12518,256.67897c-0.00225,-1.93034 0.00171,-4.88064 0.05034,-6.75774c-2.34609,3.03607 -4.18108,6.25993 -5.16933,9.39777c-0.79322,2.5186 0.27412,6.08802 2.04097,9.53112c0.00457,-2.14721 0.04087,-4.14917 0.04668,-4.79127c0.6797,-1.98581 0.98347,-4.14328 2.03907,-5.95744c0.29305,-0.50364 0.62741,-0.97491 0.99226,-1.42244zM189.60282,288.27977c0.1281,0.03756 0.25631,0.07478 0.3846,0.11164c0.67209,-0.55062 1.34319,-1.09876 2.01376,-1.64562c-0.10754,-0.00266 -0.21373,-0.00545 -0.31835,-0.00841c-0.12926,0.17278 -0.27948,0.34636 -0.45305,0.51993c-0.55067,0.55067 -1.10133,0.86644 -1.62696,1.02246zM186.04192,287.23318c-1.56496,-1.56147 -3.5995,-3.25398 -5.48905,-5.02477c1.10317,1.21078 1.3495,3.13014 2.60686,4.18803c0.76781,0.64602 1.86125,0.67238 2.88219,0.83673zM179.80019,296.89716c0.7805,-1.19362 2.01192,-2.12086 3.27429,-3.01097c-1.05276,-0.28701 -2.13157,-0.52698 -3.10401,-0.95901c-0.00556,1.73711 -0.01831,3.29024 -0.04563,3.49062c-0.0171,0.12546 -0.06308,0.29394 -0.12466,0.47936zM178.97862,248.97194c0.68168,-0.8136 1.36225,-1.61564 2.04725,-2.40115c-0.75829,0.78233 -1.50689,1.61957 -2.04725,2.40115zM179.981,281.66964c0.01265,0.01066 0.02527,0.02135 0.03786,0.03209c-0.01274,-0.01224 -0.02546,-0.02449 -0.03816,-0.03673c0.0001,0.00155 0.0002,0.0031 0.00031,0.00464zM234.63349,118.57931c-0.24153,-0.277 -0.50689,-0.55082 -0.79943,-0.82131zM234.84236,118.82681c-0.36235,-0.01068 -3.61864,-0.20253 -3.61864,-3.65067c0,-3.65129 3.65129,-3.65129 3.65129,-3.65129l4.12276,1.06943c1.22577,1.28822 2.86533,2.28267 3.67731,3.86468c0.71175,1.38673 1.0144,2.94182 1.2718,4.51271c0.39803,0.18065 0.80626,0.4598 1.21449,0.86803c2.03688,2.03688 0.85989,4.07375 0.27226,4.84289c0.07885,0.14953 0.16266,0.29695 0.25187,0.44208c1.59871,2.60067 3.69498,4.86919 5.73439,7.14079c1.09812,1.22314 2.92241,1.72957 3.84084,3.09284c1.44834,2.14982 1.77584,4.89741 3.05942,7.14948c2.92938,5.13965 7.7937,9.5173 11.03577,14.45c4.62471,7.03635 7.05976,15.12395 11.70243,21.99272c0,0 2.02537,3.03807 -1.01269,5.06344c-0.18568,0.12378 -0.36755,0.22864 -0.54543,0.31645c2.75889,3.33127 5.77217,6.56675 7.9179,10.35992c4.76157,8.41733 6.14251,18.29744 13.21574,25.30808c0,0 2.58186,2.58186 0,5.1637c-1.04535,1.04535 -2.09069,1.24422 -2.96468,1.11068c0.04141,0.05211 0.08297,0.10418 0.12471,0.1562c2.26195,2.81924 5.22255,5.23423 6.67908,8.54225c0.80625,1.83114 0.49238,4.0482 1.37909,5.84176c0.5864,1.18612 2.13829,1.64113 2.86653,2.74585c2.93003,4.44466 3.5594,7.09904 5.12455,11.76663c0,0 0.08775,0.26324 0.1423,0.6688c1.54892,1.67164 3.00718,3.45618 4.59825,5.0675c1.90692,1.9312 4.15392,3.58699 5.68783,5.82596c0.77032,1.12439 0.05302,2.99669 1.01678,3.96046c0.96377,0.96377 2.83523,0.24766 3.96046,1.01678c0.55608,0.3801 1.10986,0.78979 1.6373,1.23259l4.52972,2.25965c1.53236,4.59708 2.68209,9.32678 3.74544,14.08465c0.52046,0.46773 1.03961,0.94157 1.53611,1.43807c0,0 2.58186,2.58186 0,5.1637c-0.02427,0.02427 -0.04855,0.04809 -0.07282,0.07146c1.97786,8.99267 4.14093,17.91195 8.48479,26.05435c2.499,0 4.99801,0 7.49701,0h4.62271c0,0 3.65129,0 3.65129,3.65129c0,3.65129 -3.65129,3.65129 -3.65129,3.65129c-2.17876,0 -5.3844,0 -8.64897,0c-0.09454,0.82418 -0.52438,1.71624 -1.65288,2.46857c-2.10003,1.40002 -3.7162,0.38065 -4.51399,-0.38229c0.41915,2.46124 -2.04208,3.69185 -2.04208,3.69185l-4.71471,1.92638c-8.21814,0 -16.4363,0 -24.65444,0c-0.73308,0 -9.45155,0.01487 -9.85039,-0.05046c-1.53776,-0.25192 -2.87198,-1.3304 -4.41745,-1.52967c-5.79763,-0.74755 -11.64293,-0.11309 -17.48567,0.56131c-0.8484,0.27374 -1.6928,0.55107 -2.53261,0.83146c0,0 -1.61419,0.53807 -3.00605,-0.22233c-2.46924,0.23926 -4.93516,0.40972 -7.394,0.40972c0,0 -3.65129,0 -3.65129,-3.65129c0,-3.65129 3.65129,-3.65129 3.65129,-3.65129c2.66521,0 5.32569,-0.17839 7.98433,-0.42387c-14.71529,-0.10213 -29.50024,-0.50214 -44.18482,0.07494c-6.50052,0.25546 -12.7751,1.47568 -19.27201,1.4879c0,0 -3.65129,0 -3.65129,-3.65129c0,-0.13799 0.00521,-0.27075 0.01525,-0.3985c-2.25432,0.30677 -4.49461,0.6491 -6.70414,0.94063c-5.9007,0.77856 -11.45199,-1.52478 -17.39605,-1.51355c-10.82853,0.02046 -21.49301,1.5409 -32.35895,1.5409c0,0 -3.65129,0 -3.65129,-3.65129c0,-0.0374 0.00038,-0.07443 0.00114,-0.11107c-9.54204,-0.2124 -19.45423,0.68057 -28.70881,0.68057c0,0 -0.60994,0 -1.33123,-0.2493c-0.23494,0.24198 -0.47129,0.48242 -0.70962,0.72075l-6.70461,-1.5409c0,0 -2.58186,-2.58186 0,-5.1637c1.45843,-1.45843 2.91684,-1.26919 3.90991,-0.82839c2.34009,-2.33954 5.48611,-5.48138 5.60247,-5.57707c1.21889,-1.00222 3.02743,-1.26068 4.03588,-2.47442c0.78669,-0.94685 0.61646,-2.38451 0.97869,-3.56103c0.12642,-0.41062 2.45798,-7.37534 3.10342,-9.24108c-0.98681,0.39311 -2.37454,0.49716 -3.76226,-0.89057c-2.58186,-2.58186 0,-5.1637 0,-5.1637l1.0847,-0.98442c8.61684,-12.92525 17.57841,-25.59718 26.19535,-38.52257c0,0 0.07622,-0.11433 0.22127,-0.28385c0.13777,-0.17548 0.23494,-0.27263 0.23494,-0.27263l2.70158,-2.63491c0.05045,-0.10294 0.10085,-0.20587 0.15122,-0.3088c-0.55694,0.02521 -1.19156,-0.0979 -1.90386,-0.45405c-3.26582,-1.6329 -1.6329,-4.89872 -1.6329,-4.89872l3.02153,-4.63403c4.87654,-2.57009 6.42339,-7.29631 9.74782,-11.45697c6.73545,-8.4297 12.57012,-17.21796 20.27358,-24.92143c0,0 1.17792,-1.17792 2.73813,-1.14689c0.03409,-0.04224 0.06803,-0.08458 0.10183,-0.12704c0.67457,-0.84725 1.35234,-1.69811 2.02832,-2.55374l-0.65351,0.42992c0,0 -3.26582,1.6329 -4.89872,-1.6329c-1.6329,-3.26582 1.6329,-4.89872 1.6329,-4.89872l1.50617,-0.01785c3.9538,-7.24195 9.51752,-13.37186 14.01723,-20.28193c4.57935,-7.03235 8.41952,-14.63988 14.3457,-20.62064c0,0 0.76175,-0.76175 1.87148,-1.04395l0.75412,-1.48137c2.83786,-4.19859 5.19797,-8.9332 7.46256,-13.44696c0.78139,-1.55745 0.80445,-3.45243 1.71494,-4.93811c1.56613,-2.55548 4.4373,-5.05672 7.02145,-7.36066c-0.45374,-1.952 -0.98446,-3.81719 -2.40723,-5.55991zM338.11551,331.47203c-9.54736,0 -20.37005,-1.49754 -29.77445,0.21759c-0.52731,0.09618 -1.05518,0.19539 -1.58346,0.29754c2.71247,0.38493 5.49803,-0.1132 8.24437,-0.1132c8.21814,0 16.4363,0 24.65444,0l0.50401,-0.40192z" fill="#000000" stroke-width="0.5"/><path d="M170.19088,258.05698c-1.0556,1.81415 -1.423,4.08887 -2.1027,6.07467c-0.00581,0.6421 -0.0396,2.64421 -0.04417,4.79142c-1.76685,-3.4431 -2.90403,-7.08746 -2.11081,-9.60606c0.98824,-3.13785 2.91639,-6.42991 5.26248,-9.46598c-0.04864,1.8771 -0.02149,4.84558 -0.01924,6.77592c-0.36485,0.44753 -0.69251,0.92638 -0.98557,1.43002z" data-paper-data="{&quot;noHover&quot;:false,&quot;origItem&quot;:[&quot;Path&quot;,{&quot;applyMatrix&quot;:true,&quot;segments&quot;:[[[171.12518,256.67897],[-0.36485,0.44753],[-0.00225,-1.93034]],[[171.17553,249.92123],[-0.04864,1.8771],[-2.34609,3.03607]],[[166.0062,259.31901],[0.98824,-3.13785],[-0.79322,2.5186]],[[168.04717,268.85013],[-1.76685,-3.4431],[0.00457,-2.14721]],[[168.09385,264.05885],[-0.00581,0.6421],[0.6797,-1.98581]],[[170.13292,258.10142],[-1.0556,1.81415],[0.29305,-0.50364]]],&quot;closed&quot;:true,&quot;fillColor&quot;:[0,0,0],&quot;strokeWidth&quot;:0.5}]}" fill="#ffb500" stroke-width="0.25"/><path d="M179.87309,296.46933c0.02731,-0.20038 0.04842,-1.86376 0.05398,-3.60087c0.97244,0.43202 2.15653,0.69195 3.20929,0.97896c-1.26237,0.89011 -2.60213,1.91247 -3.38263,3.10609c0.06158,-0.18541 0.10226,-0.35872 0.11937,-0.48417z" data-paper-data="{&quot;noHover&quot;:false,&quot;origItem&quot;:[&quot;Path&quot;,{&quot;applyMatrix&quot;:true,&quot;segments&quot;:[[[179.80019,296.89716],[0.06158,-0.18541],[0.7805,-1.19362]],[[183.07448,293.88619],[-1.26237,0.89011],[-1.05276,-0.28701]],[[179.97047,292.92718],[0.97244,0.43202],[-0.00556,1.73711]],[[179.92485,296.41781],[0.02731,-0.20038],[-0.0171,0.12546]]],&quot;closed&quot;:true,&quot;fillColor&quot;:[0,0,0],&quot;strokeWidth&quot;:0.5}]}" fill="#ffb500" stroke-width="0.25"/><path d="M183.15375,286.46923c-1.25736,-1.0579 -1.55158,-3.09934 -2.65475,-4.31012c1.88954,1.77079 4.03182,3.56191 5.59678,5.12338c-1.02093,-0.16435 -2.17422,-0.16724 -2.94203,-0.81326z" data-paper-data="{&quot;noHover&quot;:false,&quot;origItem&quot;:[&quot;Path&quot;,{&quot;applyMatrix&quot;:true,&quot;segments&quot;:[[[186.04192,287.23318],[-1.02093,-0.16435],[-1.56496,-1.56147]],[[180.55287,282.20841],[1.88954,1.77079],[1.10317,1.21078]],[[183.15973,286.39645],[-1.25736,-1.0579],[0.76781,0.64602]]],&quot;closed&quot;:true,&quot;fillColor&quot;:[0,0,0],&quot;strokeWidth&quot;:0.5}]}" fill="#ffb500" stroke-width="0.25"/><path d="M203.69398,286.88307c2.40382,0.11544 4.78654,0.18436 7.14735,-0.20796c1.61348,-0.26812 9.52752,-3.31222 10.80916,-3.78641c2.4785,-3.49991 8.25426,-8.07821 10.16739,-11.80561c1.90305,-3.70774 2.90196,-7.84913 3.52454,-11.96998c0.01583,-0.10473 0.14012,-0.30599 0.15404,-0.41028c0.27249,0.35626 0.51075,0.74473 0.70059,1.16606c0.43845,0.9731 -0.25256,2.12817 -0.28892,3.19487c-0.23129,6.78502 -1.90413,8.15438 -6.62422,12.87446c-3.91886,3.91886 -7.90998,9.20083 -12.9705,11.69347c-5.60211,2.7594 -11.51939,3.30225 -17.3502,2.65876c1.57464,-1.11778 3.23535,-2.30001 4.73079,-3.40738z" data-paper-data="{&quot;noHover&quot;:false,&quot;origItem&quot;:[&quot;Path&quot;,{&quot;applyMatrix&quot;:true,&quot;segments&quot;:[[[203.63914,286.93128],[0,0],[-1.49544,1.10736]],[[199.01916,290.24353],[1.57464,-1.11778],[5.83081,0.64349]],[[216.32087,287.55905],[-5.60211,2.7594],[5.06052,-2.49264]],[[229.21135,275.92998],[-3.91886,3.91886],[4.72009,-4.72009]],[[235.84642,263.10281],[-0.23129,6.78502],[0.03637,-1.0667]],[[236.1399,259.91434],[0.43845,0.9731],[-0.18984,-0.42133]],[[235.44196,258.75143],[0.27249,0.35626],[-0.01392,0.1043]],[[235.39734,259.06498],[0.01583,-0.10473],[-0.62257,4.12085]],[[231.88874,271.06541],[1.90305,-3.70774],[-1.91313,3.7274]],[[221.68227,282.95445],[2.4785,-3.49991],[-1.28163,0.47419]],[[210.80542,286.73869],[1.61348,-0.26812],[-2.36081,0.39232]],[[203.63913,286.93128],[2.40382,0.11544],[0,0]]],&quot;closed&quot;:true,&quot;fillColor&quot;:[0,0,0],&quot;strokeWidth&quot;:0.5}]}" fill="#ffb500" stroke-width="0.25"/><path d="M290.84711,240.3696c2.23927,0.69782 4.00596,0.69959 5.32642,2.48272l-1.13029,-0.35211c0,0 -1.96241,0.0082 -3.00995,1.44654c-0.63521,-0.55377 -1.3913,-0.97723 -1.93798,-1.18159c-2.89904,-1.08372 -6.79036,-0.12931 -10.22577,0.63774c-5.64237,-0.03454 -11.1998,0.65606 -15.58201,2.47825c-0.31606,0.13142 -0.76035,0.31985 -1.05196,0.49638c0.19628,-0.39183 0.41615,-0.75692 0.66438,-1.07868c1.33433,-1.72968 5.7485,-2.81793 7.49786,-3.39428c7.16131,-2.35938 11.94342,-3.87397 19.44931,-1.53495z" data-paper-data="{&quot;noHover&quot;:false,&quot;origItem&quot;:[&quot;Path&quot;,{&quot;applyMatrix&quot;:true,&quot;segments&quot;:[[[290.77575,240.3851],[0,0],[-7.50589,-2.33902]],[[271.47042,241.91229],[7.16131,-2.35938],[-1.74936,0.57635]],[[263.97206,245.28739],[1.33433,-1.72968],[-0.24823,0.32177]],[[263.30691,246.36198],[0.19628,-0.39183],[0.29161,-0.17653]],[[264.21592,245.89552],[-0.31606,0.13142],[4.38221,-1.82219]],[[279.85052,243.3324],[-5.64237,-0.03454],[3.43542,-0.76705]],[[290.16833,242.765],[-2.89904,-1.08372],[0.54667,0.20436]],[[291.96058,243.93991],[-0.63521,-0.55377],[1.04754,-1.43833]],[294.97022,242.50158],[[296.1005,242.85203],[0,0],[-1.32045,-1.78313]],[[290.77575,240.38509],[2.23927,0.69782],[0,0]]],&quot;closed&quot;:true,&quot;fillColor&quot;:[0,0,0],&quot;strokeWidth&quot;:0.5}]}" fill="#ffb500" stroke-width="0.25"/><path d="M279.3924,295.7483c0.94858,0.95861 1.94626,1.76427 3.20852,1.76427c2.3407,0 3.86161,-2.64772 5.65875,-4.14745c0.96019,-0.80128 1.80403,-1.65601 2.56547,-2.55552c5.98476,-2.5758 11.93089,-9.87021 14.94629,-15.12726c2.12679,-3.70783 3.77108,-7.11749 4.58218,-10.87081c0.97282,1.16002 2.0677,2.39638 3.13217,3.44585c1.53445,1.51282 3.42102,2.72521 4.63888,4.50286c1.06897,1.56031 0.7263,3.95005 2.0637,5.28745c1.81981,1.81981 6.2433,0.95302 6.91314,3.43791c0.33117,1.22857 -0.46359,2.56115 -0.23197,3.81232c0.76991,4.1588 2.61549,6.66719 5.00689,9.13114c0.362,2.10881 0.73409,4.26236 1.19663,6.50586c1.28219,6.21912 3.87289,11.78045 6.34763,17.54396c0.87181,2.0304 1.55229,3.91273 2.24477,5.73887l-3.49591,0.0009c-9.96019,0 -21.06599,-1.42375 -30.89359,0.31116c-5.96205,1.05251 -12.00799,2.52295 -17.94061,4.21678c0.04919,-0.26193 0.00528,-0.67621 0.00528,-0.98963c0,-3.65129 -3.58106,-3.52324 -3.58106,-3.52324l-1.54173,0.00044c-15.39022,0 -30.91609,-0.50943 -46.31479,-0.07205c-1.04341,-1.46056 -3.02803,-1.46053 -3.02803,-1.46053l-0.38657,0.18737c-10.08636,-3.26559 -20.66456,-1.75809 -30.90098,-0.16388c-4.55476,0.70936 -4.73373,-0.90917 -9.90079,-1.54356c-2.18683,-0.26849 -4.41032,-0.02549 -6.61359,-0.02924c-2.22551,-0.0038 -4.44742,0.05706 -6.66195,0.15928c-0.58989,-0.16124 -1.04664,-0.16159 -1.04664,-0.16159l-1.54166,-0.00047c-3.44673,0 -6.92573,0.45974 -10.34485,0.02417c-2.10079,-0.26763 -4.06454,-1.28511 -6.16654,-1.54318c-10.63685,-1.30595 -22.11415,-0.43133 -33.06025,-0.12804c1.56324,-1.11227 3.51432,-1.78151 4.68836,-3.28643c2.92444,-3.74862 2.90741,-10.23955 4.99807,-14.48396c1.40099,-2.84427 4.3463,-4.6783 5.98865,-7.39038c0.84136,-1.38936 0.70412,-3.23154 1.53979,-4.62433c0.74745,-1.24575 2.33576,-1.83553 3.08147,-3.08232c1.74723,-2.92127 2.64656,-6.32291 4.55271,-9.14304c0,0 2.02354,-3.04144 -1.01453,-5.06682c-0.37232,-0.24821 -0.72976,-0.42105 -1.0698,-0.53208c2.4839,-3.62373 5.09399,-7.31237 7.54842,-10.9578c0.03362,8.35688 6.90319,18.95761 12.41544,23.43486c0.56071,0.45543 1.19627,0.81056 1.83712,1.16009c-0.22082,4.01937 -1.10556,8.56213 -0.05076,12.00366c0.81776,2.66816 1.2579,6.34811 3.82593,7.44039c2.41722,1.02813 5.10044,-1.42002 7.41506,-2.662c4.39807,-2.35992 5.48874,-3.95505 7.51283,-6.06005c9.34116,2.16371 19.08935,2.31606 28.02649,-2.20413c5.8988,-2.98347 10.23383,-8.43175 14.8295,-13.02741c5.75459,-5.75459 8.94377,-9.37957 8.75551,-17.98872c-0.0442,-2.02087 0.58469,-4.07745 -0.25529,-5.916c-1.05217,-2.30299 -6.02046,-5.9733 -9.01444,-8.15438c-4.09316,-8.58219 -14.81731,-14.48166 -24.56101,-15.69554c-1.12156,-2.52418 -2.77235,-4.7053 -5.46006,-5.90203c-1.8351,-0.8171 -3.86611,-0.22412 -5.87448,-0.26541c-10.5476,-0.21681 -18.43251,4.59915 -25.69586,11.83961c-0.39714,0.39587 -0.94161,0.81505 -1.34269,1.21538c3.69111,-7.2627 7.63852,-14.36956 12.76812,-20.97826c3.53301,-4.55173 8.72186,-7.85175 12.33599,-12.34947c3.26951,-4.06886 6.56067,-8.29081 9.47615,-12.63569c0,0 2.11517,-2.92294 -0.92289,-4.94831c-0.94977,-0.63318 -1.88941,-0.88739 -2.6103,-0.77836c2.73926,-3.73739 5.66029,-7.38039 8.19256,-11.26533c3.98686,-6.11652 7.35117,-12.94461 12.31191,-18.31295c2.21457,0.12996 3.32541,-2.08516 3.32541,-2.08516l1.31471,-2.68952c2.98144,-4.52441 5.55118,-9.46629 7.95405,-14.28968c0.67168,-1.34829 0.60885,-3.00622 1.36792,-4.30731c0.77442,-1.32742 2.07826,-2.66824 3.50411,-3.96502c0.85338,1.0219 2.06185,1.77064 2.89828,2.81962c1.20065,1.50576 1.94261,3.36059 3.23162,4.79145c0.9445,1.04845 2.60363,1.37189 3.3847,2.54717c1.26011,1.89604 1.4033,4.36749 2.53055,6.34541c3.03845,5.33147 7.92792,9.73192 11.29129,14.84918c1.83705,2.79502 3.34335,5.73665 4.76857,8.69915c-0.94395,-0.26037 -2.22258,-0.05534 -3.43176,1.15384c-2.58186,2.58184 0.06958,5.03532 0.06958,5.03532l2.56128,2.42173c2.57684,7.73049 9.70699,12.66766 13.76133,19.82808c2.82141,4.98294 4.58188,10.23948 6.82378,15.23307l-2.67871,-2.49573c0,0 -2.4447,-2.63203 -5.02656,-0.05017c-2.58186,2.58184 0.00235,5.17087 0.00235,5.17087l3.08307,3.0873c3.71433,3.68148 5.76614,8.01837 9.00475,12.07759c0.03726,0.04671 -0.07154,0.0851 -0.03469,0.13036c-8.51521,-2.57029 -14.69623,-0.97883 -22.95132,1.80187c-4.09247,1.37854 -8.01404,2.23426 -10.99848,5.89068c-1.2775,1.56515 -1.44787,3.79045 -2.11175,5.69858c-0.40204,1.15555 -0.82641,2.53036 -1.19015,4.002c-0.12093,0.06656 -0.23982,0.13953 -0.35472,0.21843c-5.51074,3.78414 -5.93293,9.91228 -4.78928,16.03283c0.38552,2.0632 0.95025,3.99561 1.98484,5.82183c0.71609,1.26403 2.32902,1.83885 3.07946,3.08278c0.89877,1.48982 0.6522,3.56578 1.74562,4.91922c1.30104,1.61044 3.43599,2.30982 5.07089,3.58333c0.51999,0.52863 1.69146,1.7124 2.94854,2.94816c1.38405,1.48917 2.8281,3.04425 3.74253,3.60676c2.31337,1.42308 5.17228,2.12755 7.0388,4.10062c0,0 1.85399,1.85774 3.99255,0.84839z" data-paper-data="{&quot;noHover&quot;:false,&quot;origItem&quot;:[&quot;Path&quot;,{&quot;applyMatrix&quot;:true,&quot;segments&quot;:[[[279.43326,295.80874],[0,0],[-2.13856,1.00935]],[[275.43844,294.96183],[0,0],[-1.86651,-1.97307]],[[268.39619,290.86324],[2.31337,1.42308],[-0.91443,-0.5625]],[[264.65212,287.25731],[1.38405,1.48917],[-1.25708,-1.23576]],[[261.70223,284.30984],[0.51999,0.52863],[-1.6349,-1.27351]],[[256.62776,280.72815],[1.30104,1.61044],[-1.09342,-1.35345]],[[254.88259,275.80873],[0.89877,1.48982],[-0.75044,-1.24394]],[[251.80078,272.72692],[0.71609,1.26403],[-1.03459,-1.82622]],[[249.76171,266.76949],[0.38552,2.0632],[-1.14364,-6.12055]],[[254.52806,250.75142],[-5.51074,3.78414],[0.1149,-0.0789]],[[254.88203,250.53371],[-0.12093,0.06656],[0.36374,-1.47163]],[[256.06555,246.53915],[-0.40204,1.15555],[0.66388,-1.90814]],[[258.16867,240.85478],[-1.2775,1.56515],[2.98444,-3.65642]],[[269.16115,234.98446],[-4.09247,1.37854],[8.25509,-2.78069]],[[292.2577,233.19668],[-8.51521,-2.57029],[-0.03685,-0.04526]],[[292.14654,233.05874],[0.03726,0.04671],[-3.23861,-4.05922]],[[283.14298,220.99848],[3.71433,3.68148],[0,0]],[280.06117,217.91667],[[280.06117,212.75297],[-2.58186,2.58184],[2.58186,-2.58186]],[285.22487,212.75297],[[287.76428,215.29237],[0,0],[-2.24189,-4.99358]],[[280.94968,200.07949],[2.82141,4.98294],[-4.05434,-7.16042]],[[267.20981,180.27276],[2.57684,7.73049],[0,0]],[264.65212,177.85321],[[264.65212,172.68951],[-2.58186,2.58184],[1.20918,-1.20918]],[[268.01442,171.66412],[-0.94395,-0.26037],[-1.42522,-2.9625]],[[263.25344,162.96869],[1.83705,2.79502],[-3.36337,-5.11726]],[[251.97566,148.12372],[3.03845,5.33147],[-1.12724,-1.97792]],[[249.44813,141.77886],[1.26011,1.89604],[-0.78107,-1.17528]],[[246.06639,139.23211],[0.9445,1.04845],[-1.28901,-1.43085]],[[242.83764,134.44096],[1.20065,1.50576],[-0.83642,-1.04899]],[[239.94167,131.62149],[0.85338,1.0219],[-1.42585,1.29678]],[[236.44011,135.58659],[0.77442,-1.32742],[-0.75907,1.30109]],[[235.07324,139.8939],[0.67168,-1.34829],[-2.40287,4.82339]],[[227.12676,154.1832],[2.98144,-4.52441],[0,0]],[225.81361,156.87254],[[222.49175,158.95716],[2.21457,0.12996],[-4.96074,5.36834]],[[210.19821,177.26432],[3.98686,-6.11652],[-2.53227,3.88493]],[[202.02,188.52077],[2.73926,-3.73739],[0.72088,-0.10903]],[[204.54145,189.18324],[-0.94977,-0.63318],[3.03807,2.02537]],[[205.55414,194.24668],[0,0],[-2.91547,4.34488]],[[196.09437,206.8634],[3.26951,-4.06886],[-3.61412,4.49772]],[[183.76715,219.19062],[3.53301,-4.55173],[-5.1296,6.6087]],[[170.99977,240.14232],[3.69111,-7.2627],[0.40109,-0.40033]],[[172.19799,238.94835],[-0.39714,0.39587],[7.26334,-7.24046]],[[197.89339,227.09259],[-10.5476,-0.21681],[2.00837,0.04129]],[[203.91338,227.37053],[-1.8351,-0.8171],[2.68772,1.19673]],[[209.37321,233.25725],[-1.12156,-2.52418],[9.7437,1.21388]],[[233.86597,248.88869],[-4.09316,-8.58219],[2.99399,2.18108]],[[242.85559,257.0459],[-1.05217,-2.30299],[0.83997,1.83856]],[[243.14907,263.10284],[-0.0442,-2.02087],[0.18826,8.60915]],[[234.37511,281.09372],[5.75459,-5.75459],[-4.59567,4.59567]],[[219.52933,294.1191],[5.8988,-2.98347],[-8.93714,4.52019]],[[191.47985,296.31326],[9.34116,2.16371],[-2.02409,2.105]],[[183.965,302.37194],[4.39807,-2.35992],[-2.31461,1.24198]],[[176.54715,305.03187],[2.41722,1.02813],[-2.56803,-1.09228]],[[172.71661,297.58756],[0.81776,2.66816],[-1.0548,-3.44153]],[[172.76238,285.57882],[-0.22082,4.01937],[-0.64085,-0.34953]],[[170.92407,284.41736],[0.56071,0.45543],[-5.51224,-4.47725]],[[158.49661,260.96258],[0.03362,8.35688],[-2.45443,3.64542]],[[151.08132,271.86057],[2.4839,-3.62373],[0.34004,0.11103]],[[152.15078,272.39198],[-0.37232,-0.24821],[3.03807,2.02537]],[[153.16347,277.45542],[0,0],[-1.90615,2.82013]],[[148.60867,286.59506],[1.74723,-2.92127],[-0.74571,1.24679]],[[145.52686,289.67687],[0.74745,-1.24575],[-0.83568,1.39279]],[[143.98596,294.29959],[0.84136,-1.38936],[-1.64235,2.71208]],[[137.99639,301.6887],[1.40099,-2.84427],[-2.09066,4.24441]],[[132.99537,316.16893],[2.92444,-3.74862],[-1.17404,1.50492]],[[128.30718,319.45556],[1.56324,-1.11227],[10.9461,-0.30329]],[[161.35785,319.5741],[-10.63685,-1.30595],[2.10199,0.25807]],[[167.52147,321.115],[-2.10079,-0.26763],[3.41912,0.43557]],[[177.86166,321.08764],[-3.44673,0],[0,0]],[179.40256,321.08764],[[180.44863,321.24889],[-0.58989,-0.16124],[2.21452,-0.10222]],[[187.10709,321.08764],[-2.22551,-0.0038],[2.20326,0.00375]],[[193.71682,321.115],[-2.18683,-0.26849],[5.16706,0.63439]],[[203.61089,322.6559],[-4.55476,0.70936],[10.23642,-1.59421]],[[234.48881,322.81592],[-10.08636,-3.26559],[0,0]],[234.87507,322.62855],[[237.90075,324.08911],[-1.04341,-1.46056],[15.39871,-0.43738]],[[284.18396,324.16945],[-15.39022,0],[0,0]],[285.72487,324.16945],[[289.37616,327.82075],[0,-3.65129],[0,0.31343]],[[289.30007,328.68264],[0.04919,-0.26193],[5.93262,-1.69384]],[[307.23153,324.47184],[-5.96205,1.05251],[9.8276,-1.73491]],[[338.11557,324.16945],[-9.96019,0],[0,0]],[[341.61067,324.16945],[0,0],[-0.69248,-1.82614]],[[339.36492,318.43172],[0.87181,2.0304],[-2.47475,-5.76351]],[[333.01383,300.89219],[1.28219,6.21912],[-0.46255,-2.2435]],[[331.81556,294.38869],[0.362,2.10881],[-2.39141,-2.46395]],[[326.80691,285.26034],[0.76991,4.1588],[-0.23162,-1.25117]],[[327.0377,281.45006],[0.33117,1.22857],[-0.66984,-2.4849]],[[320.12469,278.01191],[1.81981,1.81981],[-1.3374,-1.3374]],[[318.05966,272.72694],[1.06897,1.56031],[-1.21785,-1.77765]],[[313.42008,268.22549],[1.53445,1.51282],[-1.06447,-1.04947]],[[310.41996,264.84203],[0.97282,1.16002],[-0.8111,3.75333]],[[305.83285,275.72183],[2.12679,-3.70783],[-3.0154,5.25705]],[[290.87461,290.86331],[5.98476,-2.5758],[-0.76144,0.8995]],[[288.30674,293.42094],[0.96019,-0.80128],[-1.79714,1.49973]],[[282.64309,297.57218],[2.3407,0],[-1.26227,0]],[[279.43335,295.80876],[0.94858,0.95861],[0,0]]],&quot;closed&quot;:true,&quot;fillColor&quot;:[0,0,0],&quot;strokeWidth&quot;:0.5}]}" fill="#ffb500" stroke-width="0.25"/><path d="M209.69823,191.63641c1.18311,-3.65427 2.89632,-13.247 5.645,-15.86511c1.71336,-1.63197 4.30238,-2.08466 6.61969,-2.56319c0.81622,-0.16856 1.63712,-0.20379 2.46074,-0.15153c1.90208,-1.39644 4.06069,-2.45755 6.78467,-2.93027c0.59833,-0.10383 1.14757,-0.17923 1.65891,-0.22894c1.41726,-1.04839 2.81094,-2.12276 4.04861,-3.37149c0,0 2.58186,-2.58186 5.1637,0c2.58186,2.58186 0,5.1637 0,5.1637c-0.02017,0.02002 -0.04038,0.04008 -0.06063,0.06016c0.05762,0.01915 0.11572,0.03838 0.17431,0.05768c2.12432,0.69966 4.4909,1.51015 6.86816,2.48948c0.91481,0.13165 1.79284,0.34912 2.61991,0.68289c0.14366,0.05797 0.66586,0.50306 1.37499,1.14772c3.90456,2.00412 7.46771,4.58156 9.57911,8.01056c1.55054,2.51815 2.50187,5.09954 2.98238,7.71903c0.28541,0.46263 0.46414,0.76921 0.48808,0.847c0.96198,3.12647 0.56266,6.70905 -0.78975,9.85738c-0.2071,1.00247 -0.45605,2.00554 -0.7401,3.00788c-0.74781,2.63883 -2.00513,9.15606 -3.48151,11.68506c-0.73244,1.25463 -2.29912,1.8579 -3.08181,3.08181c-1.11291,1.74028 -0.80812,4.49721 -2.51193,5.66519c-1.86756,1.28023 -4.49756,0.55234 -6.75765,0.6892c-2.68274,0.16247 -5.41036,0.13444 -8.1321,0.08344c-6.84223,2.52851 -14.13007,3.15178 -20.49819,-0.07138c-1.74608,0.07888 -3.56036,0.4071 -5.12596,-0.29c-5.99486,-2.66929 -7.68085,-10.53155 -6.82957,-16.28544c0.19511,-1.3188 0.93006,-2.50727 1.33328,-3.77707c-0.3189,-4.75505 0.16276,-9.75954 0.20761,-14.71375z" fill="#000000" stroke-width="0.5"/></g><text transform="translate(89.43555,65.65422) scale(1.40077,1.40077)" font-size="40" xml:space="preserve" fill="#c3c3c3" fill-rule="nonzero" stroke="none" stroke-width="1" stroke-linecap="butt" stroke-linejoin="miter" stroke-miterlimit="10" stroke-dasharray="" stroke-dashoffset="0" font-family="Curly" font-weight="normal" text-anchor="start" style="mix-blend-mode: normal"><tspan x="0" dy="0">CHEESE!!! 0</tspan></text><text transform="translate(163.00912,95.66252) scale(0.66268,0.66268)" font-size="40" xml:space="preserve" fill="#c3c3c3" fill-rule="nonzero" stroke="none" stroke-width="1" stroke-linecap="butt" stroke-linejoin="miter" stroke-miterlimit="10" stroke-dasharray="" stroke-dashoffset="0" font-family="Curly" font-weight="normal" text-anchor="start" style="mix-blend-mode: normal"><tspan x="0" dy="0">NIGHT SHIFT</tspan></text></g></g></svg>